<svg width="400" height="400" viewBox="0 0 400 400" fill="none" xmlns="http://www.w3.org/2000/svg">
  <!-- Background -->
  <rect width="400" height="400" fill="#f5f5f5"/>
  
  <!-- Shadow -->
  <ellipse cx="200" cy="360" rx="140" ry="20" fill="#00000015"/>
  
  <!-- Hanging hole -->
  <circle cx="200" cy="60" r="8" fill="#f5f5f5" stroke="#406A56" stroke-width="2"/>
  
  <!-- Calendar body -->
  <rect x="60" y="70" width="280" height="280" fill="white" stroke="#406A56" stroke-width="2" rx="2"/>
  
  <!-- Photo area (top half) -->
  <rect x="75" y="85" width="250" height="140" fill="#e8e4dc"/>
  <circle cx="150" cy="135" r="25" fill="#406A56" opacity="0.4"/>
  <path d="M90 180L150 140L200 165L280 120L310 150V215H90V180Z" fill="#406A56" opacity="0.3"/>
  
  <!-- Wire binding -->
  <rect x="60" y="225" width="280" height="8" fill="#333"/>
  <ellipse cx="90" cy="229" rx="6" ry="4" fill="#f5f5f5"/>
  <ellipse cx="130" cy="229" rx="6" ry="4" fill="#f5f5f5"/>
  <ellipse cx="170" cy="229" rx="6" ry="4" fill="#f5f5f5"/>
  <ellipse cx="210" cy="229" rx="6" ry="4" fill="#f5f5f5"/>
  <ellipse cx="250" cy="229" rx="6" ry="4" fill="#f5f5f5"/>
  <ellipse cx="290" cy="229" rx="6" ry="4" fill="#f5f5f5"/>
  
  <!-- Calendar grid -->
  <rect x="80" y="240" width="240" height="100" fill="#faf9f6"/>
  
  <!-- Month header -->
  <rect x="80" y="243" width="240" height="18" fill="#406A56"/>
  <text x="200" y="256" font-family="Arial" font-size="12" fill="white" text-anchor="middle" font-weight="bold">FEBRUARY 2026</text>
  
  <!-- Day headers -->
  <text x="96" y="275" font-family="Arial" font-size="9" fill="#406A56" text-anchor="middle">S</text>
  <text x="130" y="275" font-family="Arial" font-size="9" fill="#406A56" text-anchor="middle">M</text>
  <text x="164" y="275" font-family="Arial" font-size="9" fill="#406A56" text-anchor="middle">T</text>
  <text x="200" y="275" font-family="Arial" font-size="9" fill="#406A56" text-anchor="middle">W</text>
  <text x="234" y="275" font-family="Arial" font-size="9" fill="#406A56" text-anchor="middle">T</text>
  <text x="268" y="275" font-family="Arial" font-size="9" fill="#406A56" text-anchor="middle">F</text>
  <text x="302" y="275" font-family="Arial" font-size="9" fill="#406A56" text-anchor="middle">S</text>
  
  <!-- Grid lines -->
  <line x1="80" y1="280" x2="320" y2="280" stroke="#406A56" stroke-width="0.5" opacity="0.3"/>
  <line x1="80" y1="300" x2="320" y2="300" stroke="#406A56" stroke-width="0.5" opacity="0.3"/>
  <line x1="80" y1="320" x2="320" y2="320" stroke="#406A56" stroke-width="0.5" opacity="0.3"/>
</svg>
