<svg width="244" height="132" viewBox="0 0 244 132" fill="none" xmlns="http://www.w3.org/2000/svg">
<path d="M200.007 32.2762C199.089 32.6334 197.985 32.8055 196.691 32.8055C195.269 32.8055 194.031 32.5823 192.973 32.1423C191.914 31.7023 191.085 31.0454 190.466 30.1844C189.854 29.3235 189.503 28.2648 189.414 27.0021H180.256C180.294 30.0888 180.996 32.6525 182.373 34.6869C183.751 36.7213 185.671 38.2391 188.139 39.2404C188.317 39.3106 188.515 39.3616 188.7 39.4317C188.7 39.4062 188.713 39.3871 188.713 39.3616C189.663 38.7047 190.639 39.3935 191.602 39.1766C191.895 39.1894 192.182 39.2021 192.475 39.2149C194.204 38.9789 195.951 39.1511 197.673 38.6345C197.781 38.6027 197.877 38.5325 197.985 38.5006C198.221 38.4305 198.464 38.4177 198.681 38.2073C198.763 38.1435 198.853 38.1052 198.948 38.0797C199.178 38.0542 199.408 38.0606 199.637 38.0733C199.733 38.0861 199.822 38.1052 199.911 38.1499C200.052 38.2264 200.192 38.2519 200.339 38.2838C200.345 38.2838 200.358 38.2838 200.364 38.2902C200.6 38.1817 200.881 38.3922 201.091 38.0797H201.085C201.353 37.6652 201.723 38.0797 202.003 37.7417V37.7545C202.003 37.7545 202.073 37.831 202.099 37.8182C203.221 37.308 204.356 37.8756 205.485 37.6971C206.353 36.8616 207.003 36.3705 207.883 36.0134C208.387 35.803 208.808 35.1588 209.299 35.382C209.643 35.5415 209.988 35.618 210.332 35.6499C210.453 35.4905 210.575 35.3374 210.689 35.1716C211.939 33.3668 212.564 31.2112 212.564 28.6857C212.564 27.1041 212.296 25.6756 211.767 24.4001C211.238 23.1246 210.447 21.9958 209.407 21.02C208.368 20.0443 207.092 19.2024 205.587 18.4882C204.076 17.7803 202.348 17.2127 200.396 16.7854L197.016 16.0137C195.83 15.7459 194.79 15.427 193.91 15.0571C193.03 14.6808 192.36 14.2217 191.901 13.6732C191.442 13.1247 191.206 12.4551 191.206 11.6771C191.206 10.9692 191.417 10.3314 191.831 9.75744C192.246 9.18985 192.871 8.74343 193.693 8.42455C194.516 8.10568 195.556 7.94624 196.793 7.94624C198.655 7.94624 200.096 8.34165 201.123 9.13245C202.144 9.92325 202.705 11.0266 202.813 12.4487H212.029C211.99 9.98065 211.353 7.81232 210.109 5.93735C208.865 4.06238 207.112 2.60832 204.835 1.56879C202.558 0.529269 199.892 0.0126953 196.818 0.0126953C193.744 0.0126953 191.123 0.529269 188.789 1.55604C186.455 2.58281 184.625 4.02411 183.292 5.8672C181.959 7.71666 181.296 9.85948 181.296 12.3148C181.296 15.3505 182.278 17.7548 184.248 19.5149C186.219 21.2815 188.91 22.557 192.316 23.335L196.499 24.2917C197.954 24.6105 199.146 24.9677 200.084 25.3694C201.015 25.7712 201.71 26.2304 202.175 26.7533C202.635 27.2763 202.871 27.914 202.871 28.6602C202.871 29.4765 202.622 30.1972 202.124 30.8158C201.627 31.4408 200.919 31.9255 200.007 32.2826V32.2762Z" fill="black"/>
<path d="M146.972 35.7137C149.402 35.8731 151.838 35.9815 154.262 36.2494C154.523 36.0772 154.804 36.1091 155.072 35.9943C155.174 35.9496 155.276 35.9369 155.384 35.9433C155.639 36.0581 155.901 36.0899 156.162 36.1091C156.232 36.2494 156.302 36.3578 156.373 36.4535V26.6258H161.302L167.221 37.7226C167.329 37.7417 167.437 37.7608 167.546 37.7736C167.642 37.8119 167.744 37.8437 167.839 37.8692C168.024 37.9777 168.222 38.0287 168.413 38.1371C169.025 38.4496 169.657 38.6345 170.295 38.7876C170.397 38.8004 170.499 38.8322 170.601 38.8833C170.805 39.0236 171.009 39.1511 171.219 39.2723C172.284 39.757 173.349 40.1524 174.465 39.7634C174.752 39.6613 175.052 39.7952 175.307 40.0695C175.333 40.1141 175.358 40.1588 175.384 40.2034H176.391C176.442 40.1843 176.493 40.1588 176.544 40.146C176.793 39.7697 177.169 39.6486 177.456 39.757C177.641 39.8271 177.826 39.859 178.011 39.8781C178.222 39.8654 178.426 39.859 178.636 39.859C178.687 39.859 178.738 39.859 178.789 39.8526C178.802 39.8526 178.821 39.8526 178.834 39.8463L170.779 25.108C172.979 24.1067 174.682 22.6526 175.875 20.7458C177.074 18.8262 177.673 16.492 177.673 13.7433C177.673 10.9947 177.087 8.70516 175.9 6.72815C174.714 4.75114 173.05 3.22055 170.881 2.14914C168.713 1.07773 166.143 0.535645 163.158 0.535645H146.806V35.7137C146.857 35.7137 146.908 35.7137 146.966 35.7137H146.972ZM156.373 8.28425H161.086C162.54 8.28425 163.764 8.48195 164.746 8.88373C165.735 9.28551 166.474 9.88499 166.985 10.6949C167.488 11.5049 167.744 12.5189 167.744 13.7433C167.744 14.9678 167.488 15.9755 166.985 16.7663C166.481 17.5571 165.735 18.1374 164.746 18.5137C163.764 18.8836 162.552 19.0749 161.111 19.0749H156.373V8.28425Z" fill="black"/>
<path d="M44.6397 39.3999C47.8093 39.5848 50.9789 39.4828 54.1485 39.3042V26.9766L68.6636 0.529297H57.9813L49.5631 17.1489H49.1868L40.8324 0.529297H30.0991L44.6397 26.9766V39.3999Z" fill="black"/>
<path d="M113.121 37.4037C113.261 37.4547 113.395 37.5121 113.535 37.5632C114.32 37.0147 115.142 37.0657 115.959 37.0849C116.756 37.104 117.528 37.1805 118.331 36.9382C119.237 36.6703 120.2 36.6831 121.118 37.1104C121.577 37.3208 122.056 37.5377 122.508 37.3336C123.554 36.868 124.658 37.1423 125.691 36.5364C126.016 36.8999 126.38 36.7468 126.73 36.766C126.871 36.766 127.005 36.766 127.145 36.7851C127.343 36.7405 127.534 36.7086 127.732 36.6831C130.359 37.3208 132.955 36.5428 135.563 36.1537C135.684 36.1474 135.805 36.1537 135.927 36.192C136.277 36.294 136.628 36.3578 136.979 36.4088C137.802 35.6435 138.529 34.7826 139.141 33.826C140.544 31.6321 141.245 29.0556 141.245 26.0901V0.529297H131.686V25.2993C131.686 26.6832 131.379 27.9077 130.767 28.9727C130.155 30.0378 129.307 30.8732 128.223 31.4791C127.138 32.0849 125.889 32.3847 124.466 32.3847C123.044 32.3847 121.794 32.0849 120.71 31.4791C119.626 30.8732 118.778 30.0378 118.165 28.9727C117.553 27.9077 117.247 26.6832 117.247 25.2993V0.529297H107.687V26.0965C107.687 29.062 108.389 31.6385 109.792 33.8323C110.678 35.2163 111.788 36.4088 113.121 37.3973V37.4037Z" fill="black"/>
<path d="M65.8 20.4015C65.8 24.7509 66.6291 28.4371 68.2873 31.4663C69.9454 34.4956 72.2094 36.7979 75.0792 38.3795C77.9491 39.9611 81.1633 40.7519 84.7347 40.7519C88.3061 40.7519 91.4884 39.9675 94.3519 38.3923C97.209 36.8234 99.473 34.5148 101.144 31.4791C102.815 28.4434 103.65 24.7509 103.65 20.4015C103.65 16.052 102.815 12.3276 101.144 9.28557C99.473 6.24353 97.209 3.93489 94.3519 2.35966C91.4948 0.790804 88.2869 0 84.7347 0C81.1825 0 77.9491 0.784427 75.0792 2.35966C72.2094 3.93489 69.9454 6.23715 68.2873 9.28557C66.6291 12.3276 65.8 16.0393 65.8 20.4015ZM76.68 13.8327C77.4134 12.047 78.4657 10.695 79.8368 9.77026C81.2016 8.84553 82.8342 8.38635 84.7347 8.38635C86.6352 8.38635 88.2678 8.84553 89.6326 9.77026C90.9974 10.695 92.0496 12.047 92.7767 13.8327C93.5037 15.6184 93.8672 17.8058 93.8672 20.3951C93.8672 22.9843 93.5037 25.1463 92.7767 26.9192C92.0496 28.6922 91.0037 30.0442 89.6326 30.9689C88.2614 31.8936 86.6352 32.3528 84.7347 32.3528C82.8342 32.3528 81.2016 31.8936 79.8368 30.9689C78.472 30.0442 77.4198 28.6985 76.68 26.9192C75.9402 25.1463 75.5767 22.9716 75.5767 20.3951C75.5767 17.8186 75.9466 15.612 76.68 13.8327Z" fill="black"/>
<path d="M159.645 111.051C159.645 111.051 159.632 111.051 159.625 111.038C159.625 111.038 159.625 111.038 159.619 111.038H159.645V111.051Z" stroke="black" stroke-width="2" stroke-miterlimit="10"/>
<path d="M239.866 34.4126C239.866 34.4126 239.873 34.4192 239.873 34.4258L239.86 34.4126H239.866Z" stroke="black" stroke-width="2" stroke-miterlimit="10"/>
<path d="M241.34 97.2816C241.397 97.5304 241.416 97.7791 241.34 98.0214L241.333 97.9959C241.391 99.0099 241.41 100.018 241.359 101.032C241.391 101.07 241.422 101.121 241.448 101.172C241.473 101.829 241.461 102.473 241.422 103.117C241.442 104.565 241.371 106.019 241.41 107.466C241.429 108.13 241.34 108.812 241.493 109.463V109.52C241.352 109.909 241.499 110.445 241.276 110.795L241.288 110.764C240.887 111.038 240.491 111.491 240.083 110.968C240.026 111.006 239.968 111.044 239.905 111.076C238.616 110.719 237.29 111.331 236.008 110.738C235.562 110.228 235.121 111.223 234.675 110.77C232.889 111.229 231.097 111.057 229.305 111.076C222.169 111.165 215.026 111.165 207.89 111.191C207.635 111.191 207.38 111.133 207.124 111.102C205.658 111.197 204.184 111.255 202.718 111.102C201.474 111.216 200.224 111.242 198.974 111.082C195.817 111.229 192.654 111.159 189.497 111.044C186.717 111.051 183.942 111.076 181.162 111.063C177.068 111.044 172.973 111.006 168.879 110.98C168.554 110.98 168.222 111.031 167.897 111.063C167.82 111.063 167.75 111.063 167.674 111.063C167.527 111.28 167.38 111.28 167.234 111.063C166.5 110.936 165.76 110.897 165.027 111.063C164.957 111.197 164.88 111.197 164.81 111.063C163.305 110.872 161.8 110.827 160.288 111.019C160.065 110.84 159.848 110.859 159.625 111.019C159.204 110.738 158.764 110.866 158.337 110.866C144.983 110.834 131.635 110.815 118.28 110.783C117.847 110.783 117.4 110.955 116.979 110.611C114.026 110.343 111.067 110.534 108.115 110.445C106.699 110.4 105.283 110.559 103.867 110.317C103.733 110.298 103.593 110.273 103.459 110.241C103.453 110.234 103.44 110.234 103.427 110.234C102.203 110.572 100.965 110.336 99.7346 110.343C98.1338 110.355 96.5395 110.253 94.9387 110.202C94.7155 110.317 94.4987 110.324 94.2755 110.209C92.8086 110.349 91.3355 110.311 89.8686 110.164C86.7182 110.164 83.5741 110.19 80.4236 110.164C73.1725 110.107 65.9277 110.03 58.6765 109.973C58.313 109.973 57.9431 109.871 57.5924 110.113C56.8016 109.89 56.0171 109.756 55.2327 110.241C54.6396 110.611 54.1294 109.871 53.5299 109.903C51.4509 110.005 49.3718 109.947 47.2928 109.922C46.942 109.915 46.5721 110.088 46.2469 109.737C46.1767 109.992 45.9663 109.903 45.8068 109.928C39.0722 109.915 32.3376 109.903 25.6031 109.883C25.2077 109.883 24.7931 110.03 24.4105 109.73C23.964 109.603 23.524 109.622 23.0776 109.73C22.4909 109.986 21.9041 109.998 21.3174 109.718C21.1006 109.603 20.8774 109.597 20.6542 109.705C20.2141 109.992 19.7741 109.986 19.334 109.705C18.9705 109.571 18.6006 109.584 18.2307 109.705C18.0777 109.909 17.931 109.915 17.7907 109.679C17.4973 109.545 17.2039 109.552 16.9106 109.679C16.6172 109.986 16.3175 109.966 16.0241 109.686C13.69 109.475 11.3622 109.507 9.02806 109.628C8.72194 109.533 8.40944 109.437 8.09695 109.341C7.88011 109.463 7.6569 109.469 7.44007 109.341C7.14671 109.494 6.84697 109.469 6.5536 109.341C5.06128 109.52 3.56896 109.437 2.07663 109.354C1.08175 109.297 0.998844 109.118 1.0116 107.32C1.03073 104.488 1.06262 101.65 1.08813 98.8186C1.05624 98.6911 1.04986 98.5508 1.05624 98.4041C1.069 98.3594 1.08175 98.3212 1.09451 98.2829C1.10088 97.7089 1.11364 97.1286 1.11364 96.5546C1.12002 96.1847 1.09451 95.8148 1.08175 95.4449C1.12639 95.1388 1.1519 96.5163 1.1519 98.1107C1.18379 98.0278 1.21568 97.9513 1.24756 97.8811C1.18379 96.4653 1.22843 95.0559 1.29221 93.6401C1.28583 93.6337 1.27945 93.6337 1.27945 93.6337C1.22205 93.4871 1.19655 93.3276 1.2093 93.149C1.25394 92.8684 1.28583 92.5878 1.30496 92.3072C1.31134 91.4718 1.31772 90.6363 1.31772 89.8009C1.29858 89.0675 1.27307 88.3341 1.31772 87.6007C1.33047 87.4604 1.33047 87.3201 1.33047 87.1798C1.33685 86.5548 1.33685 85.9361 1.33685 85.3175C1.29221 84.7818 1.31772 84.2334 1.31772 83.6913C1.32409 83.5956 1.33685 83.5 1.34323 83.4043C1.34323 82.9132 1.34323 82.4222 1.34323 81.9311C1.33047 81.8354 1.32409 81.7398 1.31134 81.6441C1.31134 81.389 1.31134 81.1403 1.34323 80.9043C1.3496 79.7883 1.35598 78.6786 1.35598 77.5626C1.36236 76.8802 1.33685 76.2042 1.32409 75.5281C1.41976 74.2144 1.45164 72.9006 1.35598 71.5805C1.3496 71.4083 1.37511 71.3318 1.44527 71.3509C1.43889 71.1086 1.44527 70.8599 1.43889 70.6175C1.45164 63.4429 1.4644 56.2682 1.48353 49.1C1.48353 48.424 1.38787 47.7288 1.58557 47.0783C1.68123 45.3947 1.70674 43.7047 1.62383 42.0146C1.63021 41.8935 1.6621 41.8233 1.71312 41.7787C1.71312 41.7149 1.71312 41.6511 1.71312 41.5873C1.71312 41.4024 1.71312 45.3182 1.71312 45.1268C1.7195 40.5988 1.7195 36.0772 1.74501 31.5556C1.74501 30.988 1.56006 30.312 1.92995 29.8465C2.26158 29.9931 2.58683 30.2546 2.94397 30.159C3.14167 29.6743 3.4159 29.6041 3.72202 29.7317C4.13017 30.0505 4.55108 30.2737 4.97837 30.5097C5.0549 30.4332 5.13781 30.4204 5.22709 30.4778C5.48857 30.6245 5.7628 30.548 6.03065 30.6436C7.66966 31.1092 9.28315 31.8617 10.9796 31.7724C11.6492 31.7342 12.3061 32.3337 12.9821 32.576C15.9285 33.6155 18.9067 34.2979 21.8786 35.0568C22.2039 35.1397 22.5419 35.0951 22.8671 35.1461C22.9118 35.2163 22.9564 35.2673 23.0011 35.3311C23.1605 35.1589 23.3709 35.127 23.6069 35.1716C24.9844 35.4395 26.362 35.7265 27.7459 35.905C28.1604 35.9624 28.5367 36.2239 28.6132 37.0657C28.6196 37.1104 28.6068 37.155 28.6068 37.1997C28.6961 37.1933 28.7918 37.1997 28.8811 37.2124C28.964 37.2634 29.0405 37.3145 29.1234 37.3655C29.5443 37.3527 29.9652 37.3463 30.3861 37.3336C30.3925 37.3145 30.4053 37.3081 30.418 37.2953C30.5137 37.2507 30.6157 37.2379 30.7178 37.2507C30.7433 37.2762 30.7752 37.2953 30.8007 37.3208C30.8453 37.3208 30.89 37.3208 30.9346 37.3208C31.0048 37.34 31.0813 37.3591 31.1514 37.3782C31.5213 37.2315 31.8912 37.0912 32.2611 36.9446C32.9881 36.6066 33.7534 37.0466 34.4805 36.6512V36.6767C35.2075 36.8999 35.9345 37.1231 36.6616 37.3463C37.2164 37.8502 37.7904 38.2201 38.3835 38.4815C39.3018 38.405 40.2138 38.5899 41.1194 39.0427C45.8387 39.6805 50.558 39.5147 55.2837 39.2149C55.4432 39.4573 55.609 39.6295 55.7812 39.757C56.0171 39.7124 56.2595 39.7379 56.4891 39.6231C57.6561 39.5657 58.8232 39.6358 59.9775 39.9547C60.239 40.0312 60.4622 40.1652 60.6854 40.3756C61.0681 40.7136 61.9928 39.4445 62.3754 39.7825C62.4456 39.7506 62.5157 39.7251 62.5859 39.6869C62.9749 39.4637 63.3703 39.5912 63.7402 39.8909C66.3358 40.9624 68.4276 39.2149 71.0807 39.7124C71.4314 39.7825 71.8715 39.6932 72.05 40.2863C72.0755 40.2863 72.0947 40.2863 72.1202 40.2863C72.2733 40.3119 72.4199 40.382 72.5666 40.4777C72.6623 40.5287 72.7516 40.6116 72.8408 40.7073C72.8982 40.9177 72.9684 41.0772 73.0449 41.2047C73.3574 41.2493 73.6635 41.3769 73.9569 41.5937C75.6342 42.8437 77.388 43.4623 79.2183 43.5325C79.5117 43.5452 79.8114 43.5133 80.0601 43.8386C81.5971 43.7621 83.1277 44.1192 84.6646 43.8003C85.5383 43.6218 86.4121 43.3284 87.2858 43.3284C88.2488 43.322 89.1863 43.2263 90.1174 42.8565C90.4362 42.7353 90.7934 42.6524 91.0995 42.7863C92.1326 43.2519 93.051 42.7863 93.9438 41.9827C94.0204 41.8552 94.0969 41.734 94.1734 41.6065C94.3839 41.581 94.5943 41.5618 94.8048 41.5363C94.8941 41.3386 94.9834 41.1345 95.0726 40.9368C95.3277 40.4203 95.7295 40.8794 96.0101 40.5414C96.0739 40.567 96.1249 40.5478 96.1696 40.4777C96.2844 40.2991 96.4183 40.3119 96.5522 40.3246C96.5331 40.2098 96.5841 40.1652 96.6989 40.1843C96.8137 40.1907 96.9221 40.1971 97.0369 40.1971C97.1134 40.3055 97.1963 40.3565 97.2729 40.3756C97.579 40.2098 97.8596 39.8463 98.1785 39.757C98.88 39.1703 99.6963 39.4764 100.398 38.8897C102.011 38.2073 103.631 40.2353 105.257 39.6422C105.366 39.706 105.468 39.7698 105.57 39.8399C105.844 39.7124 106.15 39.7889 106.437 39.7379C107.47 39.5657 108.484 39.2277 109.409 38.354C109.486 38.1754 109.575 38.0287 109.715 37.9968C109.766 38.0287 109.811 38.0096 109.843 37.9331C110.155 37.7035 110.461 37.6971 110.774 37.8374C110.87 37.8502 110.965 37.8757 111.061 37.9012C111.099 37.8948 111.131 37.8884 111.169 37.8884C111.316 37.7417 111.456 37.7481 111.603 37.8884C111.609 37.8884 111.616 37.8884 111.616 37.8884C111.648 37.8693 111.673 37.8629 111.705 37.8374C111.775 37.7736 111.845 37.7162 111.915 37.6525C111.973 37.5823 112.037 37.5185 112.1 37.4548L112.196 37.3782L112.292 37.3145C112.356 37.2698 112.419 37.2379 112.489 37.2252C112.553 37.2124 112.623 37.2124 112.687 37.2252L112.783 37.2571C113.038 37.3527 113.287 37.4548 113.542 37.5504C114.32 37.002 115.149 37.053 115.965 37.0721C116.756 37.0912 117.534 37.1614 118.338 36.9254C119.243 36.6576 120.206 36.6703 121.125 37.0976C121.577 37.3081 122.062 37.5249 122.515 37.3208C123.561 36.8553 124.664 37.1231 125.697 36.5237C126.022 36.8872 126.386 36.7405 126.737 36.7532C126.877 36.7596 127.017 36.7532 127.151 36.7724C127.343 36.7277 127.54 36.6895 127.738 36.6703C130.365 37.3017 132.961 36.5236 135.569 36.141C135.691 36.1346 135.812 36.1474 135.933 36.1793C139.587 37.2188 143.273 35.4586 146.972 35.701C149.402 35.8604 151.832 35.9688 154.262 36.2367C154.523 36.0645 154.804 36.0964 155.072 35.9816C155.174 35.9369 155.282 35.9242 155.384 35.9305C155.639 36.0517 155.901 36.0772 156.162 36.0964C156.271 36.3132 156.385 36.479 156.5 36.6002C156.921 36.5874 157.329 36.6703 157.725 36.8872C157.98 36.8361 158.241 36.7596 158.496 36.7405C159.938 37.6078 161.468 37.1678 162.954 37.6269C163.566 37.391 164.109 37.5632 164.714 37.4548C165.677 37.0912 166.602 37.6716 167.546 37.7673C167.642 37.7991 167.744 37.8374 167.839 37.8629C168.031 37.9713 168.222 38.0287 168.413 38.1308C169.026 38.4369 169.657 38.6282 170.295 38.7813C170.397 38.8004 170.499 38.8259 170.601 38.8769C170.805 39.0109 171.009 39.1384 171.219 39.266C172.284 39.757 173.349 40.146 174.466 39.757C174.753 39.655 175.052 39.7889 175.307 40.0631C175.409 40.2353 175.511 40.4203 175.613 40.567C175.92 40.3884 176.232 40.2417 176.545 40.1397C176.793 39.7698 177.17 39.6422 177.457 39.7506C177.642 39.8208 177.826 39.8527 178.011 39.8718C178.215 39.8527 178.426 39.8527 178.636 39.8527C178.687 39.8527 178.738 39.8463 178.789 39.8463C179.287 39.7762 179.784 39.6358 180.282 39.5912C180.288 39.5657 180.288 39.5402 180.288 39.5147C180.365 39.2022 180.499 38.9853 180.69 38.8833C181.506 38.7111 182.316 39.3106 183.126 39.5274C184.485 39.8909 185.837 39.4828 187.189 39.5402C187.367 39.5593 187.546 39.6295 187.66 39.8782C187.699 39.9675 187.737 40.044 187.775 40.1142C188.05 39.9994 188.324 39.9037 188.604 39.8909C188.649 39.7251 188.681 39.5402 188.719 39.3489C189.669 38.6984 190.652 39.3807 191.608 39.1639C191.901 39.1767 192.188 39.1894 192.482 39.2022C194.217 38.9662 195.958 39.1384 197.679 38.6218C197.788 38.5899 197.884 38.5198 197.992 38.4879C198.228 38.4114 198.47 38.405 198.687 38.1945C198.776 38.1308 198.866 38.0861 198.955 38.067C199.185 38.0479 199.414 38.0542 199.644 38.0606C199.733 38.0734 199.829 38.0989 199.918 38.1371C200.058 38.2137 200.199 38.2392 200.345 38.2711C200.352 38.2774 200.364 38.2774 200.371 38.2774C200.607 38.1627 200.894 38.3795 201.098 38.067H201.091C201.359 37.6461 201.729 38.0542 202.003 37.7226V37.7354C202.042 37.7609 202.08 37.8119 202.105 37.7991C203.228 37.2889 204.363 37.8565 205.492 37.678C206.366 36.8425 207.01 36.3515 207.89 35.9943C208.4 35.7839 208.821 35.1334 209.306 35.363C210.402 35.8732 211.48 35.567 212.571 35.4714C212.635 35.3885 212.705 35.363 212.781 35.3948C212.928 35.2737 213.081 35.1589 213.228 35.0377C213.974 34.4956 214.758 34.5722 215.543 34.6359C216.684 34.7316 217.845 34.4637 218.967 35.0249C219.675 34.4382 220.345 34.5785 220.97 35.3693C222.634 35.4395 224.293 35.6627 225.97 35.3183C226.997 35.1079 228.062 35.1844 229.114 35.1015C229.375 35.0823 229.618 35.1589 229.86 35.3183C230.912 36.0071 231.984 36.0517 233.074 35.5925C233.361 35.4714 233.648 35.3693 233.942 35.4841C234.452 35.2737 234.962 35.1397 235.485 35.1334C235.951 34.6168 236.461 34.6742 236.965 34.891C237.373 35.0632 237.755 35.0823 238.132 34.7316C238.712 34.553 239.286 34.2852 239.885 34.4127C240.07 34.7125 240.453 34.3489 240.542 34.9739L240.53 34.942C240.453 35.28 240.389 35.6181 240.53 35.9497C240.542 36.1793 240.561 36.4152 240.581 36.6448C240.625 36.7979 240.619 36.9382 240.574 37.0721C240.695 37.2634 240.638 37.6078 240.753 37.8055C240.727 37.9267 240.74 38.0351 240.778 38.1371C240.887 38.3859 240.887 38.6346 240.766 38.8769C240.651 39.2532 240.67 39.6295 240.766 40.0057C241.008 40.7455 240.721 41.6065 240.95 42.3526V42.5057C240.797 43.3603 240.817 44.2149 240.95 45.0694C240.855 45.3756 240.874 45.6817 240.963 45.9878C241.097 46.2301 241.097 46.4789 240.976 46.7339C240.976 46.8615 240.976 46.989 240.976 47.1166C241.167 47.952 241.046 48.8066 241.046 49.6548C241.116 49.5974 241.161 49.6484 241.161 49.8334C241.155 50.114 241.148 50.3946 241.148 50.6752C241.135 50.8538 241.097 51.0196 241.053 51.179C241.091 51.1982 241.129 51.2173 241.161 51.2492C241.135 51.3704 241.135 51.4915 241.167 51.6063C241.104 51.753 241.033 51.9061 240.97 52.0527C241.053 55.4009 240.982 58.7491 240.97 62.0972C240.957 66.4084 240.887 70.7196 241.04 75.0371C241.142 77.9452 241.104 80.8661 241.129 83.7806C241.505 85.3686 241.422 87.0586 241.397 88.6976C241.365 90.8021 241.327 92.894 241.499 94.9858C241.55 95.6618 241.652 96.3378 241.384 96.9564M241.34 97.2816C241.212 97.1158 241.231 97.0138 241.384 96.9564M241.34 97.2816C241.288 97.1477 241.308 97.0393 241.384 96.9564M241.34 97.2816C241.384 97.186 241.403 97.0776 241.384 96.9564M1.10088 102.077C1.11364 101.88 1.12002 101.555 1.12639 101.153C1.16466 101.459 1.15828 101.765 1.10088 102.077ZM1.13915 99.6285C1.13915 99.4372 1.13915 99.2523 1.13915 99.0546C1.1519 99.0928 1.16466 99.1311 1.17741 99.1694C1.19017 99.1694 1.2093 99.1821 1.22205 99.1885C1.17104 99.3224 1.1519 99.4755 1.13277 99.6285H1.13915ZM94.8048 41.5618C94.7729 41.6511 94.7283 41.7021 94.6836 41.7468C94.7219 41.6958 94.7665 41.6384 94.7984 41.5682L94.8048 41.5618Z" stroke="black" stroke-width="2" stroke-miterlimit="10"/>
<path d="M241.429 100.726C241.441 100.885 241.448 101.045 241.454 101.204C241.461 101.217 241.467 101.229 241.48 101.242C241.544 101.414 241.582 101.593 241.607 101.778C241.563 100.694 241.499 99.6989 241.429 100.732V100.726Z" stroke="black" stroke-width="2" stroke-miterlimit="10"/>
<path d="M241.645 102.837C241.645 102.479 241.658 102.116 241.607 101.771C241.62 102.141 241.633 102.524 241.645 102.837Z" stroke="black" stroke-width="2" stroke-miterlimit="10"/>
<path d="M241.646 102.836C241.646 102.932 241.646 103.021 241.646 103.117C241.671 103.901 241.665 103.532 241.646 102.836Z" stroke="black" stroke-width="2" stroke-miterlimit="10"/>
<path d="M227.449 75.2347C227.398 75.0561 227.392 74.8521 227.392 74.6288C227.392 74.1123 227.386 73.4618 226.576 73.162C226.359 73.0791 226.142 72.9898 225.932 72.9006C225.153 72.5753 224.35 72.2309 223.368 72.3649C222.794 72.4414 222.481 72.5052 222.156 73.0409C221.474 74.1697 220.753 75.2921 220.051 76.3826C219.656 77.0013 219.261 77.6199 218.865 78.2385C218.61 78.6466 218.361 79.0676 218.113 79.4885C217.934 79.7946 217.749 80.1071 217.564 80.4068C217.501 80.5152 217.386 80.6109 217.284 80.6938C217.233 80.7384 217.169 80.7767 217.105 80.8214C216.978 80.9043 216.824 80.9999 216.735 81.1466C216.499 81.5356 216.276 81.9438 216.066 82.3456C215.626 83.1619 215.173 84.0101 214.56 84.667C214.242 85.0113 213.987 85.3876 213.751 85.7511C213.521 86.0955 213.304 86.4271 213.036 86.7205C212.762 87.0202 212.456 87.3008 212.163 87.5751C211.844 87.8684 211.518 88.1746 211.219 88.5062C209.127 90.8276 206.621 92.677 203.547 94.1566C203.107 94.3671 203.03 94.316 203.024 94.316C203.024 94.316 202.947 94.2586 203.011 93.774L203.03 93.6464C203.158 92.6643 203.285 91.6439 203.604 90.7192C204.197 89.0164 204.911 87.32 205.607 85.681L205.811 85.1899C205.887 85.005 205.938 84.7945 205.983 84.5968C206.123 83.9782 206.244 83.6019 206.876 83.5254C207.035 83.5063 207.092 83.3532 207.137 83.2257L207.156 83.181C207.316 82.7856 207.469 82.3838 207.622 81.9884C207.953 81.1275 208.298 80.2346 208.687 79.3864C209.261 78.1492 209.089 77.0204 208.132 75.8406C208.087 75.7895 208.024 75.7577 207.953 75.7704C207.883 75.7768 207.826 75.8214 207.8 75.8852L207.679 76.1467L207.603 75.4579C207.596 75.375 207.526 75.3049 207.443 75.2857C207.341 75.2666 207.252 75.2475 207.156 75.2283C206.965 75.1901 206.786 75.1454 206.595 75.1327C205.74 75.0561 204.809 75.3559 204.108 75.9426C203.528 76.4273 203.183 77.0395 203.132 77.6709C203.119 77.8367 203.158 78.0025 203.196 78.1428C203.285 78.5 203.33 78.6785 202.749 78.8699C202.278 79.0229 202.035 79.6415 201.78 80.292C201.684 80.528 201.595 80.7703 201.487 80.9744L201.366 80.7831C201.334 80.7384 201.289 80.7066 201.238 80.6938C201.187 80.6874 201.13 80.6938 201.085 80.7321C200.804 80.9361 200.575 81.1976 200.352 81.4527C199.873 81.9948 199.465 82.4667 198.681 82.3264C198.528 82.3009 198.451 82.4285 198.413 82.4923C198.406 82.505 198.394 82.5241 198.387 82.5305L198.253 82.7027C197.928 83.13 197.641 83.4999 197.048 83.7231C196.455 83.9399 195.938 84.3417 195.441 84.7244C195.103 84.9858 194.752 85.2601 194.389 85.4641C193.764 85.8149 193.273 86.3123 192.794 86.797C192.208 87.3901 191.646 87.9513 190.862 88.2766C190.282 88.5126 189.822 88.9972 189.376 89.4628C189.108 89.737 188.834 90.024 188.54 90.2536C187.916 90.7383 187.233 91.1847 186.576 91.6184C186.302 91.8033 186.028 91.9819 185.754 92.1668L185.69 92.2115C185.69 92.2115 185.626 92.2561 185.601 92.2753C184.88 91.9819 184.574 92.4666 184.344 92.8173C184.287 92.9066 184.229 92.9959 184.159 93.0788C184.108 93.1362 184.057 93.2127 184.006 93.2829C183.942 93.3786 183.815 93.5508 183.764 93.5699C182.75 93.6655 182.456 94.3734 182.195 95.0048C182.144 95.1196 182.099 95.2408 182.042 95.3556C181.334 94.9283 180.786 95.1579 180.441 95.4512C180.18 95.6681 179.937 95.904 179.701 96.1336C179.485 96.3441 179.255 96.5673 179.019 96.765C176.181 99.1629 172.654 100.642 167.922 101.414C167.795 101.433 167.635 101.382 167.469 101.331C167.367 101.299 167.272 101.267 167.17 101.248C167.036 101.223 166.902 101.172 166.761 101.127C166.309 100.974 165.767 100.789 165.256 101.248L164.784 99.8581C164.287 98.3849 163.809 96.9946 163.311 95.5915L163.299 95.5533C163.075 94.9219 162.91 94.4627 163.407 93.9589C163.643 93.7166 163.783 93.2446 163.719 92.8811C163.605 92.186 163.821 91.5482 164.051 90.8658C164.262 90.2408 164.485 89.5903 164.434 88.8825C164.427 88.774 164.753 88.5126 164.925 88.3723C165.001 88.3085 165.078 88.2511 165.154 88.1873L165.658 88.8059C165.696 88.8569 165.76 88.8825 165.83 88.8761C165.894 88.8761 165.952 88.8314 165.983 88.774C166.06 88.6401 166.13 88.5062 166.194 88.385C166.328 88.1299 166.443 87.9131 166.589 87.7281C166.768 87.5049 166.985 87.3455 167.1 87.3455C167.559 87.3519 168.011 87.422 168.496 87.4922C168.687 87.5241 168.885 87.5496 169.077 87.5751C169.185 87.5878 169.281 87.5177 169.3 87.4093L169.389 86.8098L169.599 86.982C169.67 87.0394 169.778 87.0394 169.848 86.982L172.865 84.4374C173.043 84.5522 173.171 84.6159 173.279 84.482C173.93 83.6785 174.561 82.8749 175.116 82.1606L175.199 82.0522C175.314 82.0458 175.422 82.0522 175.524 82.0522C175.817 82.0522 176.073 82.0522 176.245 81.8991C176.379 81.7716 176.519 81.6504 176.659 81.5229C177.303 80.9489 177.973 80.3494 178.4 79.6096C178.713 79.0676 179.121 78.8188 179.593 78.5255C179.682 78.4681 179.771 78.4107 179.867 78.3533C180.288 78.0791 180.652 77.7219 181.002 77.3712C181.098 77.2755 181.2 77.1735 181.296 77.0778C181.532 76.8482 181.755 76.6122 182.01 76.338C182.131 76.2105 182.252 76.0765 182.386 75.9362C182.431 75.8916 182.45 75.8342 182.437 75.7704L182.405 75.56C182.405 75.56 182.469 75.5982 182.501 75.5982C182.578 75.611 182.654 75.5727 182.692 75.5026C182.794 75.3304 182.96 75.1901 183.145 75.037C183.49 74.7436 183.904 74.3993 183.764 73.7679C183.866 73.7998 183.936 73.7998 183.987 73.7296L185.211 72.8559C185.211 72.8559 185.262 72.8049 185.275 72.773C185.537 72.1799 185.868 71.6761 186.257 71.2616C186.557 70.9491 186.901 70.6685 187.265 70.3815C187.431 70.2475 187.59 70.12 187.756 69.9797C187.826 69.9223 187.845 69.8202 187.807 69.7437L187.68 69.4886L187.941 69.731C187.986 69.7692 188.049 69.7884 188.107 69.782C188.164 69.7756 188.222 69.7373 188.247 69.6863C188.336 69.5269 188.419 69.3738 188.496 69.2271C188.662 68.921 188.815 68.634 188.993 68.3726C189.44 67.7029 189.899 67.0716 190.358 66.4848C190.403 66.4274 190.498 66.3764 190.594 66.3254C190.734 66.2489 190.894 66.166 190.983 66.0129C191.64 64.8713 192.329 63.6405 192.966 62.365C193.126 62.0461 193.234 61.6954 193.336 61.3637C193.432 61.064 193.515 60.777 193.642 60.5092C193.738 60.3051 193.904 60.1265 194.083 59.9416C194.159 59.865 194.229 59.7885 194.299 59.7056C194.561 59.6163 194.835 59.4888 194.956 59.2528C195.065 59.0424 195.128 58.8128 195.199 58.5896C195.25 58.411 195.301 58.2388 195.371 58.0857C196.716 55.0309 197.469 52.1037 197.667 49.1382C197.679 48.9341 197.75 48.73 197.82 48.5068C197.922 48.1943 198.024 47.8754 197.973 47.5566C197.922 47.2186 197.75 46.9124 197.577 46.6191C197.45 46.3959 197.329 46.1918 197.265 45.975C196.799 44.4699 195.645 43.5451 194.497 42.7288C193.764 42.2059 193.005 42.0911 192.367 42.41L192.322 42.4291C192.322 42.4291 192.284 42.4482 192.265 42.461C191.959 42.2314 191.646 42.1357 191.34 42.1612C190.753 42.2186 190.333 42.7352 190.014 43.1242C189.72 43.4878 189.287 43.6918 188.827 43.915C188.126 44.253 187.335 44.6357 187.144 45.6561C187.137 45.6561 187.131 45.6625 187.125 45.6688L185.543 47.0783C185.231 46.9826 185.007 46.9953 184.842 47.1101C184.657 47.2377 184.606 47.4481 184.586 47.6777C184.561 47.6395 184.529 47.614 184.484 47.6012C184.402 47.5757 184.319 47.6012 184.268 47.665C184.178 47.7798 184.089 47.8754 184.012 47.9583C183.853 48.1305 183.726 48.2708 183.706 48.4558C183.655 48.9979 183.4 49.3741 182.858 49.6994C182.456 49.9417 181.889 50.3244 181.538 50.8346C180.658 52.1228 179.803 53.4557 178.981 54.7439C178.706 55.1712 178.439 55.5922 178.164 56.0131L177.82 55.7325C177.775 55.6942 177.718 55.6814 177.661 55.6942C177.603 55.7069 177.552 55.7388 177.527 55.7835L176.851 56.9059C176.258 57.8944 175.69 58.8319 175.11 59.7758C174.969 59.999 174.791 60.2031 174.599 60.4135C174.516 60.5092 174.427 60.5985 174.351 60.7005L173.362 61.8676C173.362 61.8676 173.324 61.9313 173.318 61.9632H173.043C172.967 61.9632 172.903 62.0015 172.871 62.0716L171.589 64.5333C171.519 64.5907 171.436 64.6481 171.347 64.7055C171.066 64.8969 170.747 65.1073 170.594 65.4326C170.116 66.4466 169.421 67.2501 168.687 68.1047C168.483 68.3343 168.286 68.5703 168.088 68.8062C167.508 69.5014 167.068 70.3241 166.64 71.1149C166.43 71.5039 166.213 71.8993 165.99 72.2819C165.926 72.384 165.818 72.4796 165.696 72.5753C165.639 72.62 165.588 72.6646 165.537 72.7092C165.486 72.7539 165.422 72.7985 165.365 72.8432C165.205 72.9516 165.033 73.0791 164.969 73.2705C164.823 73.7488 164.708 74.2462 164.593 74.7245C164.549 74.9222 164.498 75.1199 164.453 75.3176L164.344 74.9541C164.319 74.8776 164.255 74.8202 164.172 74.8138C164.096 74.8074 164.013 74.8521 163.981 74.9222C163.898 75.088 163.821 75.2347 163.758 75.3686C163.611 75.6492 163.503 75.8724 163.407 76.1084C163.35 76.2551 163.311 76.4337 163.279 76.6059C163.248 76.7525 163.203 77.0013 163.171 77.0331C162.469 77.2627 162.304 77.7984 162.163 78.2704C162.106 78.4681 162.049 78.6594 161.953 78.8188C161.755 79.1568 161.577 79.5204 161.404 79.8711C161.028 80.6555 160.665 81.3953 160.027 81.9757C159.887 81.7333 159.746 81.593 159.561 81.5803C159.313 81.5739 159.14 81.7907 158.994 82.0012C158.688 82.4412 158.394 82.894 158.095 83.3404L157.89 83.6466L157.559 83.0917C157.521 83.028 157.444 82.9897 157.368 82.9961C157.291 83.0024 157.227 83.0535 157.202 83.13L156.8 84.3289C156.551 84.2014 156.347 84.1631 156.175 84.2205C155.901 84.3098 155.805 84.5777 155.716 84.8136C155.665 84.9412 155.62 85.0751 155.55 85.1389C154.989 85.2409 154.53 85.3557 154.466 85.6618C154.357 86.1912 153.994 86.4718 153.605 86.7715C153.382 86.9437 153.158 87.1159 152.967 87.3391L152.533 86.9692C152.476 86.9246 152.399 86.9118 152.336 86.9373C152.272 86.9628 152.221 87.0266 152.208 87.0968L152.049 88.334C151.111 88.0406 150.703 88.6529 150.371 89.1439C150.238 89.348 150.104 89.5457 149.944 89.6796L149.498 89.3353C149.44 89.2906 149.357 89.2842 149.287 89.3161C149.217 89.348 149.179 89.4182 149.179 89.4947V90.2281C149.096 90.2727 149.007 90.3174 148.924 90.3556C148.65 90.4896 148.394 90.6107 148.209 90.8276C148.037 91.0189 147.935 91.2612 147.84 91.5036L147.757 91.2804C147.738 91.2294 147.699 91.1847 147.648 91.1656C147.597 91.1464 147.54 91.1464 147.489 91.1656C146.481 91.6248 144.804 93.0788 144.498 93.7102C144.383 93.7421 144.268 93.774 144.16 93.8058C143.879 93.8824 143.637 93.9525 143.395 93.9908C143.05 94.0418 142.687 94.1375 142.329 94.2268C141.52 94.4308 140.69 94.6413 140.136 94.3798C139.051 93.8696 138.937 92.052 138.937 91.2931V91.2485C138.937 91.2102 138.937 91.1783 138.937 91.1401C139.262 88.4488 140.104 85.9871 141.437 83.8188C141.615 83.5254 141.756 83.1938 141.864 82.8175C141.94 82.5433 141.998 82.269 142.055 81.9884C142.138 81.5994 142.221 81.204 142.355 80.8341C142.489 80.4578 142.674 80.0816 142.846 79.7181C143.012 79.3801 143.178 79.0293 143.312 78.6722C143.835 77.2882 143.892 76.0957 143.484 75.1263C143.465 75.0816 143.433 75.0498 143.388 75.0243C143.21 74.935 143.037 74.8584 142.878 74.7947C142.578 74.6671 142.342 74.5715 142.196 74.412C141.679 73.8699 141.226 74.0294 140.805 74.2462C140.391 74.4567 139.957 74.648 139.46 74.8648C139.23 74.9669 138.981 75.0689 138.713 75.1901C138.656 75.2156 138.618 75.2666 138.599 75.324C138.58 75.4133 138.56 75.5472 138.548 75.7003C138.522 75.9554 138.471 76.4783 138.324 76.5548C137.782 76.8291 137.642 77.2436 137.521 77.6135C137.47 77.7602 137.425 77.9005 137.355 78.028C137.24 78.2321 137.055 78.4171 136.877 78.5892L136.794 78.6722C136.692 78.7742 136.571 78.8699 136.456 78.9655C136.226 79.1505 135.997 79.3354 135.837 79.5905C135.518 80.1135 135.212 80.6555 134.919 81.1785C134.453 82.0076 133.969 82.8621 133.42 83.6466C133.356 83.7359 133.299 83.8443 133.235 83.9654C132.961 84.4884 132.757 84.7881 132.202 84.5266C132.119 84.4884 132.017 84.5139 131.96 84.5841C131.909 84.6542 131.858 84.7244 131.813 84.7945C131.717 84.9412 131.622 85.0751 131.513 85.1708C131.373 85.2856 131.214 85.3812 131.048 85.4897C130.799 85.6427 130.55 85.8021 130.346 86.019C129.696 86.7333 129.064 87.4922 128.452 88.2256C128.229 88.4934 128.006 88.7613 127.783 89.0291C126.692 90.3174 125.608 91.6056 124.524 92.9002L124.173 93.3148C124.141 93.3531 124.115 93.3913 124.084 93.436C124.052 93.4806 124.02 93.5316 123.994 93.5508C123.535 93.8632 123.076 94.163 122.579 94.4946L122.189 94.7497C122.126 94.6859 122.036 94.603 121.941 94.5137C121.896 94.4755 121.845 94.4563 121.781 94.4627C121.724 94.4627 121.673 94.501 121.641 94.5456L121.118 95.3109L120.123 95.0877C119.823 92.6069 120.161 90.1707 121.124 87.8493C121.698 86.4718 122.343 85.0879 122.968 83.755C123.561 82.4859 124.179 81.1657 124.734 79.852C125.238 78.6466 125.646 77.3775 126.035 76.1467C126.214 75.5918 126.386 75.037 126.577 74.4822C126.596 74.4248 126.59 74.3546 126.552 74.3036C126.513 74.2526 126.456 74.2207 126.392 74.2207H126.144L125.946 74.0357C125.748 73.8508 125.544 73.6659 125.334 73.5C125.295 73.4682 125.263 73.4426 125.225 73.4108C125.04 73.2513 124.836 73.0728 124.594 73.0664C123.982 73.0472 123.357 73.0664 122.757 73.0728C122.457 73.0791 122.164 73.0855 121.864 73.0919C121.475 73.0919 121.201 73.1939 121.029 73.3916C120.857 73.5829 120.793 73.8636 120.831 74.2334V74.2781C120.888 74.7309 120.869 74.8903 120.487 74.935C120.264 74.9605 120.142 75.2283 120.034 75.4707L120.008 75.5281C119.371 76.8992 118.739 78.2768 118.102 79.6479L117.037 81.9629L116.711 81.4591C116.673 81.3953 116.603 81.3634 116.526 81.3698C116.45 81.3762 116.392 81.4272 116.36 81.4974L116.01 82.403C115.991 82.454 115.991 82.5114 116.01 82.556C116.035 82.607 116.074 82.6389 116.125 82.6581L116.59 82.8175L116.38 83.2193L115.869 82.6262C115.831 82.5815 115.78 82.556 115.723 82.556C115.665 82.556 115.614 82.5815 115.576 82.6198L115.397 82.8175C115.346 82.8749 115.334 82.9578 115.366 83.0343L115.506 83.3468L115.417 83.2639C115.359 83.2129 115.283 83.1938 115.213 83.2257C115.142 83.2512 115.091 83.3149 115.085 83.3851L114.804 85.6555H114.792C114.792 85.6555 114.785 85.63 114.779 85.6172C114.734 85.4705 114.69 85.3302 114.677 85.1963C114.658 84.8647 114.664 84.5267 114.664 84.195C114.664 84.0547 114.664 83.9144 114.664 83.7741C114.664 83.7231 114.645 83.6721 114.607 83.6338C114.568 83.5955 114.517 83.5764 114.466 83.5764H114.211C114.16 83.5764 114.109 83.6019 114.071 83.6338L112.279 85.445C112.222 85.5024 112.209 85.5789 112.234 85.6555L112.292 85.8085L112.037 85.4833C111.986 85.4131 111.89 85.3876 111.807 85.4195C111.724 85.4514 111.673 85.5343 111.679 85.6172C111.75 86.4335 111.335 86.5483 110.818 86.695C110.691 86.7333 110.57 86.7651 110.455 86.8098C110.391 86.8353 110.347 86.8927 110.334 86.9565L110.149 88.0087L109.664 87.76C109.613 87.7345 109.549 87.7345 109.498 87.76C109.447 87.7855 109.403 87.8302 109.39 87.8876C108.995 89.2268 107.917 89.8327 106.871 90.4194L106.692 90.5215C105.614 91.1273 104.505 91.7459 104.116 92.8747C104.001 92.913 103.899 92.9513 103.797 92.9768C103.548 93.0533 103.331 93.1235 103.172 93.2701C103.019 93.4168 102.898 93.6018 102.789 93.774C102.668 93.9717 102.547 94.1502 102.394 94.2586C101.763 94.6987 101.087 95.1005 100.436 95.4831C100.175 95.6362 99.9194 95.7892 99.6643 95.9487C99.6006 95.9869 99.5623 96.0635 99.5687 96.14L99.6643 96.9563L99.1988 96.4461C99.1605 96.4015 99.1095 96.3823 99.0521 96.3823C98.9947 96.3823 98.9437 96.4079 98.9054 96.4525L97.8085 97.7535C97.6235 97.8236 97.4322 97.8938 97.2281 97.9639C96.6861 98.1553 96.0802 98.3721 95.519 98.6846C95.1427 98.8951 94.8047 99.182 94.4795 99.4499C94.1478 99.7305 93.829 99.992 93.4782 100.19C92.9808 100.464 92.2729 100.713 91.7818 100.598C91.6861 100.528 91.5841 100.043 91.5267 99.756C91.4948 99.6093 91.4693 99.4627 91.431 99.3223H91.4438C91.5139 99.2905 91.5713 99.2267 91.5777 99.1502C91.5841 99.0736 91.5458 98.9971 91.4821 98.9588L91.0165 98.6846L91.0484 98.3275C91.0739 98.0213 91.0994 97.7535 91.1185 97.4856C91.1249 97.3645 91.1185 97.2178 91.1122 97.0775C91.1058 96.9308 91.0867 96.6821 91.1122 96.6374C91.7053 96.2357 91.5458 95.7765 91.4247 95.4385C91.3991 95.3683 91.3736 95.2982 91.3545 95.2216C91.2907 94.9857 91.2397 94.7497 91.1887 94.5137L91.4629 94.7688C91.5012 94.8071 91.5586 94.8262 91.616 94.8199C91.6734 94.8199 91.7244 94.788 91.7563 94.737C92.2856 94.0163 92.241 93.2765 92.1198 92.4347C92.5088 91.9755 92.6619 91.4079 92.8022 90.8595C92.9871 90.1579 93.1657 89.4947 93.8162 89.0483C94.2052 88.7868 94.4029 88.3021 94.6006 87.8302C94.6835 87.6325 94.7664 87.4284 94.8621 87.2498C94.894 87.1861 94.894 87.1095 94.8557 87.0457L94.6325 86.7014C94.7027 86.5866 94.7728 86.4845 94.843 86.3825C95.0343 86.0955 95.1937 85.8468 95.3022 85.5662C95.3851 85.3557 95.4169 85.1261 95.4488 84.9029C95.4871 84.6159 95.5317 84.3481 95.6593 84.1759C96.1185 83.5637 96.3034 83.0088 95.7294 82.3392C95.6976 82.269 95.7358 82.0267 95.7805 81.9821C96.3353 81.5803 96.144 81.1147 96.0228 80.8022C95.9909 80.7257 95.959 80.6428 95.9335 80.5663C95.9144 80.4961 95.8953 80.426 95.8825 80.3558C95.8251 80.1262 95.7677 79.8966 95.6465 79.6862C95.5445 79.514 95.3851 79.3928 95.2065 79.2589C95.1427 79.2142 95.0789 79.1632 95.0088 79.0994C95.0088 79.0676 95.0088 79.0357 95.0024 79.0038C94.9641 78.5637 94.9004 77.8176 93.931 77.8558C93.9246 77.8558 93.9055 77.8367 93.9055 77.8558C93.6631 76.8801 92.9425 76.4337 92.241 76.0064C91.9285 75.8151 91.6096 75.6237 91.3417 75.3814C91.2844 75.3304 91.2015 75.3176 91.1313 75.3495C91.0611 75.3814 91.0165 75.4515 91.0165 75.5281V75.8916L89.1033 74.4056C89.0586 74.3674 88.9949 74.3546 88.9375 74.3674C88.8801 74.3801 88.829 74.4184 88.8035 74.4758L88.6122 74.8776C88.6122 74.8776 88.5867 74.8393 88.5676 74.8202C88.389 74.5842 88.2232 74.361 87.9745 74.259C87.5408 74.0804 87.0816 73.9783 86.6352 73.8763C86.5013 73.8444 86.3673 73.8125 86.2334 73.7806L85.8954 72.6136L86.3291 72.8432C86.3801 72.8687 86.4311 72.875 86.4821 72.8559C86.5332 72.8368 86.5778 72.7985 86.5969 72.7539L87.1071 71.6251C87.1326 71.5677 87.1326 71.5039 87.1007 71.4465L86.8265 70.9427L87.2602 71.1149C87.324 71.1404 87.4005 71.1276 87.4579 71.083C87.5153 71.0383 87.5408 70.9682 87.528 70.898L87.2857 69.5652L87.5536 69.5269C87.6492 69.5141 87.7257 69.4312 87.7257 69.3292C87.7257 69.1889 87.7257 69.0613 87.7257 68.9274C87.7257 68.6532 87.7257 68.3917 87.7321 68.1366C87.7321 68.0346 87.7321 67.9261 87.7321 67.8114C87.7321 67.6264 87.7257 67.2756 87.7959 67.2119C88.6377 66.5359 88.3762 65.8088 88.1913 65.4453C89.1096 64.4504 88.9821 63.3535 88.8609 62.2949C88.8099 61.8421 88.7589 61.4084 88.7908 60.9875L89.5816 61.1852C89.6581 61.2043 89.741 61.1724 89.792 61.1086C89.8367 61.0449 89.8367 60.9556 89.792 60.8854C89.6772 60.7132 89.5816 60.5602 89.4923 60.4199C89.3137 60.1329 89.1734 59.9033 88.9821 59.7056C88.6951 59.4122 88.3699 59.1508 88.051 58.9084L87.7704 58.6852C87.6365 58.5768 87.4643 58.4365 87.2666 58.4046C86.3291 58.226 85.3661 58.0539 84.3967 57.9008C84.1161 57.8561 83.7717 57.7988 83.574 57.9773L83.3444 58.1814C82.6557 58.8 81.9414 59.4378 81.3419 60.1648C81.1251 60.4326 80.9848 60.7706 80.8572 61.0959C80.6978 61.4849 80.5511 61.8548 80.296 62.0142C79.5371 62.4862 78.7654 63.0602 78.2616 64.0933C78.1659 64.2974 77.9746 64.4696 77.7769 64.6481C77.6238 64.7884 77.4644 64.9351 77.3369 65.1009C77.1519 65.3497 77.0052 65.6175 76.833 65.9364C76.7501 66.0831 76.6672 66.2489 76.5652 66.4211C76.5397 66.4657 76.5333 66.5167 76.5461 66.5614L76.6226 66.8994L75.6341 67.7029C75.5831 67.7476 75.5512 67.8114 75.5639 67.8815C75.5767 67.9517 75.615 68.0091 75.6787 68.0346L75.7489 68.0665L75.6915 69.0422L75.1366 69.1315C75.0729 69.1442 75.0218 69.1825 74.9963 69.2335C74.9645 69.2909 74.9645 69.3547 74.9963 69.4121L75.3025 70.0435C75.0219 70.1327 74.8242 70.2667 74.6966 70.4707C74.4606 70.8343 74.4734 71.3891 74.7221 72.3202C74.7412 72.3967 74.8114 72.4541 74.8879 72.4669L75.4491 72.537C75.328 72.7029 75.2642 72.8623 75.2642 73.0217C75.2642 73.3342 75.4874 73.5511 75.6915 73.736C75.8956 73.9273 76.0167 74.0549 75.9976 74.2079C75.9912 74.2717 76.0167 74.3419 76.0678 74.3801C76.1188 74.4248 76.1889 74.4375 76.2527 74.4184L76.6226 74.3036C76.7501 74.412 76.8713 74.5077 76.9861 74.597C77.2731 74.8265 77.5218 75.0243 77.7195 75.2538C77.9045 75.4707 78.0766 75.7959 78.0511 76.0128C77.9874 76.5293 77.8534 77.0587 77.7195 77.5689C77.6685 77.7793 77.6111 77.9898 77.5601 78.2002C77.5473 78.2385 77.5601 78.2831 77.5728 78.3214L77.1583 78.7806L76.8904 78.6785C76.8394 78.6594 76.7884 78.6594 76.7374 78.6785C76.6864 78.6977 76.6545 78.7423 76.6353 78.7933L75.4428 82.0394C74.5946 82.5815 73.8038 83.2703 74.1418 84.2907C73.9759 84.4246 73.8038 84.5522 73.6316 84.6733C73.1469 85.0177 72.7706 85.2919 72.7897 85.6363C72.8216 86.1784 72.5219 86.4335 72.1775 86.7269C72.0244 86.8544 71.8714 86.9883 71.7502 87.1478C71.527 87.4411 71.2592 87.709 70.9977 87.9705C70.4046 88.57 69.7923 89.1886 69.5883 90.1388C69.5309 90.4003 69.3969 90.7255 69.212 90.8467C68.587 91.2612 68.3064 91.8543 68.0322 92.4219C67.8919 92.7153 67.7579 92.9959 67.5857 93.2383C67.2414 93.4423 66.7567 93.7421 66.7184 94.1375C66.6801 94.552 66.5016 94.737 66.1189 94.9857C65.8192 95.1834 65.5641 95.4385 65.3217 95.6872L65.1814 95.8339C64.9965 96.0188 64.8052 96.1974 64.6138 96.376C64.0973 96.8606 63.5616 97.3581 63.1917 97.9576C62.9238 98.3849 63.096 99.0545 63.2491 99.6476L63.2937 99.8134C63.3702 100.113 63.5616 100.368 63.7529 100.611C63.823 100.7 63.8868 100.789 63.9506 100.878C64.0399 101.012 64.1866 100.961 64.2376 100.942C64.2503 100.942 64.2631 100.936 64.2503 100.929L64.4417 100.949C64.6904 100.974 64.9391 101 65.1814 101.044C65.2962 101.063 65.411 101.108 65.5386 101.153C65.8064 101.242 66.0807 101.338 66.3421 101.267C66.6036 101.197 66.7822 100.942 66.948 100.7C66.9608 100.681 66.9735 100.662 66.9863 100.649L67.3306 101.204C67.3625 101.255 67.4136 101.287 67.4709 101.293C67.5283 101.299 67.5857 101.287 67.6304 101.248L70.6278 98.6973C70.6916 98.6463 70.7107 98.5634 70.6852 98.4869L70.4173 97.6578L70.7171 98.0086C70.7553 98.0532 70.8127 98.0851 70.8765 98.0787C70.9403 98.0787 70.9977 98.0405 71.0296 97.9895L72.5857 95.617C72.5857 95.617 72.6112 95.617 72.6239 95.6234C72.6813 95.6234 72.7387 95.6107 72.7834 95.566L74.4925 93.8951C74.5372 93.8505 74.5627 93.7867 74.5499 93.7229L74.4861 93.3467L75.143 93.5954C75.2004 93.6145 75.2642 93.6145 75.3152 93.5763C75.3662 93.5444 75.4045 93.487 75.4045 93.4296C75.4747 92.6579 75.9147 92.1031 76.3866 91.5163C76.7884 91.0189 77.1966 90.5023 77.3624 89.8391L77.5601 89.9921C77.6111 90.0304 77.6685 90.0432 77.7323 90.024C77.7897 90.0113 77.8407 89.9666 77.8662 89.9092L79.4924 86.1975L79.5626 86.4973C79.5817 86.5802 79.6519 86.644 79.7348 86.6503L79.958 86.6695C80.0409 86.6695 80.1174 86.6312 80.1493 86.5611L84.1352 78.6211C84.1735 78.551 84.1607 78.4617 84.1033 78.3979C83.3572 77.5689 83.2743 77.4796 83.6761 76.9949L84.3457 78.0344C84.3839 78.0982 84.4541 78.1301 84.5243 78.1237C84.5944 78.1237 84.6582 78.0727 84.6901 78.0089L84.9005 77.537L87.2538 78.5255C87.3558 78.5637 87.4643 78.5255 87.5089 78.4234L87.7768 77.8303L90.6976 80.1581L90.417 83.0471C90.3532 83.0216 90.2767 83.0343 90.2257 83.079C90.1811 83.1109 90.13 83.1427 90.079 83.1746C89.9387 83.2639 89.7729 83.366 89.7091 83.5382C89.5497 83.9463 89.4094 84.3736 89.2755 84.7818C89.167 85.107 89.0586 85.4386 88.9566 85.7384C88.9438 85.7511 88.9056 85.7703 88.8737 85.783C88.8035 85.8213 88.7142 85.8659 88.6441 85.9488C88.4719 86.1593 88.338 86.3761 88.2359 86.5866C88.102 86.8736 87.9745 87.1605 87.8469 87.4475C87.6301 87.9386 87.4005 88.4424 87.1454 88.9143C87.0752 89.0419 86.9796 89.1567 86.8775 89.2779C86.6097 89.5967 86.2781 89.9985 86.5204 90.6299C86.5332 90.7192 86.4056 90.9998 86.3482 91.038C85.5 91.2294 85.6148 91.8671 85.685 92.2497C85.6977 92.3071 85.7041 92.3645 85.7105 92.4219C85.7679 92.8237 85.8571 93.2319 85.9464 93.6209C85.9783 93.7612 86.0102 93.9079 86.0421 94.0482L85.8061 93.8569C85.7487 93.8122 85.6658 93.7995 85.5957 93.8314L85.4107 93.9206C85.3278 93.9589 85.2832 94.0546 85.3087 94.1438L85.6722 95.6362C85.6722 95.6362 85.6212 95.6744 85.5957 95.6936C85.4107 95.8275 85.2385 95.955 85.2577 96.1464C85.2832 96.3951 85.3406 96.6374 85.398 96.867C85.449 97.0902 85.5 97.2943 85.5255 97.5048C85.5319 97.5877 85.4681 97.7088 85.4107 97.83C85.3725 97.9002 85.3342 97.9767 85.3087 98.0469C85.2959 98.0787 85.2895 98.1106 85.2959 98.1425C85.6276 100.528 86.4694 102.269 87.8724 103.455C87.8916 103.474 87.9171 103.487 87.9426 103.493C88.0701 103.531 88.2104 103.557 88.3507 103.582C88.5229 103.614 88.7908 103.659 88.829 103.729C89.2946 104.514 89.9897 104.641 90.7359 104.775C91.9923 104.998 93.3315 105.164 94.6198 104.494C94.7282 104.437 94.8876 104.412 94.996 104.437C96.6478 104.801 97.7638 103.799 98.6567 102.996C99.4858 102.25 100.468 101.497 101.75 100.63C102.056 100.419 102.33 100.234 102.356 99.8517C102.381 99.9155 102.445 99.9665 102.521 99.9728L102.732 99.992C102.828 99.992 102.917 99.941 102.942 99.8453L103.14 99.0672C103.306 99.1948 103.465 99.2522 103.637 99.2586C103.975 99.2586 104.224 98.9971 104.486 98.6782C104.907 98.1744 105.359 97.6961 105.831 97.1987C105.991 97.0328 106.15 96.867 106.303 96.6948L106.667 97.0137C106.711 97.052 106.775 97.0711 106.833 97.0583C106.89 97.0456 106.947 97.0073 106.973 96.9499C107.043 96.8096 107.113 96.6438 107.177 96.4844C107.241 96.3249 107.336 96.1017 107.4 96.0061C108.063 96.0507 108.216 95.5788 108.325 95.2727C108.363 95.1706 108.395 95.075 108.44 94.9984C108.714 94.5393 108.969 94.0737 109.243 93.5826L109.447 93.2191L109.594 93.4551C109.626 93.5061 109.677 93.538 109.734 93.5444C109.792 93.5507 109.849 93.5316 109.894 93.4934L111.29 92.2497C111.341 92.2051 111.367 92.135 111.354 92.0712L111.201 91.1656C111.29 91.1656 111.38 91.1656 111.456 91.1656C111.788 91.172 112.075 91.1783 112.26 91.0125C112.668 90.6426 113.019 90.2026 113.357 89.788C113.465 89.6477 113.58 89.5138 113.695 89.3735H113.72C113.733 89.4245 113.746 89.4692 113.758 89.5138C113.81 89.6924 113.861 89.8582 113.841 89.9985C113.797 90.2982 113.727 90.6044 113.656 90.9041C113.567 91.2804 113.478 91.6758 113.44 92.0712C113.395 92.5559 113.363 93.2701 113.593 93.8505C113.656 94.0163 113.739 94.1757 113.816 94.3352C114.084 94.8709 114.313 95.3364 113.963 95.9232C113.867 96.089 113.95 96.2994 114.026 96.5035C114.76 98.3849 117.183 100.075 119.218 100.126C121.52 100.171 123.618 99.316 125.614 97.4856C127.228 95.9997 128.816 94.4308 130.346 92.913C131.156 92.1094 131.966 91.3123 132.782 90.5151C132.948 90.3493 133.159 90.2153 133.382 90.075C133.395 90.0687 133.407 90.0559 133.42 90.0495L133.458 90.9615C133.509 92.1222 133.554 93.2191 133.624 94.316C133.643 94.6349 133.777 94.9921 133.981 95.2663C134.096 95.4257 134.249 95.5405 134.396 95.6553C134.543 95.7701 134.683 95.8785 134.766 96.0124C135.442 97.1221 136.335 97.8364 137.425 98.1425C138.114 98.3338 138.828 98.4614 139.517 98.5762C140.046 98.6655 140.595 98.7611 141.118 98.8887C143.216 99.3861 144.74 98.3147 145.958 97.1987C146.003 97.154 146.048 97.1094 146.092 97.0647C146.207 96.9499 146.322 96.8415 146.437 96.7841C146.59 96.7076 146.749 96.6438 146.915 96.5737C147.712 96.242 148.618 95.8594 148.764 94.6668C148.783 94.6477 148.822 94.6285 148.847 94.6094C148.86 94.603 148.873 94.5903 148.886 94.5839L149.211 95.2025C149.243 95.2599 149.294 95.2982 149.357 95.3046C149.421 95.3109 149.485 95.2918 149.53 95.2408L153.324 91.0827C153.369 91.0317 153.413 90.9743 153.458 90.9105C153.503 90.8467 153.592 90.7255 153.63 90.7128C154.989 90.496 155.588 89.5202 156.13 88.4615C156.175 88.3786 156.296 88.2766 156.43 88.2128C156.717 88.0789 157.023 87.9577 157.316 87.8429L157.597 87.7281C158.152 88.0534 158.088 88.4807 157.948 89.1376C157.878 89.4692 157.808 89.8072 157.871 90.1197C157.68 90.2982 157.578 90.5023 157.584 90.6937L157.616 91.4016C157.693 93.2127 157.776 95.0877 157.922 96.9244C157.954 97.2943 158.126 97.6323 158.299 97.9639C158.375 98.1042 158.445 98.2446 158.509 98.3912C158.547 98.4741 158.63 98.5252 158.713 98.5124C158.496 100.094 159.389 101.083 160.257 102.039C160.754 102.594 161.226 103.111 161.468 103.729C161.494 103.799 161.564 103.85 161.64 103.85C162.342 103.895 162.623 104.354 162.922 104.839C163.158 105.221 163.401 105.617 163.853 105.795C163.885 105.808 163.924 105.808 163.962 105.808C164.23 105.764 164.421 105.77 164.549 105.834C165.403 106.293 166.162 106.446 167.017 106.338C167.654 106.261 168.33 106.287 168.981 106.312C169.472 106.331 169.982 106.376 170.429 106.267C170.48 106.255 170.531 106.242 170.575 106.236C170.754 106.197 170.932 106.159 171.168 106.108L171.545 106.025C171.596 106.012 171.64 105.98 171.672 105.936L171.851 105.662L172.042 105.942C172.074 105.987 172.125 106.019 172.182 106.025C172.24 106.031 172.297 106.019 172.335 105.98C172.444 105.885 172.559 105.77 172.667 105.655C172.782 105.534 172.967 105.336 173.024 105.324C173.898 105.508 174.548 105.113 175.18 104.724C175.684 104.418 176.155 104.125 176.717 104.15C176.8 104.15 176.876 104.105 176.908 104.029C177.157 103.423 177.661 103.321 178.241 103.2C178.439 103.162 178.649 103.117 178.847 103.053C180.218 102.6 181.098 101.574 181.933 100.553V101.006C181.933 101.089 181.984 101.159 182.055 101.191C182.131 101.223 182.214 101.204 182.271 101.146L184.88 98.4869L185.058 98.691C185.122 98.7675 185.237 98.7803 185.32 98.7229C185.664 98.4805 185.805 98.0915 185.945 97.7152C186.162 97.1157 186.321 96.7777 186.953 96.8351C187.029 96.8351 187.099 96.8096 187.137 96.7458L187.635 95.9869V96.4142C187.635 96.4971 187.692 96.5737 187.769 96.5992C187.852 96.6247 187.941 96.5992 187.992 96.529C188.107 96.376 188.209 96.2293 188.305 96.089C188.515 95.7892 188.7 95.5278 188.91 95.2918C189.012 95.1706 189.146 95.075 189.28 94.9665C189.433 94.8454 189.593 94.7242 189.727 94.5711C189.956 94.2969 190.154 94.0035 190.352 93.7166C190.403 93.64 190.454 93.5571 190.511 93.4806L191.168 93.6911C191.225 93.7102 191.283 93.7038 191.327 93.6719C191.378 93.64 191.41 93.5954 191.417 93.538L191.493 93.1107L191.602 93.2C191.646 93.2383 191.704 93.251 191.755 93.2446C191.812 93.2383 191.857 93.2064 191.889 93.1553L193.241 91.0954C193.33 91.2612 193.445 91.3952 193.611 91.4143C193.859 91.4526 194.044 91.2102 194.159 91.0317C194.261 90.8786 194.357 90.7255 194.478 90.6299C194.535 90.5852 194.625 90.547 194.714 90.5087C194.88 90.4385 195.071 90.3556 195.148 90.1771L195.192 90.075C195.454 89.4501 195.639 89.0993 196.27 89.1248C196.506 89.1312 196.691 88.8761 196.908 88.4488C197.003 88.2702 197.061 88.0789 197.131 87.8557L197.361 88.1172C197.437 88.2001 197.584 88.2001 197.654 88.1172L198.732 86.8991C198.713 86.9373 198.693 86.982 198.674 87.0202C198.636 87.0968 198.604 87.1733 198.566 87.2498C197.584 89.4564 197.201 91.7842 197.399 94.3734C197.443 94.9665 197.73 95.3811 198.005 95.7829C198.215 96.089 198.413 96.376 198.483 96.7267C198.496 96.8032 198.553 96.8606 198.623 96.8798C199.127 97.0137 199.625 97.2369 200.109 97.4474C201.117 97.8938 202.163 98.3593 203.4 98.1106C203.527 98.0851 203.642 98.0851 203.687 98.0915C204.108 98.6718 204.58 98.4614 204.931 98.3083C205.02 98.2701 205.103 98.2318 205.192 98.1999C205.747 98.0213 206.314 97.8747 206.869 97.7344C206.971 97.7088 207.067 97.6833 207.169 97.6578L206.468 99.182C205.83 100.566 205.211 101.912 204.599 103.257L204.255 104.01C203.7 105.228 203.119 106.491 202.584 107.741C202.392 108.193 202.252 108.659 202.131 109.073C202.086 109.233 202.042 109.38 201.997 109.52C201.933 109.616 201.869 109.698 201.812 109.781C201.684 109.96 201.57 110.113 201.512 110.298C200.983 111.969 200.524 113.455 200.122 114.832C199.956 115.406 199.797 115.987 199.644 116.567C199.401 117.466 199.153 118.397 198.853 119.297C198.623 119.998 198.598 120.725 198.566 121.42C198.534 122.224 198.508 122.983 198.196 123.722C197.877 124.488 197.852 125.361 197.826 126.21V126.471C197.762 127.995 197.781 129.494 198.579 131.069C198.617 131.146 198.7 131.19 198.783 131.178C198.866 131.165 198.936 131.101 198.949 131.012L199.044 130.425L199.261 131.433C199.274 131.503 199.325 131.554 199.389 131.579C199.408 131.586 199.433 131.592 199.452 131.592C199.497 131.592 199.542 131.579 199.573 131.548L200.6 130.725L200.753 130.967C200.798 131.037 200.881 131.069 200.964 131.057C201.047 131.037 201.104 130.974 201.117 130.891C201.187 130.374 201.506 129.998 201.844 129.596C202.233 129.131 202.635 128.652 202.635 127.957C202.635 127.798 202.616 127.638 202.596 127.479C202.565 127.205 202.533 126.949 202.603 126.752C203.209 125.196 203.572 123.563 203.923 121.988L203.987 121.688C204.21 120.68 204.567 119.686 204.905 118.716C205.103 118.168 205.3 117.594 205.479 117.026C205.626 116.561 205.74 116.089 205.849 115.623C205.938 115.253 206.027 114.883 206.13 114.513C206.314 113.869 206.519 113.219 206.723 112.587C206.812 112.3 206.908 112.007 206.997 111.72C207.016 111.669 207.022 111.605 207.035 111.542C207.035 111.51 207.048 111.459 207.061 111.427C207.647 111.178 207.781 110.681 207.902 110.234C207.96 110.017 208.017 109.813 208.119 109.647C208.47 109.073 208.719 108.448 208.961 107.843C209.318 106.956 209.682 106.044 210.364 105.298C210.791 104.832 210.983 104.233 211.161 103.646C211.295 103.225 211.429 102.792 211.652 102.403C213.1 99.9027 214.42 97.2752 215.702 94.7433C216.193 93.7676 216.684 92.7918 217.188 91.8225C217.239 91.7204 217.29 91.6248 217.347 91.5227C217.456 91.3378 217.571 91.1528 217.679 90.9743L217.813 90.7574C217.883 90.6618 217.947 90.5661 218.017 90.4832C218.164 90.2919 218.298 90.1133 218.4 89.9092C218.521 89.6669 218.629 89.4118 218.738 89.1631C218.929 88.7103 219.114 88.283 219.382 87.9131C219.426 87.8557 219.465 87.7983 219.503 87.7473C219.739 87.4348 219.962 87.135 220 86.644C220.02 86.3889 220.294 85.9935 220.402 85.968C221.231 85.8851 221.308 85.3238 221.372 84.8774C221.378 84.82 221.384 84.7626 221.397 84.7052C221.435 84.4501 221.506 84.1886 221.576 83.9399C221.595 84.0228 221.665 84.0802 221.748 84.0866C221.837 84.0994 221.914 84.0483 221.946 83.9718C222.315 83.1874 222.8 82.4412 223.266 81.7206C224.095 80.4451 224.956 79.1313 225.217 77.5242L225.657 77.7347C225.753 77.7793 225.861 77.741 225.912 77.6518C226.008 77.4796 226.091 77.2882 226.167 77.1033C226.295 76.8099 226.448 76.44 226.588 76.4082C226.939 76.3189 227.175 76.1594 227.296 75.9426C227.405 75.7513 227.417 75.5153 227.335 75.2475L227.449 75.2347ZM178.649 64.3356L178.911 63.7362C179.427 63.4619 179.491 63.3344 179.644 62.314L179.874 62.5117C179.918 62.55 179.976 62.5691 180.039 62.5563C180.097 62.5436 180.148 62.5117 180.18 62.4607L181.092 60.8344L181.149 60.8599C181.213 60.8918 181.289 60.8854 181.347 60.8472C181.404 60.8089 181.436 60.7388 181.43 60.6686L181.372 59.9033L181.882 60.1775C181.94 60.2094 182.01 60.2094 182.061 60.1775C182.118 60.1457 182.157 60.0946 182.169 60.0309L182.322 59.0296L182.335 59.087C182.348 59.1635 182.405 59.2273 182.476 59.2464L182.692 59.3038C182.794 59.3293 182.896 59.2783 182.928 59.1827L183.521 57.5181L183.56 57.8434C183.566 57.9135 183.617 57.9773 183.687 58.0028C183.757 58.0283 183.834 58.0156 183.891 57.9709C183.93 57.9391 183.968 57.9135 184 57.888C184.089 57.8179 184.197 57.7414 184.185 57.6074C184.115 56.7847 184.606 56.383 185.173 55.9238C185.352 55.7771 185.537 55.6304 185.709 55.4582C186.123 55.0501 186.417 54.5399 186.729 53.9978C186.812 53.8575 186.895 53.7108 186.984 53.5641L187.08 53.7618C187.112 53.8256 187.176 53.8702 187.246 53.8766C187.322 53.883 187.386 53.8447 187.424 53.781L188.515 52.008L188.592 52.0399C188.662 52.0718 188.745 52.0527 188.802 52.0016C188.859 51.9506 188.878 51.8677 188.853 51.7912L188.592 51.0387L188.987 51.4596C189.025 51.4978 189.076 51.5233 189.134 51.5233C189.191 51.5233 189.242 51.4978 189.28 51.4532L192.418 47.8818L192.565 48.2581C192.584 48.3091 192.622 48.3474 192.673 48.3665C192.724 48.3856 192.782 48.3856 192.833 48.3665L193.068 48.2581C193.126 48.2326 193.171 48.1752 193.177 48.1114L193.292 47.4673C193.292 47.5055 193.292 47.5438 193.292 47.5821C193.311 48.2071 193.33 48.7938 193.145 49.304C191.984 52.4863 190.722 55.6942 189.503 58.7936L188.764 60.6686C188.751 60.7069 188.63 60.7706 188.56 60.8089C188.483 60.8472 188.413 60.8918 188.349 60.9365C188.305 60.9683 188.247 61.0066 188.19 61.0385C187.998 61.1533 187.807 61.2745 187.788 61.4785C187.743 61.925 187.469 62.1673 187.144 62.4479C187.004 62.5691 186.857 62.6966 186.729 62.8497C186.162 63.5066 185.632 64.2145 185.122 64.8969C184.771 65.3624 184.408 65.8471 184.038 66.3127C183.942 66.4274 183.859 66.5614 183.777 66.6889C183.509 67.1035 183.273 67.4606 182.724 67.4989C182.673 67.4989 182.622 67.5307 182.59 67.569C182.558 67.6073 182.539 67.6647 182.546 67.7157L182.584 68.0856C182.546 68.092 182.501 68.1175 182.476 68.1494C182.361 68.2769 182.252 68.43 182.15 68.5703C181.946 68.8509 181.736 69.1442 181.5 69.2335C180.919 69.4376 180.62 69.8649 180.326 70.2794C180.097 70.6047 179.874 70.9108 179.529 71.1021C177.89 71.9886 176.914 73.5319 175.971 75.0179C175.939 75.0689 175.907 75.1263 175.881 75.1837C175.856 75.2283 175.817 75.3049 175.792 75.3431C175.052 75.4005 174.721 75.9107 174.434 76.3571C174.306 76.5548 174.185 76.7462 174.032 76.8928C173.566 77.352 173.088 77.824 172.571 78.2321C171.353 79.1951 170.091 80.1581 168.872 81.0828L168.675 81.2295C168.267 81.542 167.846 81.8417 167.431 82.1415L166.991 82.4604C167.017 82.3838 167.042 82.3009 167.061 82.2244C167.157 81.9119 167.24 81.6185 167.386 81.3571C167.527 81.0956 167.737 80.8724 167.96 80.63L168.139 80.4323C168.892 79.6033 169.025 79.4374 169.102 78.3915L169.128 78.4362C169.159 78.4936 169.21 78.5318 169.274 78.5382L169.485 78.5701C169.587 78.5829 169.682 78.5191 169.701 78.4171L170.091 76.778L170.365 77.1416C170.409 77.199 170.486 77.2309 170.556 77.2181C170.626 77.2053 170.69 77.1543 170.709 77.0842L171.238 75.3686C171.258 75.3112 171.27 75.2538 171.283 75.1964C171.302 75.1008 171.328 75.0051 171.379 74.9286C172.61 73.1365 172.718 72.958 173.101 71.2424L173.33 71.6123C173.369 71.6697 173.432 71.7016 173.502 71.708C173.573 71.708 173.636 71.6633 173.668 71.5996C173.732 71.472 173.802 71.3508 173.866 71.236C174.006 70.9809 174.134 70.7386 174.242 70.4835C174.306 70.3241 174.357 70.1583 174.395 69.9988C174.523 69.5396 174.619 69.1825 175.141 68.9976C175.435 68.8955 175.505 68.4363 175.575 67.805L175.594 67.6455C175.607 67.5435 175.607 67.4415 175.613 67.3394L175.677 67.5244C175.703 67.5945 175.76 67.6455 175.83 67.6583C175.9 67.671 175.971 67.6455 176.022 67.5881L177.067 66.3382C177.118 66.3828 177.182 66.3956 177.246 66.3828C177.316 66.3637 177.367 66.3126 177.386 66.2489L178.05 64.0295L178.33 64.3803C178.375 64.4313 178.445 64.4632 178.509 64.4504C178.579 64.4441 178.636 64.3994 178.662 64.3356H178.649Z" fill="black"/>
<path d="M63.4403 63.4493C63.4658 63.2835 63.3957 63.124 63.3383 63.0092C64.0462 62.4097 63.9122 61.6636 63.7974 60.994C63.7656 60.809 63.7337 60.6304 63.7145 60.4582C64.0079 60.4901 64.2566 60.4391 64.4607 60.2988C64.7094 60.1266 64.8689 59.8396 64.9135 59.4697C64.9581 59.0998 64.9135 58.7236 64.8497 58.2899C64.8433 58.2325 64.837 58.1751 64.8242 58.1177L65.124 58.3856C65.1686 58.4302 65.2324 58.443 65.2961 58.4302C65.3599 58.4175 65.4109 58.3792 65.4364 58.3218L65.6852 57.8052C65.8765 57.3971 66.0614 57.0144 66.2528 56.6318C66.2783 56.5744 66.3102 56.517 66.3357 56.4532C66.3994 56.3129 66.476 56.1343 66.5589 56.0961C66.916 55.9047 67.305 55.7453 67.7132 55.5859C67.8344 55.5349 67.9619 55.4838 68.0895 55.4328L68.4976 55.943C68.5423 55.994 68.606 56.0259 68.6762 56.0132C68.7463 56.0068 68.8037 55.9621 68.8293 55.8984C69.0206 55.4583 69.2374 55.5221 69.6009 55.6178C69.8241 55.6752 70.0729 55.7453 70.3024 55.6305C70.328 55.6178 70.3471 55.605 70.3662 55.5859L70.87 55.0055L71.9542 55.6305C72.0052 55.6624 72.069 55.6688 72.1264 55.6433C72.1838 55.6178 72.2284 55.5731 72.2412 55.5157L72.3687 55.0438L72.4835 55.2989C72.509 55.3627 72.5728 55.4073 72.6366 55.4137C72.7067 55.4264 72.7705 55.3945 72.8152 55.3435L73.0766 55.0119L73.5486 55.3308C73.606 55.369 73.6761 55.3754 73.7399 55.3435C73.8037 55.3116 73.8483 55.2542 73.8547 55.1841L73.9121 54.6675C74.1544 54.9099 74.384 55.0183 74.6136 54.9928C74.8942 54.9545 75.1047 54.7185 75.2641 54.4316L75.4108 54.8844C75.4299 54.9481 75.4809 54.9928 75.5447 55.0119C75.6085 55.031 75.6723 55.0119 75.7233 54.9736L76.4886 54.3423L76.9669 54.5655C77.0243 54.591 77.0944 54.591 77.1518 54.5527C77.2092 54.5208 77.2411 54.4634 77.2475 54.3933L77.2858 53.8257L77.509 54.3486C77.5472 54.4316 77.6365 54.4826 77.7258 54.4698L92.9296 51.9061C92.987 51.8933 93.0381 51.8614 93.0699 51.8104L93.1975 51.5872L93.2932 51.9125C93.3123 51.9699 93.3506 52.0145 93.4016 52.04C93.4526 52.0655 93.5164 52.0591 93.5674 52.04L94.8939 51.3704L95.098 52.1421C95.1171 52.2186 95.1809 52.2696 95.251 52.2824C95.3276 52.2951 95.4041 52.2632 95.4487 52.2058L96.1821 51.1854L96.5329 51.4469C96.6094 51.4979 96.7051 51.4979 96.7752 51.4405L97.7574 50.6178C97.802 50.5796 97.8275 50.5286 97.8275 50.4775L97.8403 50.1905L99.2497 50.9176C99.2943 50.9431 99.3517 50.9431 99.4027 50.9303C99.4538 50.9112 99.492 50.8793 99.5175 50.8283L99.6706 50.5158L100.474 51.262C100.532 51.313 100.608 51.3321 100.678 51.3002C100.748 51.2747 100.799 51.2109 100.806 51.1344L100.952 49.5145L101.705 50.3883C101.75 50.4393 101.82 50.4648 101.884 50.452L104.02 50.114C104.09 50.1013 104.148 50.0566 104.173 49.9928L104.639 48.8704L104.702 49.3934C104.709 49.4635 104.753 49.5209 104.824 49.5528C104.887 49.5783 104.964 49.5719 105.021 49.5273L105.276 49.336L105.251 49.6102C105.251 49.6612 105.264 49.7186 105.296 49.7569C105.327 49.7951 105.378 49.8207 105.429 49.827C105.589 49.8398 105.748 49.8653 105.908 49.8908C106.284 49.9546 106.673 50.0184 107.005 49.8844C107.406 49.7186 107.732 49.3934 108.019 49.1128C108.127 49.0043 108.229 48.9023 108.331 48.813C108.376 48.7748 108.401 48.7237 108.401 48.6663V47.4036L109.065 47.1931L109.403 48.4367C109.364 48.4623 109.332 48.4941 109.32 48.5388L108.943 49.5656C108.905 49.6676 108.956 49.776 109.052 49.8143L109.352 49.9355C109.441 49.9737 109.543 49.9355 109.594 49.8589L110.487 48.4559L110.627 48.6472C110.672 48.7046 110.742 48.7365 110.812 48.7237C110.94 48.7046 111.016 48.6472 111.067 48.5707L111.705 49.3742C111.743 49.4189 111.801 49.4508 111.858 49.4508C111.864 49.4508 111.877 49.4508 111.883 49.4508C111.954 49.438 112.011 49.3934 112.036 49.3296C112.068 49.2467 112.107 49.1574 112.145 49.0745C112.234 48.8704 112.323 48.66 112.387 48.4431C112.432 48.2837 112.451 48.1306 112.464 47.9266C112.47 47.8309 112.483 47.7225 112.496 47.6013C112.502 47.5312 112.477 47.461 112.419 47.4227C112.362 47.3781 112.292 47.3717 112.228 47.3972L111.577 47.6523C111.565 47.2442 111.45 46.938 111.22 46.7595C110.94 46.549 110.538 46.5299 110.021 46.7085C109.887 46.6511 109.766 46.5873 109.651 46.5299C109.377 46.3896 109.141 46.2748 108.886 46.2748C108.44 46.2748 107.987 46.3131 107.553 46.3513C107.107 46.3896 106.648 46.4215 106.195 46.4215C106.035 46.4215 105.857 46.3067 105.659 46.1919C105.57 46.1409 105.487 46.0835 105.398 46.0388L105.238 45.822C105.193 45.7646 105.13 45.7327 105.06 45.7455C104.989 45.7518 104.926 45.7965 104.9 45.8603L104.345 47.1294L104.052 46.1791C104.026 46.0962 103.95 46.0388 103.861 46.0388H102.751C102.655 46.0388 102.572 46.109 102.553 46.211L102.477 46.7403C102.47 46.6957 102.458 46.6574 102.451 46.6128C102.413 46.447 102.285 46.3322 102.171 46.2302C102.132 46.1919 102.094 46.16 102.062 46.1217C102.018 46.0707 101.954 46.0452 101.89 46.058C101.826 46.0643 101.769 46.109 101.737 46.1664C101.667 46.3003 101.616 46.4087 101.577 46.4916L98.7778 46.3322C98.714 46.3322 98.6502 46.3577 98.612 46.4087C98.5737 46.4597 98.5609 46.5235 98.5801 46.5873L98.6821 46.938L98.1591 47.1166C98.1145 46.8807 98.0316 46.7212 97.8849 46.6319C97.6426 46.4789 97.362 46.6064 97.1515 46.6957C97.1132 46.7148 97.0559 46.7403 97.0176 46.7531L96.2459 46.1983C96.1949 46.16 96.1311 46.1536 96.0737 46.1728C96.0163 46.1919 95.9653 46.2365 95.9462 46.2939C95.723 46.9508 95.251 47.072 94.7089 47.2123C94.4028 47.2888 94.0903 47.3717 93.8225 47.563L93.3442 46.9189C93.2995 46.8551 93.223 46.8296 93.1465 46.8424C92.8978 46.8934 92.6745 47.0082 92.4513 47.1166C91.9156 47.3845 91.5967 47.512 91.1822 47.0656C91.1121 46.9891 90.9909 46.9827 90.908 47.0528C90.2447 47.6268 89.4603 47.6523 88.6312 47.6842H88.4208C88.1721 47.7033 87.8851 47.8692 87.5726 48.1944C87.4897 48.2837 87.4323 48.3857 87.3876 48.5005L86.9285 47.5439C86.8838 47.4482 86.769 47.4036 86.6734 47.4482L86.4183 47.5567C86.3417 47.5885 86.2971 47.6587 86.2971 47.7416V48.1115C85.8379 47.7544 85.1747 47.5503 84.6772 47.5822C84.3201 47.6013 84.065 47.7416 83.9502 47.9712C83.7907 48.2901 83.7078 48.3538 83.7142 48.3666C83.6632 48.3283 83.5612 48.1498 83.4974 48.0286C83.4655 47.9648 83.4272 47.901 83.389 47.8373C83.3571 47.7863 83.3124 47.7544 83.2551 47.7416C83.1976 47.7289 83.1403 47.7416 83.0956 47.7799L82.3303 48.3857V47.9839C82.3303 47.9074 82.2857 47.8436 82.2219 47.8054C82.1581 47.7735 82.0752 47.7799 82.0178 47.8245L80.6467 48.8322L80.8252 48.5898C80.8699 48.526 80.8763 48.4431 80.838 48.3794C80.7997 48.3156 80.7296 48.2709 80.653 48.2773C80.4107 48.2901 80.2321 48.3857 80.0727 48.4686C79.9834 48.5133 79.8941 48.5579 79.8176 48.5771C79.0906 48.7556 78.4783 48.8832 77.8597 48.9278C77.6046 48.9469 77.3304 48.9214 77.0625 48.8896C76.6289 48.8449 76.1761 48.8003 75.7743 48.9406C74.6901 49.3296 73.5358 49.4253 72.4198 49.5145C71.4568 49.5974 70.4555 49.674 69.4989 49.9482C69.2183 50.0247 68.944 50.1204 68.6252 50.2288C68.5231 50.2671 68.4147 50.299 68.2999 50.3372L67.7578 48.9278C67.726 48.8449 67.6494 48.7939 67.5601 48.8003C67.439 48.8066 67.3114 48.8322 67.1839 48.8577C66.9607 48.9023 66.7119 48.9469 66.6035 48.8768C66.4505 48.7811 66.3484 48.5452 66.24 48.2901C66.1826 48.1561 66.1188 48.0158 66.0487 47.8819C65.9977 47.7863 65.8829 47.7544 65.7872 47.799C64.6393 48.3857 63.5487 49.1 63.7592 50.6625L63.5423 50.586C63.4913 50.5668 63.4339 50.5732 63.3829 50.5923C63.3319 50.6178 63.3 50.6625 63.2809 50.7135L63.1597 51.1153L63.1406 50.9495C63.1342 50.8984 63.1087 50.8474 63.064 50.8155C63.0194 50.7837 62.9684 50.7709 62.911 50.7773C62.2796 50.8793 61.6865 51.0579 61.1062 51.2237C60.1049 51.5171 59.1547 51.7913 58.1088 51.7084C57.1968 51.6382 56.3294 51.8997 55.4876 52.1548C54.8116 52.3589 54.1101 52.5757 53.3958 52.6076C52.2479 52.665 51.1318 52.8882 49.9584 53.1242C49.4482 53.2262 48.938 53.3283 48.4214 53.4175C48.3385 53.4303 48.2747 53.5196 48.2556 53.6025L48.2301 53.7428C48.1408 53.7237 48.0579 53.7045 47.9686 53.6854C47.6497 53.6152 47.35 53.5451 47.0439 53.5642C46.7505 53.5834 46.489 53.7045 46.2276 53.8257C45.762 54.0362 45.3985 54.2083 44.9521 53.8385C44.8309 53.7364 44.697 53.8066 44.5822 53.864C43.8743 54.202 43.2174 54.2849 42.5733 54.1191C42.4266 54.0808 42.2735 54.1191 42.197 54.1509C41.7697 54.304 41.3424 54.4698 40.8705 54.642L40.4049 54.8206C40.322 54.8333 40.2583 54.8971 40.2391 54.98C39.7863 54.6037 39.442 54.591 38.7341 54.8014C38.5491 54.8588 38.3642 54.9226 38.1856 54.9928C37.8476 55.1139 37.5223 55.2351 37.1907 55.2798C36.3042 55.4009 35.3923 55.4838 34.5058 55.5667C34.1359 55.5986 33.766 55.6369 33.4025 55.6688C33.3706 55.6688 33.3451 55.6815 33.3196 55.6943L33.039 55.4647C32.9943 55.4264 32.9306 55.4137 32.8732 55.4264C32.8158 55.4392 32.7648 55.4775 32.7393 55.5285L32.2227 56.5106L31.9995 56.0961C31.9612 56.0259 31.8847 55.9813 31.8018 55.994C31.5467 56.0195 31.2979 56.045 31.0492 56.0706C30.4816 56.128 29.9459 56.1854 29.4038 56.2619C28.9319 56.332 28.4536 56.4277 28.0008 56.5234C27.8605 56.5552 27.7202 56.5808 27.5799 56.6126V56.5744C27.5544 56.4978 27.4906 56.4405 27.4141 56.4213C27.3376 56.4022 27.261 56.4405 27.2164 56.5042L26.9549 56.8741L26.7444 56.4915C26.7189 56.4405 26.6679 56.4022 26.6105 56.3958C26.5531 56.3831 26.4957 56.3958 26.4511 56.4341L25.0736 57.5055L25.131 57.008C25.1373 56.9506 25.1182 56.8869 25.0736 56.8486C25.0289 56.804 24.9715 56.7848 24.9141 56.7912L21.7764 57.1228C21.7764 57.1228 21.7764 57.1101 21.7764 57.1037C21.7637 57.0208 21.6935 56.9506 21.6106 56.9379C20.7114 56.8103 19.7803 56.7593 18.9958 57.1866C18.9895 57.1739 18.9767 57.1547 18.9703 57.142C18.8173 56.855 18.7216 56.6764 18.5303 56.7274C18.4155 56.7529 18.2943 56.7785 18.1668 56.804C17.6757 56.8996 17.1655 57.0017 16.9487 57.346C16.4449 58.1305 16.1451 59.0488 15.8581 59.9417L15.839 59.9991C15.7306 60.3435 15.7178 60.7133 15.7051 61.0705C15.7051 61.2108 15.6923 61.3511 15.6859 61.4978C15.6732 61.5233 15.6732 61.5488 15.6732 61.5743C15.6732 61.6253 15.6923 61.67 15.7178 61.7018L15.2395 61.9825C15.1694 62.0207 15.1375 62.0972 15.1439 62.1738C15.1502 62.2503 15.2076 62.3141 15.2778 62.3396L17.2293 62.9582C17.2931 62.9773 17.3568 62.9646 17.4079 62.9263L17.9244 62.5309C18.052 62.6011 18.1859 62.684 18.3071 62.7605C18.83 63.0858 19.4104 63.4493 20.1629 63.1495L20.2394 63.8574C20.2458 63.9212 20.2841 63.9786 20.3415 64.0105C20.3989 64.0424 20.469 64.0424 20.5264 64.0105L21.145 63.6725C21.3427 64.9097 21.4639 65.0819 22.3886 65.0117L23.0136 65.8217C23.0519 65.8727 23.1157 65.9046 23.1858 65.8982C23.256 65.8918 23.3134 65.8536 23.3453 65.7962L23.6769 65.2031L24.168 66.7081C24.1998 66.8102 24.3083 66.8676 24.4167 66.8357L24.7037 66.7464C24.7419 66.7337 24.7738 66.7145 24.7929 66.689V66.8166C24.7929 66.9186 24.8695 67.0015 24.9715 67.0143L25.182 67.0334C25.2457 67.0334 25.3159 67.0143 25.3542 66.9632L25.7496 66.4722L25.9664 67.5308C25.9792 67.5819 26.0047 67.6265 26.0493 67.6584C26.0939 67.6839 26.145 67.6967 26.196 67.6839L26.3873 67.6456C26.4702 67.6265 26.5276 67.5627 26.5404 67.4798L26.5786 67.2056L26.8401 67.5372C26.872 67.5819 26.923 67.6074 26.974 67.6137C27.0251 67.6137 27.0825 67.601 27.1207 67.5691C27.6564 67.1099 27.9689 66.3893 27.9625 65.6431C27.9625 64.9862 27.7011 64.3931 27.261 64.0296C27.0697 63.8702 26.8082 63.8574 26.534 63.8447C26.4638 63.8447 26.4001 63.8383 26.3235 63.8319C26.3235 63.7618 26.3172 63.6661 26.3235 63.6342C26.7572 63.2388 27.2228 62.8689 27.599 62.5692C27.6819 62.5054 27.7585 62.4416 27.835 62.3842L28.9893 62.9773C29.0531 63.0092 29.1296 63.0029 29.187 62.9646C29.2444 62.9263 29.2827 62.8562 29.2763 62.786L29.2508 62.3779C29.2508 62.3779 29.3082 62.3906 29.3401 62.3906C29.6781 62.4544 29.9204 62.4927 30.0352 62.3141C30.1755 62.0972 30.2839 61.8613 30.386 61.5998L30.4115 62.1674C30.4115 62.2248 30.4434 62.2758 30.4816 62.3077C30.5263 62.346 30.5837 62.3587 30.6347 62.3523L32.6627 62.0399C32.7456 62.0271 32.8094 61.9633 32.8285 61.8868L32.8732 61.6891L33.0007 62.0016C33.0199 62.0526 33.0581 62.0909 33.1091 62.11C33.1602 62.1291 33.2176 62.1291 33.2622 62.11C33.4344 62.0335 33.6002 61.9378 33.7596 61.8485C34.0785 61.67 34.3783 61.5041 34.6589 61.4914C34.9969 61.4786 35.2137 61.4021 35.3604 61.2427C35.5453 61.0322 35.539 60.7452 35.5198 60.4519C35.5198 60.4327 35.5198 60.4072 35.5198 60.3881L35.7239 60.9174C35.7558 60.9939 35.8259 61.045 35.9088 61.045C35.9981 61.045 36.1002 61.0322 36.2022 61.0195C36.3234 61.0067 36.5275 60.9812 36.5785 61.0195C36.757 61.1598 37.0249 61.3383 37.2672 61.2427C37.516 61.1406 37.5734 60.8409 37.6116 60.5412V60.5284L37.6754 60.6815C37.7137 60.7707 37.8093 60.8218 37.8986 60.7963L38.868 60.573C38.868 60.573 38.8871 60.573 38.8935 60.5667L38.8744 60.6177C38.8425 60.7006 38.868 60.7899 38.9318 60.8473L39.2315 61.0896C39.2825 61.1279 39.3463 61.1406 39.4037 61.1279C39.4611 61.1151 39.5121 61.0705 39.5376 61.0131L39.831 60.2797L39.984 60.9621C39.9968 61.0195 40.0351 61.0705 40.0925 61.096C40.1499 61.1215 40.2136 61.1215 40.2646 61.096L41.7952 60.2924C41.8271 60.3753 41.91 60.4264 41.9993 60.42C42.2098 60.3945 42.4138 60.3753 42.5988 60.3498C43.0006 60.2988 43.345 60.2605 43.6893 60.2414C44.0337 60.2287 44.4738 60.1457 44.6778 59.7121C44.697 59.7376 44.7225 59.7631 44.748 59.7759L44.8755 59.8396C44.9584 59.8843 45.0605 59.8651 45.1179 59.7886L45.3602 59.4953C45.5197 59.6674 45.6791 59.7503 45.8513 59.7631C46.1574 59.7886 46.3806 59.5399 46.5464 59.3613C46.5783 59.3231 46.6293 59.272 46.6549 59.2402C47.8793 59.795 48.8232 59.406 49.7352 59.0297C49.8372 58.9851 49.9392 58.9468 50.0349 58.9085L50.1306 59.0743C50.1752 59.1509 50.2581 59.1891 50.3474 59.17L52.0055 58.781C52.0566 58.7682 52.1076 58.7363 52.1331 58.6853L52.4009 58.207L52.605 58.545C52.6433 58.6088 52.7198 58.647 52.7963 58.6407L55.0922 58.3983C55.1879 58.3856 55.2644 58.309 55.2708 58.207C55.2835 58.2261 55.3027 58.2389 55.3218 58.2516L55.5323 58.3856C55.5769 58.4111 55.6279 58.4238 55.6789 58.4111C55.73 58.3983 55.7746 58.3664 55.8065 58.3218L56.2274 57.6585C57.3052 58.1879 58.3065 57.8562 59.2822 57.5374C59.6011 57.4353 59.9327 57.3269 60.2643 57.244C60.258 57.2887 60.2452 57.3397 60.2388 57.3843C60.1942 57.633 60.1559 57.8435 60.0666 58.0157C59.5246 59.1126 58.9506 60.2223 58.3957 61.2937L57.86 62.3332C57.7134 62.3268 57.5922 62.3587 57.5029 62.4289C57.3371 62.5628 57.3243 62.7669 57.318 62.9391C57.318 63.0284 57.3052 63.1432 57.2733 63.1814C57.0437 63.4174 56.9226 63.7426 56.8014 64.0551C56.7695 64.1444 56.7376 64.2273 56.6993 64.3166C56.6547 64.4314 56.6228 64.5526 56.5973 64.6674C56.5654 64.7949 56.5399 64.9097 56.4889 65.0054C56.3996 65.1776 56.2912 65.3434 56.1764 65.5156C56.0361 65.7324 55.8894 65.9556 55.7746 66.198C55.5769 66.6252 55.2708 66.9888 54.9519 67.3778C54.4736 67.9518 53.9762 68.5512 53.8486 69.3803C53.8295 69.3931 53.8103 69.3994 53.7912 69.4122C53.7019 69.4568 53.5935 69.5142 53.5361 69.6163C53.3958 69.8522 53.2555 70.101 53.2491 70.3561C53.2491 70.5793 53.3129 70.7961 53.3703 70.9683C53.3257 70.981 53.281 70.9938 53.2364 71.0002C53.0004 71.0576 52.7836 71.115 52.6305 71.268C52.2542 71.6571 51.9545 72.1226 51.7377 72.4861L51.6803 72.5818C51.4826 72.907 51.2594 73.2705 51.3295 73.6086C51.3805 73.8573 51.3423 73.9338 51.3295 73.9529C51.2913 74.004 51.1446 74.004 51.017 74.0103C50.966 74.0103 50.915 74.0103 50.864 74.0103C50.7938 74.0103 50.73 74.0614 50.6982 74.1251C50.526 74.5142 50.3729 74.9287 50.2198 75.3305C49.8627 76.2935 49.5247 77.1991 48.9252 77.8942C48.3895 78.5192 48.3449 79.0421 48.3002 79.597V79.648C48.3002 79.648 48.2556 79.6544 48.2428 79.6608C48.0579 79.7054 47.8666 79.7564 47.8028 79.9286C47.5031 80.7959 47.0311 81.5804 46.3232 82.4031C45.9852 82.7921 45.8513 83.3342 45.7237 83.8571C45.66 84.1314 45.5898 84.412 45.4942 84.6607C45.3602 85.0114 45.1562 85.3877 44.8564 85.8278C44.7352 86.0063 44.5886 86.1657 44.4355 86.3316C44.3271 86.4464 44.225 86.5612 44.1294 86.676C43.785 87.0969 43.6638 87.5943 43.549 88.079C43.4215 88.5956 43.3067 89.0802 42.9368 89.4693C42.6052 89.8137 42.4075 90.2728 42.2161 90.7193C42.146 90.8851 42.0758 91.0445 41.9993 91.2039C41.9355 91.3315 41.8718 91.4654 41.8016 91.593C41.5656 92.0585 41.3233 92.5432 41.1447 93.0534C40.9917 93.4998 40.8769 93.959 40.7685 94.4054C40.6856 94.7434 40.5963 95.0878 40.5006 95.4258C40.4751 95.5151 40.3794 95.6108 40.2838 95.7064C40.2264 95.7638 40.1754 95.8148 40.1243 95.8722C40.0351 95.9807 39.933 96.0827 39.831 96.1847C39.595 96.4271 39.3463 96.6758 39.2187 96.9947C38.8488 97.9003 38.5746 98.8314 38.2749 99.8645C37.956 100.974 37.6499 102.103 37.3565 103.2C37.2736 103.512 37.1843 103.831 37.1014 104.144L36.9994 103.736C36.9803 103.665 36.9229 103.608 36.8527 103.589L36.6359 103.544C36.5338 103.525 36.4254 103.583 36.3999 103.691L36.2787 104.169C36.1831 104.552 36.0874 104.935 35.9918 105.311L35.928 105.56C35.8578 105.827 35.7941 106.108 35.6984 106.37C35.5262 106.861 35.3476 107.345 35.1627 107.83C35.0415 108.162 34.914 108.487 34.7992 108.818C34.7673 108.901 34.7545 108.984 34.7354 109.074C34.7163 109.156 34.7035 109.239 34.6716 109.303C34.576 109.501 34.4739 109.699 34.3719 109.89C34.1806 110.247 33.9829 110.623 33.8489 111.019C33.766 111.267 33.7405 111.561 33.7214 111.841C33.6959 112.179 33.6704 112.53 33.5301 112.645C32.7903 113.219 32.6372 113.991 32.4969 114.737C32.3949 115.266 32.2992 115.764 31.9995 116.184C31.5977 116.752 31.4 117.46 31.2087 118.142C31.1449 118.378 31.0811 118.614 31.0046 118.844C30.9727 118.933 30.9408 119.029 30.9089 119.124C30.7622 119.539 30.5964 120.011 30.724 120.394C30.9663 121.114 30.6474 121.529 30.1691 122.033C30.099 122.109 30.099 122.224 30.1691 122.3L30.4689 122.632C29.6781 123.072 29.576 123.825 29.4804 124.494C29.4357 124.819 29.3975 125.119 29.289 125.387C29.1934 125.623 29.4421 125.98 29.6015 126.101C30.0161 126.414 30.4306 126.707 30.8707 127.013L31.349 127.345C31.4 127.383 31.4638 127.39 31.5212 127.37C31.5786 127.351 31.6296 127.307 31.6487 127.243L31.7125 127.058L32.0505 127.555C32.0888 127.613 32.1525 127.645 32.2163 127.645C32.2418 127.645 32.2673 127.645 32.2928 127.632L32.465 127.562C32.5352 127.53 32.5862 127.46 32.5862 127.377V126.771L33.0071 127.128C33.0581 127.173 33.1283 127.186 33.1984 127.166C33.2686 127.147 33.3132 127.09 33.3324 127.026C33.377 126.848 33.4153 126.675 33.4535 126.51C33.5301 126.172 33.6066 125.846 33.7086 125.54C33.8489 125.119 34.0339 124.698 34.2188 124.29C34.6397 123.346 35.0798 122.364 34.9841 121.242C34.9969 121.216 35.0479 121.159 35.0862 121.121C35.1691 121.031 35.2647 120.936 35.303 120.808C35.4879 120.24 35.6537 119.654 35.8132 119.086L35.9025 118.761C35.9344 118.64 35.9599 118.519 35.9854 118.397C36.0236 118.187 36.0619 117.996 36.1512 117.83C37.0249 116.178 37.9624 114.188 38.2749 111.931V111.873C38.294 111.771 38.3195 111.605 38.3642 111.561C38.9062 111.051 39.3144 110.343 39.5695 109.456C39.6333 109.239 39.6843 109.029 39.7417 108.812C39.9139 108.162 40.0733 107.543 40.3858 106.924C41.3042 105.1 42.1332 103.194 42.9368 101.357C43.2174 100.713 43.5044 100.062 43.7914 99.4181C43.8615 99.265 43.8934 99.1056 43.9253 98.9589C43.9381 98.8888 43.9572 98.8186 43.9763 98.7421C44.0018 98.6464 44.021 98.5508 44.0465 98.4551C44.0911 98.2446 44.1358 98.0469 44.225 97.8748C44.3207 97.6898 44.4227 97.5049 44.5184 97.3199C45.0669 96.3059 45.6345 95.26 45.373 93.9526C45.3602 93.8952 45.373 93.8187 45.3794 93.7294L45.9533 93.9718C46.0554 94.0164 46.1702 93.9718 46.2084 93.8697L46.7952 92.5304C47.9048 89.9858 49.0081 87.4604 50.1242 84.903C50.1561 84.8265 50.2326 84.6479 50.2836 84.6224C50.7874 84.412 51.3997 83.94 51.4698 82.8941L51.7951 82.4286C52.9622 80.7577 53.9953 79.2845 54.2249 77.435L54.2504 77.5052C54.2759 77.5817 54.3524 77.6327 54.4353 77.6327H54.6139C54.7096 77.6519 54.7797 77.5817 54.8052 77.4924L55.3346 75.7322C55.9723 75.4453 56.1955 74.9159 56.3996 74.4504C56.5144 74.1825 56.6228 73.9338 56.795 73.7552C56.9991 73.5448 56.9544 73.1813 56.9162 72.8305C56.9098 72.7603 56.897 72.6966 56.897 72.6264C57.2032 72.5563 57.5412 72.3076 57.8473 71.9249C58.2044 71.4785 58.5552 70.7706 58.383 70.2413C58.3511 70.1456 58.3575 70.0244 58.3702 69.8905L58.6445 70.0053C58.7337 70.0436 58.8422 70.0053 58.8932 69.9288L59.7988 68.4683C60.124 68.5257 60.596 68.328 60.8766 68.1941C61.0615 68.1048 61.9225 67.6584 62.0755 67.1354C62.7707 66.8931 62.8153 66.3319 62.8472 65.9173C62.86 65.7324 62.8791 65.5602 62.9365 65.4327C63.1788 64.9416 63.2617 64.3868 63.3446 63.8511C63.3638 63.7363 63.3829 63.6151 63.402 63.5067L63.4403 63.4493ZM111.169 48.1498C111.169 48.1498 111.169 48.0796 111.169 48.0477C111.195 48.0477 111.227 48.0605 111.271 48.0796C111.278 48.086 111.284 48.0924 111.297 48.0987C111.297 48.0987 111.284 48.1051 111.284 48.1115L111.176 48.2072C111.176 48.2072 111.176 48.1625 111.176 48.1498H111.169ZM24.8185 65.5985V66.2362L24.5506 64.7056L25.1947 65.4008H25.0098C24.9014 65.4072 24.8185 65.4964 24.8185 65.6049V65.5985Z" fill="black"/>
</svg>
