<svg width="619" height="222" viewBox="0 0 619 222" fill="none" xmlns="http://www.w3.org/2000/svg">
<path d="M618.391 211.956C618.282 208.185 618.446 204.413 618.391 200.642C618.519 198.564 618.537 196.467 618.391 194.329C618.737 188.702 619.136 206.228 618.955 200.541C618.918 198.867 619.1 197.173 618.519 195.66C618.428 195.499 618.337 195.337 618.228 195.196C618.355 192.554 618.3 189.932 618.155 187.31C618.355 186.665 618.3 186.04 618.155 185.394C617.828 184.971 617.883 184.689 618.264 184.547C618.064 184.769 618.028 185.052 618.155 185.394C618.282 185.152 618.319 184.87 618.264 184.547C618.955 182.934 618.7 181.179 618.555 179.425C618.101 173.999 618.191 168.554 618.264 163.068C618.319 158.792 618.537 154.416 617.555 150.281C617.483 142.698 617.555 135.094 617.283 127.531C616.865 116.318 617.028 105.104 617.047 93.8703C617.047 85.1576 617.228 76.465 617.01 67.7522C617.174 67.369 617.356 66.9657 617.519 66.5825C617.446 66.28 617.428 65.9774 617.501 65.6547C617.41 65.5741 617.319 65.5136 617.228 65.4732C617.356 65.0698 617.446 64.6262 617.465 64.1623C617.465 63.4362 617.465 62.69 617.483 61.9639C617.483 61.4799 617.374 61.3589 617.192 61.5001C617.192 59.3017 617.483 57.063 616.992 54.905C616.992 54.5823 616.992 54.2394 616.992 53.9167C617.301 53.2512 617.301 52.6058 616.956 51.9806C616.72 51.194 616.683 50.3873 616.919 49.5805C616.574 47.362 616.52 45.1435 616.919 42.925V42.5216C616.338 40.5854 617.065 38.3468 616.429 36.4308C616.193 35.4627 616.138 34.4744 616.429 33.4862C616.738 32.861 616.738 32.2156 616.465 31.5702C616.356 31.308 616.338 31.0256 616.392 30.7029C616.084 30.1987 616.247 29.2912 615.938 28.7869C616.047 28.4441 616.065 28.081 615.956 27.6777C615.902 27.0726 615.865 26.4676 615.811 25.8827C615.448 25.0155 615.611 24.1482 615.793 23.2608L615.829 23.3415C615.593 21.7078 614.612 22.6558 614.139 21.8894C612.595 21.5465 611.123 22.2726 609.633 22.7163C608.67 23.6238 607.67 23.5835 606.634 23.1398C605.344 22.5751 604.036 22.4339 602.818 23.765C601.474 23.7852 600.147 24.1482 598.857 24.6928C598.094 24.3902 597.367 24.6726 596.64 24.9751C593.842 26.1852 591.08 26.0642 588.372 24.2894C587.754 23.886 587.118 23.6843 586.446 23.7247C583.738 23.9465 580.995 23.7448 578.36 24.3096C574.035 25.2171 569.783 24.6323 565.494 24.4709C563.877 22.4137 562.169 22.0507 560.334 23.5835C557.445 22.1314 554.464 22.8171 551.521 22.5952C549.504 22.4339 547.487 22.2524 545.56 23.644C545.179 23.9465 544.797 24.2692 544.416 24.5718C544.216 24.4911 544.034 24.5718 543.87 24.7734C541.072 25.0356 538.292 25.8424 535.475 24.5112C534.221 23.9264 532.877 24.5516 531.568 25.076C529.315 26.0239 527.516 28.3231 525.681 30.5416C522.792 31.0256 519.866 29.5533 516.977 30.8643C516.904 30.9046 516.813 30.7634 516.722 30.7029V30.6626C516.014 31.5298 515.051 30.4609 514.378 31.55H514.396C513.87 32.3567 513.143 31.8122 512.525 32.0946C512.507 32.0946 512.47 32.0946 512.452 32.0744C512.089 31.9937 511.707 31.9332 511.362 31.7315C511.126 31.6307 510.889 31.5702 510.653 31.55C510.054 31.5298 509.472 31.5097 508.891 31.5702C508.654 31.6307 508.418 31.7315 508.2 31.8929C507.655 32.4374 507.019 32.4576 506.401 32.6593C506.129 32.7399 505.874 32.9215 505.602 33.0021C501.186 34.3534 496.698 33.9097 492.246 34.5349C491.501 34.5148 490.737 34.4744 489.992 34.4543C487.521 35.019 485.013 33.2442 482.56 34.9585C482.469 35.4627 482.379 35.9467 482.27 36.3703C481.543 36.4106 480.852 36.6526 480.143 36.9551C480.053 36.7736 479.944 36.5719 479.853 36.3501C479.562 35.7047 479.108 35.5232 478.635 35.4828C475.165 35.3417 471.676 36.4106 468.187 35.4828C466.115 34.9181 464.025 34.7568 461.918 35.2207C461.427 35.4828 461.082 36.0476 460.882 36.8745C460.882 36.935 460.882 36.9955 460.864 37.056C459.573 37.177 458.301 37.54 457.029 37.7215C456.902 37.7215 456.757 37.7215 456.63 37.7215C456.085 37.7215 455.558 37.7215 455.012 37.782C454.54 37.7417 454.068 37.6409 453.577 37.4593C452.832 37.177 451.869 37.4997 451.233 38.4879C450.433 38.7703 449.634 39.1333 448.852 39.6174C448.58 39.2342 448.325 38.7501 448.053 38.3064C447.38 37.6005 446.635 37.2577 445.89 37.5199C443.019 38.5484 440.275 37.5198 437.532 36.2492C437.005 35.9265 436.459 35.6039 435.951 35.2408C435.696 35.1198 435.424 35.0391 435.151 34.9988C433.516 34.5954 431.898 34.1114 430.299 33.3047C429.809 33.0425 429.3 32.8811 428.827 32.6189C428.573 32.5383 428.319 32.4576 428.064 32.3567C425.629 32.1147 423.249 30.6021 420.778 31.55C419.233 31.8324 417.816 29.997 416.253 30.6021C412.419 29.4122 408.494 29.1701 404.769 26.9315C404.114 26.9718 403.442 27.1735 402.77 27.3147C401.752 26.7499 400.698 26.5483 399.626 26.5886C399.317 26.2659 399.026 25.8424 398.754 25.2776C398.081 25.2373 397.409 25.1566 396.755 24.8541C396.482 24.8541 396.21 24.8743 395.955 24.9953C395.265 25.2978 394.538 25.2171 393.884 25.6608C387.633 24.9751 381.382 24.6928 375.131 24.2894C365.627 23.6843 356.142 22.7163 346.729 20.0339C346.42 19.9532 346.111 19.9129 345.802 19.933C339.097 20.9414 332.428 22.9784 325.65 21.3448C325.142 21.4053 324.633 21.5062 324.142 21.607C323.797 21.5667 323.433 21.5667 323.088 21.5667C322.18 21.5263 321.253 21.9095 320.399 20.9818C317.746 22.5549 314.911 21.849 312.222 23.0591C311.059 23.5835 309.823 23.039 308.642 22.4742C306.28 21.365 303.808 21.3448 301.464 22.0507C299.393 22.6759 297.394 22.4742 295.359 22.4339C293.269 22.3936 291.125 22.2524 289.126 23.6843C288.472 23.4222 287.818 23.1801 287.163 22.9179L286.909 22.8373C286.745 22.8171 286.564 22.8171 286.4 22.8373C286.218 22.8776 286.055 22.9583 285.891 23.0793L285.637 23.2608L285.383 23.4625C285.219 23.6238 285.055 23.7852 284.892 23.9869C284.71 24.1482 284.529 24.3096 284.347 24.4507C284.274 24.5112 284.201 24.5314 284.111 24.5718C284.111 24.5718 284.092 24.5718 284.074 24.5718C283.711 24.2087 283.329 24.1886 282.966 24.5718L282.693 24.6121C282.439 24.5516 282.203 24.4709 281.948 24.4306C281.149 24.0675 280.349 24.0877 279.55 24.6726C279.459 24.8743 279.35 24.9146 279.222 24.8339C278.859 24.9146 278.641 25.2978 278.423 25.7617C276.042 28.0407 273.444 28.9281 270.791 29.3718C270.046 29.4928 269.265 29.3113 268.556 29.634C268.301 29.4525 268.029 29.271 267.756 29.1096C263.577 30.6424 259.416 32.3567 255.273 34.1114C253.474 35.6442 251.366 34.8375 249.567 36.3703C248.749 36.6123 248.022 37.54 247.241 37.9837C247.041 37.9232 246.841 37.8022 246.641 37.5199C246.35 37.5199 246.06 37.4997 245.769 37.4795C245.46 37.419 245.351 37.54 245.387 37.8425C245.042 37.8022 244.697 37.782 244.406 38.2459C244.297 38.4274 244.152 38.4879 244.006 38.4073C243.279 39.2947 242.262 38.0846 241.59 39.4358C241.371 39.9602 241.135 40.4846 240.917 41.009C240.372 41.0695 239.845 41.13 239.3 41.1905C239.1 41.5132 238.9 41.8359 238.7 42.1586C236.393 44.2561 234.048 45.4662 231.395 44.2561C230.614 43.8931 229.687 44.1149 228.87 44.4376C226.471 45.4057 224.054 45.6679 221.601 45.6679C219.348 45.6679 217.113 46.4343 214.859 46.9183C210.916 47.7452 206.973 46.8376 203.012 47.0393C202.358 46.1923 201.594 46.2729 200.849 46.2528C196.143 46.0712 191.618 44.4779 187.293 41.2308C186.548 40.6661 185.749 40.3233 184.949 40.2224C184.749 39.8796 184.568 39.4762 184.422 38.9316C184.204 38.6694 183.968 38.4678 183.714 38.3468C183.35 38.0846 182.95 37.903 182.569 37.8627C182.514 37.8627 182.442 37.8627 182.387 37.8627C181.915 36.3299 180.806 36.5518 179.898 36.3904C173.065 35.0996 166.324 33.1836 159.637 30.4004C158.674 29.6138 157.674 29.2912 156.656 29.876C156.475 29.9769 156.293 30.0374 156.111 30.1181C155.112 29.2508 154.131 28.3634 153.131 27.4962C152.568 26.9516 151.986 26.5886 151.296 26.4071C148.316 25.5802 145.336 25.3987 142.319 25.56C141.738 25.8625 141.102 25.7819 140.502 25.923C140.048 25.5802 139.63 25.1365 139.23 24.5314C127.073 25.318 114.935 25.7819 102.778 24.1482C100.452 22.9785 98.1083 22.5146 95.7279 22.6961C94.2015 22.0305 92.7114 21.0625 91.294 19.7515C89.4224 19.1666 87.5507 18.6019 85.6791 18.017V17.9565C83.8074 18.9851 81.8449 17.8557 79.9733 18.7431C79.0284 19.1263 78.0653 19.4893 77.1204 19.8725C76.9386 19.8322 76.7569 19.7717 76.557 19.7313C76.448 19.7313 76.339 19.7313 76.2118 19.7313C76.1391 19.6708 76.0664 19.6305 75.9937 19.5498C75.7393 19.5095 75.4668 19.5498 75.2124 19.6708C75.176 19.7112 75.1579 19.7313 75.1215 19.7717C74.0494 19.7918 72.9591 19.8322 71.887 19.8524C71.6871 19.7112 71.4691 19.5902 71.2692 19.449C71.0329 19.4086 70.7967 19.4086 70.5605 19.4288C70.5605 19.3078 70.5787 19.207 70.5787 19.086C70.3788 16.8876 69.3975 16.222 68.3436 16.0809C64.782 15.617 61.2386 14.8909 57.6952 14.185C57.0773 14.064 56.5504 14.1649 56.1324 14.6086C56.0234 14.4472 55.8962 14.306 55.7872 14.1245C54.9513 13.9834 54.0972 14.1245 53.2432 13.9027C45.593 11.9463 37.9247 10.1715 30.3472 7.48913C28.6028 6.86391 26.9128 5.31095 25.1866 5.41179C20.8254 5.65381 16.6823 3.69748 12.4484 2.48738C11.7579 2.24536 11.0492 2.42687 10.3769 2.06384C10.1406 1.90249 9.94076 1.94283 9.74088 2.14451C8.65059 1.53946 7.54214 0.95458 6.50637 0.127676C5.74317 -0.174849 5.03449 0.00666617 4.54386 1.25711C3.61712 1.49913 2.78124 0.813401 1.92718 0.45037C0.964098 1.66047 1.4729 3.41512 1.45473 4.88741C1.40021 16.6456 1.43655 28.4037 1.43655 40.1821C1.43655 40.6863 1.43655 41.1502 1.43655 41.6342C1.43655 41.8157 1.43655 41.9569 1.43655 42.1182C1.30935 42.2393 1.2185 42.4208 1.20033 42.7233C1.41838 47.12 1.36387 51.5167 1.12764 55.8932C0.618842 57.5874 0.873241 59.4025 0.873241 61.1572C0.85507 79.8129 0.873241 98.4485 0.873241 117.124C0.891413 117.77 0.891413 118.395 0.891413 119.04C0.709699 119 0.637013 119.202 0.655185 119.625C0.909584 123.054 0.836899 126.483 0.600671 129.891C0.637013 131.646 0.709699 133.42 0.691527 135.175C0.691527 138.079 0.691527 140.963 0.673356 143.868C0.582499 144.473 0.582499 145.138 0.600671 145.784C0.637013 146.026 0.655185 146.288 0.673356 146.53C0.673356 147.801 0.673356 149.091 0.673356 150.362C0.655185 150.604 0.637013 150.866 0.600671 151.108C0.600671 152.52 0.546156 153.932 0.655185 155.344C0.655185 156.957 0.655185 158.57 0.655185 160.184C0.655185 160.547 0.655185 160.91 0.618842 161.273C0.509814 163.169 0.564328 165.085 0.637013 167.001C0.637013 169.179 0.637013 171.337 0.637013 173.515C0.582499 174.241 0.509814 174.988 0.400785 175.714C0.382614 176.177 0.437128 176.601 0.582499 176.984C0.582499 176.984 0.600671 176.984 0.618842 177.004C0.473471 180.675 0.346271 184.346 0.527985 188.036C0.346271 188.42 0.182729 188.863 0.0737004 189.408C0.0373577 190.134 0.182729 190.759 0.400785 191.364C0.437128 191.364 0.473471 191.405 0.527985 191.405C0.291757 192.05 0.3281 192.857 0.146386 193.542C0.146386 194.228 0.146386 194.934 0.128215 195.62C0.400785 196.87 0.455299 198.141 0.128215 199.391C0.382614 201.206 0.364443 179.868 0.128215 181.683C0.164557 182.652 0.219071 183.599 0.219071 184.568C0.146386 193.905 0.0555291 203.243 0.00101491 212.581C-0.0171565 217.26 0.182729 217.724 2.74489 217.865C6.57905 218.087 10.4314 218.289 14.2655 217.825C15.0287 218.168 15.7919 218.208 16.537 217.825C17.1003 218.148 17.6636 218.148 18.2269 217.825C19.0265 218.067 19.826 218.309 20.6255 218.551C26.6221 218.229 32.6186 218.148 38.6152 218.672C39.3784 219.398 40.1416 219.459 40.8866 218.652C41.6317 218.309 42.3948 218.309 43.1399 218.652C43.5033 219.257 43.8849 219.257 44.2665 218.713C45.2114 218.39 46.1563 218.37 47.1012 218.692C48.2279 219.418 49.3727 219.418 50.4993 218.692C51.0626 218.41 51.6441 218.43 52.2074 218.713C53.7156 219.439 55.2238 219.398 56.7321 218.733C57.8769 218.45 59.0217 218.39 60.1483 218.733C61.1477 219.499 62.1835 219.136 63.2193 219.136C80.5366 219.156 97.8721 219.136 115.189 219.136C115.589 219.076 116.134 219.297 116.334 218.632C117.188 219.539 118.133 219.096 119.024 219.096C124.366 219.136 129.727 219.297 135.069 219.015C136.595 218.934 137.922 220.85 139.448 219.902C141.465 218.632 143.482 218.995 145.517 219.56C146.426 218.914 147.371 219.197 148.316 219.197C166.96 219.318 185.622 219.479 204.266 219.6C212.37 219.64 220.456 219.58 228.561 219.56C232.34 219.943 236.12 220.023 239.9 219.64C240.463 219.943 241.044 219.923 241.608 219.64C245.714 219.781 249.821 220.023 253.946 219.983C257.108 219.963 260.288 220.568 263.45 219.681C263.486 219.681 263.504 219.681 263.541 219.681C263.886 219.761 264.249 219.822 264.594 219.882C268.229 220.508 271.881 220.084 275.534 220.185C283.129 220.407 290.743 219.882 298.339 220.588C299.411 221.476 300.574 221.032 301.682 221.032C336.026 221.052 370.388 221.032 404.732 221.072C405.841 221.072 406.967 220.729 408.039 221.476C408.603 221.072 409.166 221.012 409.747 221.476C413.618 220.971 417.507 221.072 421.377 221.576C421.559 221.919 421.759 221.939 421.941 221.576C423.83 221.133 425.72 221.234 427.61 221.576C427.992 222.141 428.355 222.141 428.737 221.576C428.918 221.576 429.118 221.576 429.3 221.576C430.136 221.496 430.99 221.355 431.826 221.355C442.365 221.395 452.905 221.496 463.426 221.516C470.567 221.516 477.727 221.455 484.868 221.435C492.991 221.718 501.131 221.879 509.254 221.496C512.47 221.919 515.687 221.839 518.885 221.516C522.664 221.899 526.444 221.758 530.224 221.516C530.878 221.597 531.532 221.738 532.186 221.738C550.558 221.637 568.911 221.617 587.282 221.355C591.879 221.294 596.513 221.738 601.092 220.548C602.255 221.718 603.364 219.136 604.527 220.447C607.834 222 611.232 220.387 614.557 221.314C614.721 221.234 614.866 221.133 615.011 221.032C616.065 222.383 617.083 221.213 618.101 220.508L618.064 220.588C618.646 219.681 618.246 218.289 618.628 217.26V217.119C618.228 215.425 618.446 213.65 618.409 211.936L618.391 211.956ZM412.909 211.149C412.909 211.149 412.873 210.988 412.837 210.907C412.837 210.907 412.873 210.887 412.873 210.867C412.873 210.968 412.909 211.149 412.909 211.149ZM413.327 210.423C413.327 210.423 413.182 210.544 413.109 210.585C413.182 210.504 413.255 210.444 413.327 210.423ZM564.077 58.3941C564.077 58.3941 564.113 58.4345 564.132 58.4546C564.095 58.495 564.059 58.495 564.023 58.5555C564.004 58.5353 564.023 58.4546 564.077 58.3941ZM534.076 51.194C534.076 51.194 534.003 51.315 533.967 51.3755C533.967 51.3755 533.967 51.3755 533.967 51.3957C534.003 51.2545 534.076 51.1738 534.131 51.1133C534.112 51.1537 534.094 51.1738 534.076 51.2142V51.194ZM534.149 51.0932C534.149 51.0932 534.167 51.0932 534.185 51.073C534.167 51.1335 534.131 51.1738 534.094 51.194C534.112 51.1537 534.131 51.1335 534.149 51.0932ZM521.701 135.639C521.701 135.639 521.738 135.7 521.774 135.74C521.774 135.74 521.738 135.679 521.701 135.639ZM485.45 87.2147C485.45 87.2147 485.468 87.1946 485.486 87.1744C485.486 87.1744 485.486 87.2147 485.45 87.2147ZM494.481 154.234C494.481 154.154 494.444 154.073 494.444 153.992C494.444 154.073 494.481 154.154 494.499 154.234C494.499 154.234 494.499 154.234 494.481 154.234ZM489.974 142.557C489.974 142.557 489.974 142.557 489.956 142.577C489.956 142.577 489.956 142.577 489.956 142.557H489.974ZM499.587 127.935C499.587 127.935 499.587 127.814 499.605 127.733C499.605 127.733 499.605 127.773 499.641 127.773C499.641 127.814 499.605 127.874 499.587 127.915C499.587 127.915 499.587 127.935 499.587 127.955C499.587 127.955 499.587 127.915 499.587 127.894C499.587 127.894 499.587 127.894 499.587 127.915V127.935ZM506.383 134.752V134.852C506.383 134.852 506.328 134.772 506.292 134.731C506.328 134.731 506.347 134.731 506.383 134.731C506.328 134.651 506.256 134.59 506.201 134.53C506.274 134.59 506.328 134.651 506.383 134.731V134.752ZM494.444 153.367C494.408 153.569 494.408 153.77 494.444 153.972C494.426 153.77 494.408 153.569 494.444 153.367ZM494.499 153.246C494.499 153.246 494.499 153.246 494.517 153.246C494.499 153.286 494.463 153.307 494.444 153.367C494.444 153.327 494.463 153.286 494.481 153.246H494.499ZM497.388 149.354C497.37 149.394 497.352 149.434 497.315 149.475C497.315 149.434 497.352 149.394 497.37 149.354H497.388ZM488.775 171.761C488.775 171.761 488.811 171.801 488.829 171.821C488.829 171.841 488.829 171.861 488.829 171.882C488.793 171.841 488.775 171.801 488.739 171.761C488.739 171.761 488.757 171.761 488.775 171.761ZM503.494 166.96C503.494 166.96 503.53 166.92 503.548 166.88C503.53 166.9 503.512 166.94 503.494 166.96ZM465.007 110.408C465.007 110.408 465.007 110.408 465.025 110.408H465.007ZM558.498 99.6586C558.535 99.7595 558.553 99.8401 558.571 99.941C558.535 99.8401 558.517 99.7595 558.48 99.6586H558.498ZM576.252 52.4243C576.252 52.4243 576.161 52.505 576.107 52.5251C576.143 52.505 576.161 52.4848 576.197 52.4445C576.216 52.4445 576.234 52.4243 576.27 52.4041L576.252 52.4243ZM588.59 110.529C588.59 110.529 588.627 110.469 588.627 110.449C588.627 110.449 588.627 110.469 588.645 110.489C588.608 110.529 588.59 110.59 588.554 110.65C588.554 110.61 588.572 110.57 588.59 110.55V110.529ZM589.19 143.525C589.19 143.525 589.19 143.525 589.208 143.525C589.19 143.565 589.154 143.606 589.135 143.646C589.154 143.606 589.172 143.565 589.19 143.525ZM593.151 164.944C593.151 164.944 593.151 164.964 593.169 164.984C593.169 164.984 593.169 164.964 593.151 164.944ZM593.206 165.024C593.206 165.024 593.242 165.085 593.26 165.105C593.06 164.863 593.169 164.984 593.206 165.024ZM591.461 67.5304C591.461 67.5304 591.461 67.5304 591.48 67.5304C591.48 67.5304 591.479 67.5707 591.461 67.5909V67.5506V67.5304ZM576.088 52.5453C576.088 52.5453 575.907 52.6461 575.816 52.6865C575.925 52.6058 576.052 52.5453 576.161 52.4848C576.125 52.505 576.107 52.5251 576.07 52.5655L576.088 52.5453ZM575.652 52.9083C575.652 52.9083 575.561 53.0092 575.543 53.0898C575.58 53.0293 575.616 52.9688 575.652 52.9083ZM533.731 51.8192C533.731 51.8192 533.658 52.0007 533.622 52.0814C533.658 52.0007 533.695 51.8999 533.731 51.8192ZM259.161 95.8065C259.161 95.7661 259.161 95.7258 259.179 95.6653C259.179 95.7056 259.198 95.746 259.216 95.7863C259.216 95.7863 259.179 95.7863 259.161 95.7863V95.8065ZM227.361 154.234C227.543 153.972 227.707 153.71 227.87 153.407C227.906 153.347 227.925 153.307 227.961 153.246C227.925 153.286 227.906 153.347 227.87 153.387C227.707 153.67 227.525 153.952 227.343 154.214L227.361 154.234ZM228.252 152.742C228.252 152.742 228.27 152.681 228.288 152.661C228.288 152.681 228.27 152.722 228.252 152.742ZM230.923 151.713C230.923 151.713 230.977 151.673 231.014 151.653C231.123 151.592 231.214 151.512 231.323 151.37C231.195 151.572 231.05 151.693 230.923 151.713ZM232.249 149.999C232.249 149.999 232.304 149.938 232.322 149.918C232.377 149.918 232.413 149.918 232.467 149.938C232.449 149.938 232.413 149.959 232.395 149.959C232.34 149.959 232.304 149.959 232.249 149.999ZM232.577 149.938C232.577 149.938 232.667 149.959 232.722 149.979C232.667 149.959 232.631 149.938 232.577 149.938ZM233.049 150.342C233.049 150.342 233.067 150.362 233.085 150.382C233.085 150.382 233.049 150.362 233.049 150.342ZM231.377 151.229V151.29H231.341C231.341 151.29 231.377 151.249 231.395 151.209L231.377 151.229ZM230.305 151.37C230.305 151.37 230.341 151.411 230.36 151.451C230.323 151.411 230.269 151.37 230.232 151.31C230.232 151.31 230.214 151.29 230.196 151.27C230.16 151.229 230.142 151.189 230.105 151.148C230.087 151.128 230.069 151.108 230.033 151.088C229.996 151.048 229.96 151.007 229.942 150.987C229.978 150.987 229.996 151.007 230.033 151.027C230.105 151.108 230.178 151.189 230.251 151.29C230.251 151.29 230.287 151.33 230.305 151.35V151.37ZM306.189 72.4515V72.4918C306.189 72.512 306.189 72.5322 306.189 72.5523C306.189 72.512 306.189 72.4716 306.171 72.4515C306.171 72.4515 306.171 72.4515 306.189 72.4515ZM387.397 108.311C387.397 108.311 387.415 108.271 387.433 108.25C387.433 108.25 387.433 108.291 387.415 108.291L387.397 108.311ZM387.433 108.25C387.433 108.25 387.415 108.291 387.397 108.311C387.36 108.371 387.306 108.412 387.27 108.472C387.488 108.15 387.687 107.807 387.869 107.423C387.869 107.423 387.869 107.444 387.869 107.464C387.724 107.726 387.578 107.988 387.433 108.25ZM398.063 131.908C398.063 131.908 398.19 131.827 398.245 131.787C398.172 131.888 398.118 131.968 398.045 132.049C398.045 132.009 398.045 131.948 398.063 131.908ZM409.966 176.783C409.966 176.783 409.966 176.783 409.947 176.762C409.947 176.762 409.947 176.783 409.947 176.803L409.966 176.783ZM388.905 94.8384C388.905 94.8384 388.941 94.7779 388.959 94.7577C388.941 94.7779 388.923 94.8182 388.905 94.8384ZM209.699 165.468C210.135 164.601 210.589 163.814 211.48 164.621C211.516 164.661 211.552 164.661 211.57 164.702C210.662 165.004 210.08 165.226 209.699 165.488V165.468ZM379.765 43.9132C379.765 43.9132 379.765 43.9334 379.783 43.9536C379.783 43.9536 379.783 43.9536 379.783 43.9334L379.765 43.9132ZM379.946 44.2158C379.946 44.2158 379.837 44.0342 379.783 43.9536C379.783 43.9536 379.783 43.9334 379.765 43.9132C379.837 44.0141 379.892 44.1149 379.946 44.2158ZM260.088 184.003C260.088 184.003 260.088 184.003 260.07 184.003C260.07 184.003 260.07 184.003 260.088 184.003ZM185.676 73.4801V73.5607C185.676 73.5204 185.676 73.5002 185.676 73.4801ZM186.003 91.914C186.003 91.914 186.04 91.9543 186.058 91.9543C186.058 91.9543 186.021 91.9543 186.021 91.9745C186.021 91.9543 186.021 91.9341 186.003 91.8938V91.914ZM186.094 72.4918C186.094 72.4918 186.003 72.6532 185.967 72.7137C186.003 72.6532 186.021 72.5927 186.058 72.5322C186.058 72.5322 186.094 72.512 186.112 72.4918H186.094ZM171.811 128.983C171.811 128.983 171.866 129.024 171.884 129.044C171.866 129.044 171.83 129.004 171.811 128.983ZM174.682 128.923H174.664C174.664 128.923 174.646 128.923 174.628 128.943C174.628 128.903 174.628 128.883 174.628 128.883C174.628 128.883 174.628 128.883 174.646 128.883C174.646 128.883 174.664 128.903 174.682 128.903V128.923ZM173.538 129.891C173.538 129.891 173.538 129.891 173.52 129.871C173.465 129.79 173.392 129.73 173.32 129.649C173.32 129.649 173.32 129.649 173.301 129.629C173.301 129.629 173.32 129.629 173.338 129.649C173.411 129.75 173.483 129.81 173.556 129.891C173.556 129.891 173.556 129.891 173.538 129.891ZM179.025 189.589C179.025 189.589 179.098 189.448 179.135 189.388C179.135 189.388 179.171 189.267 179.189 189.186C179.171 189.267 179.153 189.368 179.153 189.347C179.098 189.428 179.062 189.509 179.007 189.589H179.025ZM186.04 200.944C186.04 200.944 186.021 200.944 186.003 200.944C186.003 200.904 186.003 200.884 185.985 200.843C186.003 200.884 186.04 200.924 186.058 200.944C186.058 200.944 186.058 200.944 186.04 200.944ZM124.221 65.5741C124.221 65.5741 124.257 65.6144 124.293 65.6144C124.293 65.6144 124.257 65.6144 124.221 65.5741ZM83.3713 195.116V195.156C83.2986 194.995 83.2805 194.853 83.2805 194.692C83.2986 194.833 83.3531 194.954 83.3895 195.095V195.116H83.3713ZM83.3713 194.147C83.3713 194.147 83.3713 194.208 83.3531 194.228C83.3531 194.208 83.3531 194.168 83.3713 194.127C83.3713 194.127 83.3713 194.127 83.3713 194.147ZM16.2099 115.612C16.2099 115.612 16.119 115.652 16.0645 115.672C16.0645 115.672 16.0645 115.571 16.1009 115.491C16.1372 115.531 16.1735 115.571 16.2281 115.612H16.2099ZM83.3168 95.4434L83.2986 95.5039C83.2986 95.5039 83.2986 95.4838 83.2986 95.4636C83.2986 95.4636 83.3168 95.4636 83.335 95.4636L83.3168 95.4434ZM97.018 100.687C97.018 100.687 96.9817 100.748 96.9635 100.768C96.9635 100.748 96.9999 100.728 97.018 100.687ZM95.8369 161.011C95.8369 161.011 95.8369 161.031 95.8369 161.051C95.8369 161.051 95.8369 161.011 95.8551 161.011H95.8369ZM10.1952 61.7017C10.1952 61.7017 10.1952 61.7219 10.2133 61.7421C10.2133 61.7421 10.2133 61.7421 10.2315 61.7421C10.2315 61.7421 10.2315 61.7622 10.2133 61.7824C10.2133 61.7824 10.2133 61.7824 10.2133 61.7421H10.177C10.177 61.7421 10.177 61.7219 10.177 61.7017H10.1952ZM67.4168 188.278C67.4168 188.278 67.4532 188.339 67.4714 188.379C67.4714 188.379 67.435 188.319 67.4168 188.278ZM352.144 208.951C352.144 208.911 352.181 208.891 352.181 208.85C352.181 208.911 352.144 208.951 352.144 208.991C352.144 208.991 352.144 208.971 352.144 208.951ZM412.8 210.827C412.8 210.827 412.837 210.827 412.873 210.786C412.873 210.786 412.873 210.827 412.873 210.867C412.873 210.867 412.837 210.887 412.837 210.907C412.837 210.867 412.818 210.827 412.818 210.827H412.8ZM413.872 209.98C413.872 209.98 413.872 209.959 413.891 209.939C413.891 209.939 413.891 209.959 413.872 209.98ZM427.61 202.154C427.61 202.154 427.61 202.134 427.61 202.114V202.154ZM606.126 187.109C606.144 187.189 606.18 187.27 606.216 187.331C606.216 187.331 606.217 187.331 606.198 187.331C606.198 187.371 606.235 187.391 606.253 187.431C606.235 187.411 606.198 187.391 606.18 187.371C606.18 187.371 606.18 187.351 606.18 187.331H606.216C606.216 187.331 606.162 187.189 606.144 187.109H606.126ZM14.6653 201.872C14.6653 201.872 14.6108 201.832 14.5745 201.811C14.6108 201.811 14.6471 201.852 14.6653 201.872ZM175.755 201.166C175.755 201.166 175.773 201.206 175.791 201.227C175.791 201.206 175.755 201.186 175.755 201.166ZM404.478 191.122C404.478 191.122 404.478 191.263 404.478 191.344C404.46 191.284 404.441 191.223 404.423 191.163C404.423 191.163 404.46 191.142 404.46 191.122H404.478ZM413.673 210.202C413.673 210.202 413.582 210.262 413.545 210.302C413.6 210.282 413.636 210.242 413.673 210.202ZM531.896 197.274C531.896 197.274 531.896 197.274 531.896 197.294C531.896 197.294 531.896 197.253 531.877 197.253L531.896 197.274ZM34.5993 212.823C34.5085 212.985 34.4176 213.146 34.3268 213.307V213.287C34.4176 213.126 34.5085 212.965 34.5993 212.803V212.823ZM34.3086 213.348C34.3086 213.348 34.3268 213.307 34.3449 213.287C34.3449 213.328 34.3086 213.348 34.2904 213.388C34.2904 213.388 34.2904 213.368 34.3086 213.348ZM34.5448 212.944C34.5448 212.944 34.5812 212.884 34.5993 212.844C34.5812 212.884 34.563 212.904 34.5448 212.944ZM41.7225 215.486C41.7225 215.486 41.7407 215.486 41.7589 215.506C41.7589 215.506 41.777 215.546 41.7952 215.566C41.777 215.546 41.7589 215.506 41.7225 215.486ZM41.3046 215.203C41.1774 215.143 41.0683 215.042 40.9593 214.901C40.9593 214.901 40.9957 214.921 41.0138 214.941C41.1047 215.042 41.1955 215.143 41.3046 215.203ZM40.9957 214.921C40.9957 214.921 40.9593 214.901 40.9411 214.881C40.9048 214.84 40.8866 214.8 40.8503 214.76C40.8866 214.82 40.9411 214.881 40.9775 214.921H40.9957ZM240.935 41.13C240.845 41.3518 240.735 41.493 240.626 41.5939C240.735 41.4527 240.826 41.3115 240.935 41.13ZM231.414 204.494C231.414 204.494 231.559 204.454 231.632 204.393C231.65 204.393 231.668 204.373 231.686 204.353C231.777 204.272 231.868 204.191 231.959 204.111C231.795 204.252 231.632 204.433 231.45 204.554C231.45 204.554 231.432 204.534 231.395 204.494H231.414ZM236.12 201.408C235.975 201.206 235.866 200.944 235.811 200.622C235.866 200.944 235.993 201.206 236.138 201.408H236.12Z" fill="#EBD4CA"/>
</svg>
