<svg width="325" height="135" viewBox="0 0 325 135" fill="none" xmlns="http://www.w3.org/2000/svg">
<path d="M324.016 53.292C324.016 53.292 323.81 55.1757 323.09 54.7648C322.473 54.4223 322.85 54.6278 322.438 56.5457C322.13 57.8814 321.444 58.0527 320.106 57.265C318.837 56.5457 318.22 60.0734 316.848 58.9089C315.51 57.7102 315.579 60.9981 314.618 60.2104C314.516 60.1419 314.344 60.0392 314.173 60.0049H314.138C313.418 59.7652 312.835 60.5872 312.835 60.5872C312.835 60.5872 313.555 61.9229 311.566 62.0941C309.474 62.2654 308.891 60.8611 308.788 59.9707C308.719 59.8337 308.651 59.7309 308.582 59.5597C307.965 58.2924 307.382 59.8679 306.799 58.7377C306.25 57.539 305.358 59.3542 305.015 58.6007C304.603 57.8815 303.197 59.8679 302.683 59.3199C302.168 58.7719 301.928 60.5187 301.448 60.0734C300.968 59.6967 300.556 61.2721 299.768 60.9296C298.979 60.5187 299.527 61.6489 298.499 61.5119C297.401 61.3406 297.572 62.6421 296.887 62.1284C296.235 61.6146 296.029 63.3271 295.275 62.6421C294.623 61.9914 294.177 62.1969 293.457 63.4641C292.737 64.7656 292.736 63.7038 291.879 62.5394C291.022 61.4434 290.747 63.1901 289.89 62.5394C289.032 61.8886 288.758 63.0874 288.278 62.5394C287.729 61.9914 287.832 62.7791 287.215 62.6764C286.597 62.6079 286.151 62.3681 285.603 61.9571C285.122 61.5804 285.26 62.7449 284.265 61.9914C283.305 61.1694 283.545 63.1216 282.893 62.7449C282.276 62.3339 281.693 63.9436 281.144 63.3956C280.629 62.8476 280.732 64.9711 279.806 63.5668C279.772 63.4983 279.738 63.4641 279.669 63.4298C279.909 64.0463 280.698 66.1356 279.052 66.3753C279.052 66.3753 278.983 66.3753 278.949 66.3753C277.886 66.5123 278.503 67.5055 276.96 66.1698C275.451 64.8341 276.377 67.437 275.725 66.9233C275.073 66.4095 275.896 68.4303 274.113 67.2658C272.364 66.1356 273.358 68.122 272.81 67.6083C272.672 67.4713 272.569 67.4713 272.432 67.6083C272.089 67.8823 271.609 68.944 271.129 68.533C270.477 68.0193 270.855 70.2455 270.203 69.7317C269.551 69.218 270.237 70.9305 269.551 70.588C268.9 70.177 268.557 72.2319 267.699 71.41C266.842 70.588 266.945 72.0949 266.945 72.0949L265.71 73.1909C265.71 73.1909 265.093 74.1499 264.235 73.3622C263.378 72.5402 263.618 74.6294 261.491 74.2869C259.365 73.9444 261.08 74.4924 260.017 73.0882C258.919 71.6839 259.296 73.4307 258.439 72.5402C257.581 71.547 257.924 73.1909 257.376 72.3347C256.827 71.5127 255.524 73.4649 255.524 73.4649C255.524 73.4649 254.666 74.6637 254.22 74.6979C253.74 74.7664 253.226 75.5199 252.265 75.0404C251.339 74.5266 252.06 75.5541 251.545 74.8691C250.996 74.1499 250.516 75.2801 249.35 75.2801C248.15 75.2801 248.938 75.4514 248.15 74.1842C247.395 72.9169 249.179 75.3144 245.44 73.6362C241.633 72.0264 243.657 72.6087 243.451 70.999C243.279 69.3207 242.148 69.903 241.736 70.451C241.359 70.9305 241.016 70.451 240.158 69.4577C240.158 69.3892 240.158 69.3207 240.09 69.2865C239.198 68.1905 238.786 69.7317 237.963 68.944C237.14 68.122 236.866 69.6632 235.974 68.5673C235.082 67.437 234.945 68.533 234.671 69.0125C234.465 69.4577 233.95 69.4235 233.916 68.8412C233.847 68.1905 232.201 69.492 231.447 68.0535C230.692 66.615 230.898 68.4645 230.624 67.711C230.383 66.9918 229.903 67.8138 228.909 67.3C227.983 66.752 227.845 68.2933 226.576 67.711C225.342 67.0945 225.959 68.7043 224.793 68.0878C223.695 67.4713 224.621 68.6015 223.181 68.122C221.775 67.6768 222.529 68.944 221.569 68.6358C220.643 68.2933 221.226 69.2523 220.403 68.7728C219.58 68.259 220.334 69.5262 219.477 68.8755C218.654 68.2248 218.619 70.0057 217.35 69.5947C216.047 69.1495 216.836 70.588 215.91 69.9372C214.915 69.2865 215.498 70.588 215.052 70.4852C214.606 70.4167 214.161 71.684 212.652 71.5127C211.142 71.4442 212.652 71.5127 212.137 71.136C211.657 70.7592 211.554 72.1292 210.354 71.0332C209.187 69.9715 210.011 71.8552 208.742 70.9647C207.404 70.04 208.021 71.4785 206.752 71.0332C205.518 70.588 206.752 71.0332 205.037 70.04C203.254 69.0467 204.283 69.9715 204.283 69.9715C204.283 69.9715 203.631 70.4167 202.534 70.2112C202.499 70.2112 202.431 70.177 202.362 70.2112C202.019 70.1085 200.922 70.2112 200.579 70.2455C200.339 70.5195 199.961 70.314 200.03 70.8962C200.167 71.7867 199.721 70.5537 199.207 71.6497C198.692 72.6429 197.698 70.588 197.595 71.7867C197.492 72.9854 197.698 73.9444 196.635 73.0197C195.64 72.0264 195.503 71.3415 195.4 72.5059C195.4 72.9512 195.194 73.2594 194.954 73.5677C194.611 74.0129 194.165 74.1157 194.165 74.1157C194.165 74.1157 193.548 73.8759 193.411 74.6636C193.342 75.5199 192.896 74.1499 192.896 75.6569C192.759 77.1981 191.456 78.1571 190.975 77.9173C190.495 77.7803 190.255 76.5816 189.878 77.6776C189.535 78.7051 187.717 77.7461 187.443 78.1228C187.1 78.5681 186.414 77.3351 186.414 77.3351C186.414 77.3351 185.899 75.5541 185.419 77.2666C184.836 78.9106 184.493 78.6366 183.979 78.2598C183.464 77.8488 182.95 76.8899 182.47 78.6023C181.955 80.3148 181.098 79.7668 180.892 80.0751C180.652 80.349 180.137 79.9723 180.137 79.9723C180.137 79.9723 178.834 78.1571 179.108 79.1846C179.28 80.1435 178.217 79.3216 178.285 79.938C178.217 79.8695 177.942 79.938 177.634 80.486C176.776 81.7875 176.433 79.4586 175.953 81.171C175.439 82.8835 174.993 82.8835 174.547 82.8835C174.067 82.7465 173.655 81.171 173.655 81.171L172.523 82.3698L171.46 81.7875C171.46 81.7875 170.843 80.2805 170.26 81.2395C169.814 82.1643 169.917 80.1778 169.128 82.0958C168.339 84.048 167.31 83.2602 166.178 83.089C165.012 82.7807 164.395 83.0205 164.292 84.6302C164.189 86.3084 160.896 83.3287 161.685 84.2535C162.44 85.2124 161.068 84.1507 161.034 84.6645C160.896 85.281 159.319 84.185 159.525 85.3837C159.799 86.5139 158.496 84.6302 158.873 85.9317C159.284 87.4044 156.746 84.8015 157.398 86.6509C158.118 88.4661 156.986 88.4319 156.403 87.9866C155.82 87.5414 155.717 86.7537 155.477 87.3702C155.169 87.9182 151.705 86.5482 152.219 88.1236C152.836 89.7334 151.602 88.3291 151.773 89.1511C152.013 90.0074 152.116 89.2881 152.013 90.0074C151.842 90.6924 150.676 90.4184 150.676 90.4184C150.676 90.4184 150.779 90.7266 150.539 91.3431C150.367 91.9938 150.093 90.5211 149.818 91.8226C149.544 93.2268 149.098 91.9938 149.098 92.9186C149.167 93.9118 148.481 92.3363 148.343 93.6036C148.343 94.8708 148.241 94.22 147.074 93.9118C145.84 93.5693 146.354 92.8843 145.84 93.5693C145.291 94.2885 144.296 93.3296 144.125 93.5351C144.022 93.8091 144.125 91.8226 143.267 92.9871C142.376 94.1515 141.347 92.3363 141.175 92.6788C140.969 93.0898 140.386 92.6788 140.181 93.0898C139.975 93.5008 139.666 93.2953 139.666 93.6378C139.666 93.946 138.637 93.2953 138.672 93.8775C138.672 94.357 137.265 93.2953 137.403 93.7405C137.54 94.1858 137.334 93.6721 137.094 94.4255C136.819 95.2475 136.339 95.1448 136.339 95.1448C136.339 95.1448 135.825 95.2133 135.722 95.4873C135.653 95.7613 134.967 95.59 134.967 96.0353C134.899 96.5832 132.91 95.864 133.355 96.8915C133.767 97.8847 133.595 98.2272 133.527 98.2957C133.527 98.2957 132.807 98.33 133.012 99.2889C133.15 100.316 132.669 99.7342 132.738 100.111C132.772 100.488 132.121 99.3917 132.018 100.111C131.915 100.864 131.606 99.9054 131.572 100.556C131.469 101.275 131.4 100.316 131.229 101.104C131.16 101.858 131.195 100.727 130.783 101.549C130.509 102.269 130.029 102.577 129.308 102.269C129.171 102.269 129.068 102.303 128.965 102.269C128.828 102.166 128.622 102.132 128.451 102.029C128.176 101.789 127.971 101.755 127.902 101.823L127.833 101.892C127.833 101.892 127.833 102.029 127.833 102.234C127.833 103.022 126.907 102.097 126.976 102.611C126.942 103.159 126.256 102.988 126.016 103.262C125.776 103.536 125.536 103.125 125.398 103.467C125.261 103.81 124.987 103.262 124.61 103.913C124.267 104.461 123.581 103.125 123.478 104.187C123.238 105.283 122.689 104.152 122.346 105.043C122.003 105.796 121.591 104.803 121.351 105.557C121.077 106.379 120.7 105.385 120.459 106.276C120.322 107.098 118.162 107.029 118.402 107.954C118.642 108.81 117.407 106.618 117.578 108.845C117.819 110.968 117.201 108.434 116.378 110.557C116.241 110.899 116.207 111.105 116.035 111.31L115.967 111.379C115.212 112.406 114.252 111.653 113.566 112.543C112.708 113.639 112.297 111.927 111.954 112.715C111.645 113.4 111.336 112.578 111.199 113.057C111.062 113.537 110.513 110.934 110.17 112.749C109.827 114.667 109.724 112.406 109.313 113.263C108.97 114.016 107.564 112.064 106.809 113.674C106.054 115.283 104.785 112.852 104.237 114.598C103.791 116.379 102.796 114.804 102.419 115.9C102.282 115.9 102.385 115.968 102.316 116.037C101.904 117.441 100.224 115.729 99.8123 116.311C99.4007 116.825 98.4404 115.386 97.8231 116.756C97.2057 118.023 96.2797 116.516 95.9367 117.064C95.5594 117.715 95.0792 116.414 94.4962 117.475C94.0503 118.503 92.8842 118.092 92.6441 118.366C92.404 118.674 91.1007 118.434 90.5177 117.681C89.9689 116.893 90.0032 115.9 89.523 116.825C89.0086 117.818 88.5284 116.174 88.2883 116.893C88.0139 117.715 87.4652 118.606 86.8478 117.544C86.1962 116.448 85.5445 116.071 85.3044 116.551C85.03 117.064 84.2412 115.044 84.0354 115.934C83.761 116.893 82.8007 115.592 82.7321 116.105C82.5949 116.585 82.2176 114.907 81.8747 116.14C81.5317 117.373 81.1201 116.242 81.0858 117.03C81.0858 117.749 81.0172 119.393 79.5424 118.297C78.0676 117.167 77.656 117.099 77.5874 117.51C77.5189 117.921 77.1759 116.825 76.6271 118.16C76.0098 119.565 75.9755 118.229 75.3581 119.496C74.7064 120.832 73.5403 117.304 73.506 119.359C73.3688 121.346 72.5114 118.845 72.2027 119.53C71.9283 120.352 71.1738 119.222 70.6936 120.147C70.2821 120.969 69.6647 120.284 69.4932 120.489C69.2531 120.798 69.0816 120.421 68.8758 120.729C68.7044 120.935 67.5725 119.976 67.5039 120.729C67.4011 121.448 66.5779 120.387 66.6465 121.106C66.6465 121.894 66.7494 121.859 65.9949 121.654C65.7205 121.585 65.549 121.311 65.4461 121.003V121.072C65.4461 121.072 65.3775 121.517 65.4461 121.928C65.9605 124.599 64.5886 123.949 64.3486 123.503C64.1771 123.264 64.0056 122.887 63.8341 122.784C63.6969 122.544 63.594 122.51 63.5254 122.921C63.5254 123.092 63.4568 123.332 63.3882 123.366C63.2853 123.538 63.1481 123.401 63.1481 123.401C63.1481 123.401 62.2907 122.407 62.2564 123.195C62.2221 123.846 61.9134 122.579 61.639 123.538C61.3647 124.359 60.6787 124.291 60.1643 123.777C59.6155 123.264 59.6498 122.476 59.6155 123.264C59.4783 124.086 58.3122 123.914 58.3122 123.914C58.3122 123.914 57.1118 123.195 56.9403 123.435C56.8374 123.709 55.8084 123.846 55.4312 124.496C55.1225 125.181 54.1622 123.401 53.6477 124.428C53.2018 125.353 52.6874 124.599 52.6874 124.599C52.6874 124.599 52.6188 122.716 51.8299 124.051C51.0068 125.387 51.2126 123.914 50.4923 124.873C49.8407 125.729 49.5663 124.599 49.2576 124.976C48.9832 125.318 48.4345 124.12 48.1601 125.044C47.8514 126.072 47.1654 125.558 47.0626 125.832C46.994 126.106 45.7249 125.181 45.5878 125.969C45.4849 126.688 44.696 125.318 44.6274 126.277C44.5588 127.271 43.9415 126.003 43.8386 126.723C43.5985 127.476 42.501 126.38 42.501 126.962C42.501 127.545 42.6382 128.778 41.4377 127.887C40.2716 126.997 40.1344 125.832 39.9972 127.236C39.9972 128.641 38.6253 127.819 38.5224 128.435C38.4538 128.983 37.4935 128.127 37.322 128.949C37.1162 129.805 36.396 127.442 36.3274 128.88C36.2931 130.49 35.2642 129.223 35.127 130.182C34.9555 131.209 35.2299 130.045 34.7154 131.004C34.2695 131.929 34.0981 130.182 33.6865 131.141C33.2406 132.168 33.2749 130.285 32.8976 131.244C32.4518 132.271 32.3489 131.072 32.246 131.792C32.1431 132.408 31.3885 131.141 31.1142 132.1C30.8055 133.127 29.9137 132.1 29.9137 132.1C29.9137 132.1 28.9191 131.929 28.7133 132.34C28.5075 132.785 28.5075 131.244 27.8902 132.203C27.2385 133.196 26.7584 131.689 26.484 132.648C26.2096 133.47 25.6951 131.107 24.9063 132.477C24.0831 133.812 23.2943 132.408 22.8484 133.333C22.4026 134.36 22.2311 132.751 21.4765 133.436C20.7563 134.052 20.9964 132.716 19.8988 133.401C19.3501 133.812 19.11 133.847 18.8013 133.949C18.4926 134.052 18.2182 134.086 17.8753 134.395C17.1207 135.08 16.7434 135.114 16.3662 134.84C16.0918 134.6 16.3662 133.812 15.6116 134.6C14.8914 135.354 14.2054 134.6 14.2054 134.6C14.2054 134.6 13.7939 133.127 13.005 133.881C12.1476 134.737 12.1133 134.121 11.2558 134.532C10.4327 134.943 10.124 134.463 10.124 134.463C10.124 134.463 9.64384 132.956 9.09508 131.381C8.44342 129.839 8.37483 129.326 8.92359 129.052C9.54095 128.709 8.10044 128.435 8.7178 128.058C9.33516 127.853 8.44342 127.408 8.85499 126.997C9.26656 126.62 8.88929 125.866 9.06078 125.661C9.23227 125.421 8.88929 125.284 8.82069 124.77V124.633L8.7521 124.565C8.7521 123.983 9.02648 123.264 9.40376 122.51C9.74673 121.757 9.84962 121.928 9.09508 121.243C8.34053 120.421 7.20871 120.387 8.23764 119.667C9.19797 119.017 7.99755 118.914 8.34053 118.571C8.7864 118.332 8.44342 118.743 8.47772 117.647C8.54631 116.653 8.03185 116.859 8.06615 115.009C8.06615 113.297 7.55168 110.797 8.85499 109.29C10.1583 107.749 11.05 107.372 10.6042 103.193C10.0554 99.0835 9.40376 97.6792 10.0897 97.0285C10.8443 96.3093 9.81533 95.7613 10.2955 95.5558C10.8443 95.4188 9.26656 95.3845 10.2955 94.631C11.393 93.8091 9.95252 93.535 10.5699 92.8843C11.1529 92.2678 11.2215 92.8158 10.3298 91.5486C9.57524 90.2814 8.58061 89.2881 9.40376 88.5004C10.2612 87.6784 7.79177 87.1647 9.40376 86.5482C11.1186 86.0002 10.1583 84.9385 10.124 83.9452C10.124 82.9177 10.467 82.7122 9.98681 81.4108C9.60954 80.075 9.33516 79.5271 9.95252 79.0476C10.5356 78.5681 9.12937 77.8488 10.7757 76.4446C12.4219 75.0404 14.96 74.4582 14.0682 73.4992C13.2794 72.5744 10.0897 68.8412 10.7071 67.711C11.2901 66.6493 10.3641 66.1698 10.5699 65.3136C10.6385 64.4573 10.0211 63.2929 10.0211 63.2929C10.0211 63.2929 9.47235 61.9229 9.60954 61.7174C9.78103 61.4776 8.7521 60.5872 9.26656 60.3132C9.74673 60.0049 9.06078 59.6967 9.33516 59.3542C9.57524 59.0459 8.58061 58.5322 8.92359 58.0869C9.26656 57.6417 7.48309 57.5732 8.23764 56.4087C9.06078 55.1758 6.83143 55.6552 7.62028 54.9018C8.37483 54.1825 8.47772 56.032 8.37483 54.1825C8.37483 52.3673 8.03185 52.196 8.23764 51.8878C8.47772 51.6138 8.64921 50.3466 8.7178 50.0726C8.82069 49.7986 8.34053 49.2164 8.34053 49.2164C8.61491 48.7369 7.00292 48.6684 8.03185 47.9491C9.06078 47.3326 9.16367 47.4011 8.13474 46.7504C7.20871 46.1339 7.00292 45.0722 7.3116 44.8324C7.48309 44.6269 6.69424 42.8802 7.00292 42.5377C7.41449 42.1267 6.28267 42.5377 7.00292 41.613C7.65458 40.7568 6.59135 38.6675 6.59135 38.6675C7.58598 38.2566 8.03185 37.3661 7.68887 37.0578C7.3116 36.7838 6.07688 35.9618 6.38556 35.7221C6.69424 35.4824 5.63102 35.4824 5.97399 35.0714C6.31697 34.6261 5.52812 34.1466 5.69961 33.9411C5.97399 33.7014 5.8711 33.2561 5.8711 33.2561C5.8711 33.2561 4.60209 31.5779 5.01366 31.3382C5.45953 31.0984 6.41986 31.1669 5.11655 29.66C3.81324 28.2215 4.08762 27.3653 4.3963 27.1598C4.63638 26.9885 3.71035 26.9885 4.63638 25.9268C5.56242 24.8993 4.362 24.2143 4.362 24.2143C4.362 24.2143 4.53349 21.7141 3.19588 21.4744C1.85828 21.1319 2.20125 20.3784 2.20125 20.3784C2.20125 20.3784 0.589263 20.6524 1.34381 19.9674C2.09836 19.1454 0.657858 19.2139 1.00083 18.9057C1.34381 18.5974 0.0747984 18.4262 0.554965 17.9809C1.03513 17.5357 -0.371071 17.3644 0.48637 16.8849C1.41241 16.3027 -0.0280945 15.5835 0.554965 15.4465C1.10373 15.3095 1.24092 15.2752 0.657858 13.7682C0.0747984 12.4325 -0.336773 12.227 0.383477 11.8503C1.17232 11.4393 0.589263 11.4393 1.03513 10.9941C1.5153 10.5488 1.92687 10.7543 1.17232 9.58983C0.554965 8.42535 0.657858 8.15135 0.657858 8.15135L1.72108 7.22662C1.72108 7.22662 1.06943 7.19237 1.481 6.81563C1.58389 6.67863 1.61819 6.47313 1.58389 6.19914C1.61819 6.02789 1.61819 5.78814 1.65249 5.58265C1.65249 4.86341 1.58389 4.10992 1.58389 4.10992C1.58389 4.10992 -0.67975 3.90443 0.589263 3.01395C1.85828 2.12346 0.897941 1.84947 1.481 1.40422C1.99547 0.993232 1.99547 0.479491 1.99547 0.410993C1.99547 0.410993 4.3963 0 12.7306 0C15.2344 0.0684988 18.3211 0.102748 22.1625 0.239746C38.3167 0.650738 293.628 7.22662 303.918 8.15135C304.672 8.21985 305.118 8.28835 305.118 8.28835C305.118 8.28835 306.113 10.3091 306.318 11.0283C306.387 11.2338 306.421 11.4735 306.456 11.679C306.456 11.7475 306.456 11.7818 306.456 11.8503C306.524 12.3983 306.524 12.8778 306.524 12.8778V14.0765L306.661 15.104C306.661 15.104 307.107 16.5767 307.176 17.0219C307.244 17.5014 307.176 18.1179 309.645 18.8372C312.115 19.6249 308.376 20.6524 309.268 20.5496C310.125 20.4469 310.331 22.2278 309.68 23.8376C308.959 25.4473 310.331 24.2486 311.497 25.4473C312.801 26.783 312.355 26.235 311.806 27.9817C311.257 29.6942 311.909 28.9065 313.212 29.4545C314.481 30.071 313.727 31.2354 314.858 30.9272C316.059 30.6532 315.167 32.0917 316.299 31.6807C317.499 31.2012 316.539 33.5986 317.808 33.0164C319.077 32.3657 318.254 34.0096 319.111 34.6604C319.935 35.3111 319.249 35.9961 319.66 35.6194C320.106 35.3111 319.866 36.0988 320.209 35.4481C320.62 34.7289 320.895 36.9893 320.895 36.9893L321.169 38.3593V38.6333C321.169 38.6333 321.581 40.5513 321.101 41.202C320.723 41.6815 321.169 42.6747 321.169 43.257C321.169 43.531 321.032 43.7022 320.792 43.805C319.935 44.0789 322.232 44.7297 322.713 45.1064C323.261 45.5517 323.433 46.2367 323.433 46.2367C323.433 46.2367 325.011 47.7436 323.433 47.1614C321.855 46.6134 324.839 49.3534 324.976 50.2096C325.182 50.9973 323.982 53.155 323.982 53.155L324.016 53.292Z" fill="black"/>
</svg>
