<svg width="176" height="90" viewBox="0 0 176 90" fill="none" xmlns="http://www.w3.org/2000/svg">
<path d="M33.9823 0.274033C34.7256 0.444095 35.0016 -0.384958 35.8086 0.231518C36.4032 0.677931 37.2102 1.25189 37.8473 1.57076C38.0597 1.74082 38.272 1.84711 38.4207 1.91088C38.9303 2.03843 42.859 3.6115 44.6004 4.18546C46.278 4.75942 46.6603 3.95163 47.5734 4.24924C48.4866 4.61062 47.7646 5.46093 48.614 4.972C49.4422 4.48307 48.9325 4.69565 49.5696 4.86571C50.1642 5.09955 49.3148 5.56722 50.2704 5.46093C51.226 5.35464 50.3978 5.71602 51.3747 5.65225C52.3516 5.58848 52.2666 5.90734 52.755 5.99237C53.1798 6.03489 52.394 6.3325 53.4134 6.60885C54.4327 6.92772 54.4752 7.4379 54.4752 7.4379L54.4327 8.07564C54.4327 8.07564 54.3902 8.67085 54.6238 8.88343C54.6875 8.92595 54.8149 8.9472 54.9636 8.88343C55.6007 8.69211 55.2397 9.43613 55.8343 9.43613C56.3652 9.43613 56.2378 9.84003 56.5988 9.84003C57.0023 9.84003 56.5988 10.1802 57.1084 10.0314C57.5756 9.88255 57.5332 10.8179 57.8517 10.7329C58.2127 10.5628 57.4057 11.5619 58.4251 11.073C59.4232 10.5415 59.6355 11.6257 59.6355 11.6257C59.6355 11.6257 59.3382 12.0083 59.5931 12.0508C59.8267 12.0934 60.039 12.7311 60.039 12.7311C60.039 12.7311 61.4406 14.2616 61.9715 13.0074C61.9715 12.8799 62.0352 12.8161 62.1414 12.7736C62.1414 13.0074 62.0352 13.964 62.6723 13.5814C63.5855 12.9649 62.6723 12.8374 63.8191 13.5814C64.9658 14.3254 63.3094 14.1554 64.7747 14.623C66.3037 15.0694 65.2843 15.1545 65.2843 15.1545C65.2843 15.1545 66.155 15.5796 66.5797 15.4521C66.7284 15.4096 66.7921 15.3883 66.8133 15.4521C66.8133 15.4521 66.9195 15.4096 67.0682 15.3245C67.5991 14.9844 67.2805 15.6009 67.8964 15.4096C68.5759 15.197 67.9389 15.5584 68.6609 15.4733C69.4041 15.4308 68.9157 16.0898 69.5528 15.941C70.2111 15.7922 69.5103 16.7701 70.4872 16.3449C71.4641 15.9198 71.3579 16.3449 71.6976 16.1536C72.0799 15.9198 72.0799 16.6213 72.3984 16.3874C72.6745 16.1323 73.2054 17.1314 73.5877 16.6638C73.885 16.3449 74.0124 16.7063 74.2247 16.6638C74.2672 16.6638 74.3734 16.6213 74.4159 16.5362L74.522 16.4937H74.5645C75.0105 16.4512 76.136 17.259 76.136 17.259C76.136 17.259 76.497 17.6629 76.9217 16.9614C77.3677 16.1961 77.2615 16.9614 77.665 15.9835C78.1109 14.9844 78.1747 15.7709 78.8117 15.1757C79.4488 14.623 79.4913 15.7072 79.916 15.1757C80.3195 14.6018 80.4257 15.3033 80.7867 15.1757C81.1052 15.0694 81.4238 15.7284 81.6786 15.6434C81.891 15.5796 81.9759 16.4299 82.2945 15.7497C82.6767 15.112 82.8254 15.2395 83.0802 15.282C83.3138 15.3245 84.0995 15.9623 84.0995 15.9623C84.0995 15.9623 83.8872 16.7701 84.6941 15.6009C85.5011 14.4317 85.8197 15.6647 86.0533 15.5371C86.3506 15.3883 85.9895 15.7284 86.5842 15.6009C87.1363 15.4946 87.3487 15.4733 87.3487 15.4733C87.3487 15.4733 87.6672 15.5584 88.5804 15.3883C89.5147 15.2182 89.2387 15.8135 89.6209 15.1757C89.9819 14.4955 89.536 15.6647 90.6615 15.3671C91.787 15.0694 90.5765 16.1961 91.9781 15.4946C93.4222 14.7506 93.7407 15.2395 93.7407 15.2395C93.7407 15.2395 94.1017 15.3033 94.3778 15.0482C94.6539 14.7931 94.3141 15.8135 95.0149 15.4308C95.652 15.0694 95.5246 15.6221 95.8643 15.3458C96.2466 15.0482 96.1192 15.6221 96.374 15.3033C96.6288 14.9844 97.1173 15.2608 97.3296 15.1757C97.542 15.112 98.1791 15.8347 98.3277 15.7922C98.4764 15.6859 99.1347 16.9401 99.3895 16.0473C99.5807 15.1757 100.175 15.8135 100.345 15.7497C100.494 15.7072 101.301 15.6434 101.301 15.6434H101.343C101.343 15.6434 101.598 15.4946 101.726 15.5584C102.044 15.6859 102.023 14.6655 102.872 15.7284C103.658 16.7701 102.872 17.174 103.7 17.1527C104.571 17.174 104.507 18.1093 104.847 17.7267C105.251 17.3653 104.932 18.1731 105.357 17.5141C105.76 16.9189 105.357 17.7479 105.909 17.4503C106.525 17.1952 105.697 17.8542 106.631 17.5141C107.565 17.174 107.396 18.088 107.926 17.5779C108.033 17.5353 108.075 17.4716 108.181 17.4503C108.245 17.4928 108.415 17.4503 108.946 17.3228C110.454 16.9826 111.324 17.5141 111.324 17.5141C111.324 17.5141 111.749 17.3865 111.961 16.9614C112.11 16.515 112.62 16.3024 112.62 16.3024C112.62 16.3024 113.129 17.5991 113.618 16.3449C114.042 15.112 114.297 15.3245 114.488 15.0269C114.68 14.6868 114.722 15.197 115.147 14.7081C115.508 14.1979 115.019 14.1128 115.996 14.0916C116.994 14.1341 116.4 13.5176 116.994 13.6027C117.61 13.7089 116.931 13.964 117.759 13.4326C118.566 12.9011 118.821 12.7523 119.585 12.8161C120.35 12.8799 119.776 11.2005 120.435 12.0296C121.114 12.9224 121.008 11.4556 121.518 12.3272C122.027 13.22 122.367 12.0721 122.686 12.1996C123.089 12.3697 124.023 12.0296 124.023 12.0296C124.023 12.0296 123.599 11.0092 124.384 11.3493C125.234 11.6682 125.022 11.3918 125.722 11.2218C126.423 11.073 127.018 10.7116 127.018 10.7116C127.018 10.7116 126.784 10.9029 126.869 10.988C127.018 10.9454 127.273 10.7966 127.803 10.4778C129.417 9.52116 128.717 8.52205 129.417 9.52116C130.161 10.4565 129.863 10.2014 130.479 10.0101C131.116 9.81877 130.522 10.0101 131.265 9.58494C132.029 9.24481 132.051 9.3511 132.454 8.58582C132.794 7.79928 131.753 8.16067 132.794 7.79928C133.835 7.41665 132.858 8.01186 133.835 7.41665C134.854 6.82143 134.302 6.69388 134.79 6.60885C135.236 6.52382 134.472 5.94986 135.321 6.09866C136.234 6.22621 136.128 6.09866 136.659 5.97112C137.147 5.88609 136.553 5.07829 137.572 5.39716C137.572 5.39716 137.572 5.43967 137.636 5.43967C138.57 5.67351 138.039 5.03577 138.804 5.31213C139.653 5.63099 139.929 5.60973 140.63 5.03577C141.31 4.4193 142.032 5.29087 142.032 5.29087C142.032 5.29087 141.734 6.41753 142.478 5.97112C143.2 5.5247 142.371 6.01363 142.902 6.24747C143.476 6.41753 142.732 6.99149 143.348 6.75765C143.2 6.86394 143.263 7.01275 144.155 7.14029C145.96 7.39539 145.493 7.54419 145.493 7.54419C145.493 7.54419 145.982 7.86306 146.619 7.65048C147.192 7.48042 147.192 8.7984 147.787 8.45828C148.339 8.18192 149.125 8.50079 149.125 8.50079C149.125 8.50079 149.252 8.50079 149.443 8.58582C150.123 8.73463 151.524 8.98972 151.63 8.77714C151.715 8.52205 152.161 8.77714 152.161 8.77714C152.161 8.77714 153.096 9.54242 153.287 9.07475C153.52 8.54331 153.839 8.7984 154.115 8.9472C154.391 9.09601 154.816 8.9472 154.816 8.9472L155.58 9.39362C155.58 9.39362 155.835 8.73463 156.26 8.9472C156.706 9.09601 157.258 11.073 157.555 9.77626C157.895 8.45827 157.407 8.37324 158.065 8.41576C158.744 8.37324 158.277 8.75588 158.936 8.84091C159.169 8.88343 159.254 8.92595 159.254 8.92595L159.615 8.98972C160.443 9.07475 160.21 9.60619 160.571 9.45739C160.634 9.49991 160.698 9.45739 160.911 9.45739C161.654 9.41488 161.165 9.9038 161.802 9.71248C162.44 9.52116 160.974 9.45739 162.44 9.52116C163.862 9.66997 164.011 11.2856 164.499 10.7966C165.052 10.329 164.797 11.2218 165.221 10.9242C165.625 10.5628 165.264 11.2643 165.731 10.8817C166.135 10.4778 165.774 10.8179 166.135 10.4778C166.559 10.1802 167.027 11.4769 167.303 11.2856C167.579 11.0305 167.855 11.9233 168.322 11.6044C168.81 11.2856 168.492 12.5398 169.299 11.9871C169.639 11.7745 169.851 11.7107 169.957 11.6682C170.169 11.6044 170.254 11.6895 170.488 11.4981C170.913 11.2005 170.615 11.7532 171.146 11.5832C171.677 11.4131 171.168 11.8595 171.805 11.6682C172.378 11.4981 171.783 12.9011 172.399 12.476C173.036 12.1146 173.079 13.1988 173.079 13.1988L174.353 13.0287C174.353 13.0287 174.077 13.9853 174.268 14.0491C174.502 14.0916 174.077 14.1766 174.247 14.3467C174.417 14.5167 173.907 14.9206 174.098 15.197C174.289 15.4308 173.886 15.2608 173.907 15.5371C173.886 15.8347 173.482 15.4946 173.716 16.0473L173.78 16.2599C173.865 16.515 173.673 16.4725 173.78 16.7913C173.928 17.259 173.185 17.1527 173.397 17.5991C173.61 18.1093 172.633 18.1306 173.185 18.5982C173.673 19.0872 173.1 18.9171 173.397 19.6399C173.673 20.3626 172.909 21.2342 173.249 21.2555C173.589 21.2555 172.782 21.8082 173.673 22.0633C174.544 22.2546 174.226 22.701 174.587 22.7648C174.948 22.8285 174.289 23.3175 174.374 23.7639C174.438 24.1465 174.077 24.0827 174.332 24.4016C174.629 24.7842 174.544 25.0819 174.544 25.0819L175.033 27.9942C175.033 27.9942 173.928 29.4822 174.735 29.8861C175.563 30.3325 174.82 30.5451 175.011 30.6089C175.202 30.6726 174.693 31.0553 175.096 31.0553C175.436 31.0128 174.863 31.5867 175.181 31.7143C175.479 31.9056 174.693 32.5646 175.139 32.5433C175.648 32.5008 175.096 32.7772 175.415 33.0323C175.648 33.2448 174.608 33.9676 175.118 33.9251C175.563 33.8401 174.799 34.414 175.118 34.4565C175.351 34.499 174.841 35.4131 174.841 35.4131C174.841 35.4131 174.757 36.4335 174.969 36.5823C175.181 36.7524 174.629 37.1563 174.693 37.1775H174.65C174.502 37.3051 174.268 37.4326 174.65 37.5389C175.351 37.7302 173.801 37.9641 174.778 38.3042C175.755 38.6443 174.926 39.3671 175.202 39.3246C175.479 39.3033 174.99 39.7922 175.118 39.8135C175.33 39.7497 174.969 40.43 174.969 40.43C174.969 40.43 173.928 41.5566 174.65 41.4503C175.372 41.344 174.841 41.8542 175.139 41.8755C175.479 41.8755 174.735 42.9809 174.99 42.8959C175.245 42.8108 174.778 43.1297 175.394 43.4698C176.052 43.7249 175.521 45.0004 175.84 44.8941C176.201 44.7878 175.84 45.5956 175.84 45.5956C175.84 45.5956 175.309 46.1058 175.33 46.1696C175.266 46.3184 175.075 46.4884 175.245 46.4884C175.479 46.4884 174.565 46.7435 175.011 47.0199C175.415 47.36 174.417 47.8914 174.926 48.0402C175.479 48.1678 174.672 48.3591 174.969 48.5504C175.245 48.6992 174.48 49.6133 174.65 49.5708C174.693 49.6771 174.523 50.1235 174.374 50.5699C174.183 51.0801 174.013 51.6541 174.098 51.9304C174.247 52.3981 173.461 53.2697 173.461 53.2697C173.461 53.2697 172.569 54.3538 173.079 54.2475C173.631 54.1412 172.527 55.0978 172.973 55.0341C173.355 54.9703 173.121 55.7356 173.121 55.7356C172.803 55.8418 171.104 56.2883 171.783 56.841C172.633 57.5 171.72 57.5637 172.038 57.6913C172.378 57.8826 171.592 59.8383 171.486 59.647C171.359 59.4557 170.807 60.4335 170.615 59.8596C170.446 59.2856 170.212 60.0509 169.936 59.9021C169.66 59.7533 168.938 60.391 168.874 60.221C168.832 60.0721 168.556 60.7311 168.407 60.6036C168.364 60.6036 168.343 60.5611 168.343 60.5611C168.195 60.2635 168.131 60.965 167.834 60.7737C167.494 60.5823 167.345 61.8365 167.027 61.5389C166.623 61.1988 166.963 62.2617 166.22 61.7303C165.413 61.1776 166.177 61.5814 164.839 61.3476C163.544 61.05 163.884 61.8153 163.268 62.453C162.737 63.1333 162.864 63.5584 162.418 63.0695C162.015 62.4955 161.739 63.3246 161.611 62.8994C161.505 62.538 161.335 63.686 160.974 63.0908C160.634 62.5593 160.783 62.6231 160.082 63.197C159.403 63.8135 159.53 65.3441 158.808 64.9189C158.086 64.4512 157.789 65.3441 157.407 64.8764C156.982 64.43 156.621 64.7701 156.621 64.7701L156.387 64.7276C156.387 64.7276 155.092 66.1731 154.349 65.4078C153.648 64.6426 153.351 65.1953 153.138 65.0252C152.926 64.8551 152.565 65.9605 152.395 65.5992C152.246 65.3016 152.225 66.1731 151.928 65.748C151.588 65.3866 151.269 66.407 151.269 66.407L150.696 66.8109C150.696 66.8109 151.036 67.0022 150.314 67.2785C149.634 67.5336 149.358 68.8941 148.955 68.2776C148.487 67.6824 148.572 68.1714 148.126 68.1926C147.596 68.1926 147.532 68.7241 147.298 68.5115C147.043 68.2351 146.64 68.8303 146.406 68.6178C146.173 68.4477 145.769 68.8091 145.769 68.8091L144.941 69.298C144.941 69.298 143.709 71.7001 142.541 71.2962C141.373 70.8924 141.055 73.252 140.312 72.678C139.611 72.0828 139.972 72.8906 139.144 72.4654C138.379 72.019 137.891 72.5079 137.891 72.5079L137.53 72.8481C137.53 72.8481 136.616 74.0598 136.255 73.9322C135.809 73.7834 135.746 75.0801 135.172 74.7188C134.684 74.3999 134.365 74.5062 134.365 74.5062C134.365 74.5062 134.259 74.9313 134.132 75.2715C134.026 75.484 133.898 75.6328 133.686 75.5265C133.176 75.1652 133.325 75.6966 132.751 75.2927C132.475 75.1439 132.178 74.9526 131.987 74.8888C131.987 74.8888 131.944 74.8888 131.86 74.8888C131.753 74.9313 131.69 75.0589 131.711 75.3352C131.711 75.8667 131.435 76.1218 131.286 76.2068C131.329 76.143 131.392 75.7816 130.607 76.6532C129.693 77.6311 128.823 77.7799 128.823 77.7799C128.823 77.7799 127.506 77.6523 127.782 77.9924C128.016 78.3751 127.379 77.8224 127.464 78.4389C127.527 78.9916 127.273 79.5443 127.23 79.2041C127.145 78.949 125.68 79.6293 125.213 78.8428C124.682 78.0775 124.257 78.5664 124.257 78.5664C124.257 78.5664 123.599 79.0553 123.344 78.6089C123.11 78.2263 123.471 79.2041 122.537 78.4389C121.603 77.6736 121.921 78.694 121.454 78.0775C120.987 77.5248 120.689 78.2475 120.392 78.2263C120.095 78.205 119.521 78.779 119.521 78.779C119.521 78.779 118.141 79.9482 117.653 79.1191C117.653 79.1191 117.624 79.0908 117.568 79.0341C117.122 78.3538 116.973 79.3317 116.761 78.8215C116.527 78.2475 116.506 79.6506 116.039 79.2679C115.55 78.8428 115.763 79.8631 115.232 79.7994C114.743 79.7143 114.319 80.7772 114.149 80.5859C113.915 80.3733 113.469 81.0323 113.32 80.9048C113.151 80.7347 113.214 81.2874 112.556 81.4362C111.855 81.585 111.367 81.9039 111.367 81.9039C111.367 81.9039 111.133 83.0093 110.772 82.2653C110.369 81.5212 110.262 82.4778 109.477 82.3716C108.691 82.2653 108.542 82.5416 108.542 82.5416C108.542 82.5416 108.245 84.0297 108.075 83.0943C107.863 82.1802 107.672 83.6895 107.268 82.9242C106.865 82.1802 107.141 82.8605 106.27 82.8817C105.421 82.9668 104.72 82.7117 104.805 83.562C104.89 84.4123 104.529 84.5611 104.274 84.6461C104.019 84.7312 102.893 85.0075 102.893 85.0075C102.893 85.0075 100.855 85.1776 100.069 84.4761C99.2197 83.8171 98.4551 84.6886 98.2853 84.1572C98.1366 83.6895 97.6482 84.7099 97.4146 84.1359C97.181 83.562 97.5208 84.2847 96.82 83.732C96.0979 83.2644 96.3103 83.9446 95.7582 83.477C95.1423 82.9668 95.206 83.7533 94.7388 83.3919C94.2504 83.0731 93.9106 84.6886 93.6558 83.8383C93.4222 83.0518 92.6152 84.391 92.4878 83.3919C92.4029 82.3716 91.5959 83.1368 91.5534 82.988C91.5109 82.8392 90.9376 83.4557 90.5553 83.1156C90.1943 82.7117 89.4935 82.6266 89.4935 82.6266L87.1575 82.9455C87.1575 82.9455 86.6479 84.1359 85.7347 83.3919C84.8853 82.6692 85.0339 83.3919 84.142 82.903C83.2713 82.4778 82.4856 82.9455 82.4856 82.9455C82.4856 82.9455 82.7192 83.1156 82.7829 83.3281V83.3707C82.7829 83.5407 82.7192 83.6895 82.3794 83.732C81.5512 83.8596 81.7636 84.1572 81.1052 84.306C80.4469 84.4548 80.4894 84.7312 79.9797 84.6036C79.4276 84.4761 79.3851 84.965 79.0241 84.6674C78.6206 84.3273 78.2384 84.5611 78.2384 84.5611C78.2384 84.5611 78.5569 85.3902 77.9198 85.0075C77.219 84.5824 76.6457 85.7515 76.6457 85.7515L76.0935 86.6231C76.0935 86.6231 75.4352 87.112 75.3715 86.8995C75.2866 86.6444 74.968 87.4734 74.6495 87.0057C74.2672 86.4956 73.9911 86.7507 73.885 86.6019C73.7788 86.453 73.3328 86.7081 73.3328 86.7081C73.3328 86.7081 73.2691 87.0695 73.0143 86.8144C72.7595 86.5381 72.6745 87.3884 72.3772 86.8144C72.0799 86.2192 71.6339 86.6444 71.6339 86.6444L70.9119 87.0908C70.9119 87.0908 70.5297 87.3246 69.9988 87.6647C69.1706 88.1537 67.9176 88.8127 67.6415 88.6638C67.1744 88.4513 66.9195 88.9402 66.2824 88.7276C65.6878 88.4513 65.6454 88.9189 65.072 88.9189C64.4774 88.8764 63.9252 89.4929 63.8615 89.3016C63.6704 89.5992 63.458 90.407 63.182 89.748C62.8634 88.8764 62.6511 89.748 62.3325 89.2591C62.0352 88.8339 61.929 89.6205 61.5043 89.174C61.1221 88.6638 60.8035 88.9827 60.5487 88.7064C60.3363 88.43 60.7611 88.8764 59.8904 88.6213C58.9985 88.3237 58.5525 88.7489 58.6162 88.26C58.6162 87.7285 58.0428 88.4938 57.9366 87.9411C57.8517 87.4522 57.4482 88.2174 57.4482 87.686C57.3845 87.1333 56.9598 87.771 57.0447 87.4734C57.1084 87.112 54.4327 86.6656 54.1142 85.4752C53.7956 84.2422 53.1161 85.7728 52.8612 84.9863C52.6276 84.1997 52.6064 85.1138 51.9268 84.4123C51.1836 83.7108 50.9075 84.3273 50.7376 83.732C50.5465 83.0943 50.0793 83.8171 49.8669 83.3069C49.6546 82.7967 48.9325 84.0084 48.8901 83.3069C48.8476 82.5629 47.9132 83.3069 47.807 82.7754C47.6796 82.1802 46.5329 83.1581 46.7452 82.2865C47.0001 81.3937 46.1718 81.7551 46.1718 81.7551C46.1718 81.7551 45.2375 81.9251 45.2162 81.1173C45.2162 80.3095 44.473 80.7772 44.473 80.7772C44.473 80.7772 44.1544 81.2236 43.8996 80.6071C43.666 80.0332 43.0714 80.5221 42.9864 80.2458C42.944 80.1395 42.859 80.2458 42.7741 80.3095C42.6466 80.4583 42.5192 80.6284 42.5617 80.0332C42.5617 79.9907 42.5617 79.8631 42.5617 79.7994C42.5617 79.5655 42.4768 79.5443 42.4131 79.5018C42.3281 79.4167 42.2007 79.5655 42.137 79.1829C42.137 78.6089 41.1389 78.3963 41.1389 78.3963C41.1389 78.3963 41.9459 77.2272 40.4169 77.5673C38.9091 77.9074 38.6967 78.3326 38.6967 77.5673C38.7604 76.8445 37.7199 76.9933 37.6774 76.4831C37.5925 76.0367 37.5287 76.7595 37.104 75.9092C36.6793 75.1227 36.1909 75.2077 36.1059 74.8888C36.1059 74.8463 36.0635 74.7825 36.0635 74.7825C36.0635 74.2511 34.8955 74.74 35.1503 74.081C35.3414 73.3795 34.7043 73.9322 34.7893 73.4858C34.8318 73.0606 34.4495 73.5283 34.2159 72.9118C33.9823 72.3379 34.1734 72.763 33.239 72.5717C32.3047 72.3379 31.9224 72.4442 31.9436 72.104C31.9436 70.9561 30.627 71.36 30.3085 71.4451H30.266C30.0324 71.4663 29.5227 71.5088 28.5034 71.5513C27.8238 71.5939 27.4841 71.6364 27.4204 71.7639C27.4204 71.7639 27.3779 71.7427 27.2929 71.7001C25.6578 70.701 25.8276 71.6364 25.8276 71.6364C25.8276 71.6364 24.0438 72.593 23.789 71.8064C23.5554 71.0199 23.9376 72.8693 22.7484 71.2537C21.5167 69.6594 20.1364 71.19 20.4124 69.9995C20.6248 68.8303 20.5823 70.1696 19.563 69.2768C18.7773 68.5965 17.5668 69.3618 17.227 69.3618C17.227 69.4043 17.1845 69.4256 17.1845 69.4256C16.951 69.957 16.5687 70.4247 16.505 69.6807C16.3139 68.2989 15.5069 69.6381 14.8061 68.639C14.1265 67.5761 13.7018 68.9792 13.0223 67.9163C12.3215 66.9172 11.0685 67.9375 10.7712 67.5124C10.5376 67.1297 9.83685 68.0226 9.64573 67.4061C9.43337 66.7258 9.75191 67.3636 9.43337 66.7258C9.11482 66.0881 8.60516 67.2148 8.88123 65.6842C9.1573 64.0899 8.37156 66.0668 7.58582 64.6851C6.84256 63.3458 7.35223 64.6426 6.35413 63.4946C5.39851 62.283 4.99502 63.0482 4.35794 62.6018C4.35794 62.6018 4.31546 62.6018 4.23052 62.6018C3.52973 62.3467 1.97949 63.5797 1.97949 63.5797C1.97949 63.5797 0.301839 62.6443 0.577908 61.4752C0.790269 60.2635 -0.314009 61.0075 0.0894776 59.8808C0.471728 58.8392 0.450491 60.476 0.5142 59.0093C0.5142 58.9667 0.5142 58.8392 0.5142 58.7754C0.5142 56.926 -0.420189 57.7976 0.408019 56.5434C1.23623 55.3104 0.301839 56.2245 1.23623 55.3104C2.23432 54.4176 1.32117 54.29 2.21309 53.5673C3.06253 52.7807 2.00073 52.887 2.59534 52.3556C2.91388 52.0792 2.95635 52.1855 2.95635 52.2493C3.0413 52.1643 3.0413 51.9942 3.16871 51.7816C3.52973 50.6975 3.91198 53.0571 3.40231 50.2723C2.95635 47.4663 2.12814 48.9331 2.95635 47.4663C3.72085 46.0208 2.40421 45.6594 3.44478 44.724C4.48535 43.7674 2.99883 43.236 4.1031 42.5557C5.27109 41.8542 4.5703 42.7683 4.74019 41.259C4.84637 39.7285 3.91198 41.0039 4.03939 39.5159C4.20928 37.9641 3.0413 39.8135 3.76332 37.6452C4.42164 35.4769 3.23242 36.8374 4.14558 35.6682C5.01626 34.5416 4.76142 34.499 4.99502 34.0739C5.20738 33.6062 3.67838 33.3299 5.35603 32.7984C7.05492 32.2882 5.65334 30.1625 7.37346 30.5026C9.02988 30.8002 8.64763 30.3325 9.43337 29.6948C10.2403 29.0996 9.49708 28.228 10.1766 28.143C9.94303 28.1005 9.66696 28.0154 11.0048 27.2501C13.2559 26.1022 12.0454 24.9756 13.6594 24.9968C15.2733 24.9756 15.5281 23.9127 15.422 23.2324C15.422 22.9986 15.3582 22.8498 15.3582 22.616C15.4007 22.0207 15.6343 21.4255 16.1015 21.298C16.7386 21.1067 14.976 20.4264 16.5262 20.4264C18.1402 20.4477 17.8641 19.895 18.4375 19.7249C18.9684 19.5548 18.4799 19.4911 18.8622 18.8533C19.3082 18.2581 18.5224 18.088 19.0958 17.5566C19.6692 16.9826 19.1383 17.6629 19.6692 16.9826C20.2213 16.3449 19.7116 16.7488 20.2213 16.3449C20.6885 15.9623 21.007 15.3458 21.6866 15.2608C22.4086 15.1545 21.814 14.7506 22.8334 14.453C23.8314 14.1554 23.1519 13.9428 23.7253 13.3688C24.2986 12.7949 23.9801 12.1359 24.2986 12.0296C24.6597 11.9233 24.511 11.7957 25.0207 11.3918C25.5516 11.0517 25.0631 11.3918 25.8914 10.4778C26.6983 9.54242 26.2524 9.60619 26.8045 9.15978C26.8895 9.07475 26.9956 9.03223 27.1018 9.01098C27.4841 8.9472 27.7814 9.37236 27.9088 8.81966C28.0362 8.09689 27.7814 8.62834 28.0999 7.77803C28.4609 6.86394 28.015 6.52382 28.3547 6.54508C28.7795 6.58759 28.9918 6.18369 28.9918 6.18369C28.9918 6.18369 29.3528 6.01363 29.6077 5.5247C29.7988 5.01452 29.4803 4.92949 29.82 4.71691C30.2023 4.48307 29.4378 4.24924 30.2235 3.95163C31.0093 3.65402 30.3509 3.22886 30.8606 2.82497C31.3915 2.48484 31.2853 2.16597 31.7313 2.1022C32.2197 2.01717 31.9649 2.48484 32.5383 1.74082C33.0904 0.933024 32.6232 0.316549 33.0692 0.486611C33.4939 0.5929 33.2815 0.0189399 34.046 0.252775L33.9823 0.274033Z" fill="black"/>
</svg>
