<svg width="455" height="218" viewBox="0 0 455 218" fill="none" xmlns="http://www.w3.org/2000/svg">
<path d="M455 211.254C454.664 206.287 454.752 201.294 454.098 196.345C454.125 195.903 454.195 195.47 454.178 195.028C453.939 185.316 453.727 175.594 453.426 165.882C452.524 136.833 452.153 107.766 451.64 78.708C451.614 77.3205 452.118 75.8888 451.428 74.5278C451.454 73.6529 451.507 72.7692 451.499 71.8942C451.269 53.026 451.03 34.1578 450.809 15.2896C450.765 11.6308 450.791 11.6308 447.193 12.0992C446.087 12.002 444.991 11.8341 443.939 11.4718C443.382 11.569 442.798 11.7192 442.223 11.7987C439.518 11.1359 437.13 9.44795 434.248 9.38609C434.097 9.43912 433.965 9.4126 433.859 9.28004C432.798 8.94421 431.737 8.82049 430.693 9.35958C430.587 9.46563 430.472 9.54517 430.348 9.61587C429.146 9.73076 427.917 10.0843 426.714 10.1373C422.293 10.3405 417.899 9.43912 413.522 9.69541C411.32 9.82797 409.154 9.73076 407.023 9.47447C406.501 9.38609 405.98 9.28888 405.467 9.17399C402.646 8.53768 400.047 7.46834 397.81 5.9306C396.121 4.77288 394.609 4.34867 392.734 4.46356C392.337 4.49008 391.93 4.50775 391.523 4.51659C391.337 4.01285 390.869 3.62399 390.259 3.40305C385.917 2.88164 381.452 3.70353 377.199 2.20114C376.96 2.12161 376.668 2.16579 376.412 2.24533C373.839 3.02304 371.213 2.57232 368.605 2.58116C367.588 2.91699 366.562 3.23514 365.554 3.58864C363.423 3.21746 361.363 2.51046 359.435 1.67973C356.977 0.628055 354.882 0.159664 352.379 0.999233C351.318 1.35274 349.948 1.75043 349.028 1.37041C346.765 0.433629 344.687 1.3439 342.538 1.52949C341.504 1.61786 340.505 2.13044 339.426 1.89183L336.871 2.05974C336.579 2.07742 336.402 2.20114 336.296 2.38673C336.128 2.37789 335.969 2.37789 335.801 2.41324C335.615 2.61651 335.429 2.79326 335.244 2.9435C333.714 3.0849 332.246 2.70489 330.823 2.12161C329.912 1.74159 328.966 1.50298 328.02 1.52065C325.756 1.56484 323.634 0.150827 321.317 0.893183C321.176 0.93737 320.964 0.857832 320.822 0.778294C318.532 -0.582692 316.224 0.0801259 314.058 0.955046C312.122 1.73275 310.318 2.77559 308.143 2.77559C307.798 2.77559 307.453 3.26165 307.108 3.52678C306.206 4.03052 305.304 4.53426 304.394 5.02917C303.978 5.24127 303.819 5.62128 303.748 6.05433C303.076 6.2841 302.502 6.69947 302.21 7.32694C301.617 8.55536 300.618 8.72327 299.433 8.62606C299.018 8.59071 298.593 8.68792 298.169 8.72327C296.657 8.36093 294.862 7.6716 293.677 8.62606C292.59 9.50098 291.741 9.49214 290.636 9.28888C289.751 9.04142 288.849 8.68792 288.036 9.44795C287.762 9.44795 287.612 9.65122 287.461 9.86332C286.931 10.3847 286.409 10.915 285.879 11.4364C284.154 11.728 282.43 11.3834 280.706 11.3834C280.724 11.3215 280.75 11.2773 280.768 11.2066C280.697 10.8001 280.467 10.5085 280.113 10.3052C278.946 9.84564 277.806 10.4643 276.647 10.3759C276.4 10.3759 276.143 10.3936 275.896 10.4112C275.657 10.4554 275.427 10.5438 275.215 10.6587C275.02 10.7913 274.835 10.9415 274.658 11.0917C274.49 11.2508 274.348 11.4276 274.242 11.6308C274.225 11.7457 274.207 11.8518 274.181 11.9667C272.536 12.9123 270.706 12.329 268.981 12.5941V12.5765C268.628 12.7886 268.15 12.7179 267.867 13.0802C267.637 13.2039 267.469 13.3895 267.284 13.5663C267.001 13.8844 266.506 13.7784 266.223 14.1054H266.232C266.125 14.2114 266.055 14.3351 266.01 14.4765C265.887 14.4589 265.772 14.4765 265.666 14.5649L265.63 14.6091C265.498 14.8212 265.321 15.0068 265.17 15.2101C264.87 15.8817 264.242 15.9259 263.632 15.9878C261.757 16.191 259.874 16.518 258.026 16.8273C255.276 17.2869 252.579 17.9585 249.768 17.8525C248.433 16.7301 247.221 17.0041 246.045 17.6227C245.886 17.5343 245.727 17.4371 245.577 17.3134C245.311 17.1985 245.037 17.1278 244.737 17.1366C243.879 17.2427 243.012 17.2957 242.217 17.7022C235.841 17.499 229.458 17.4106 223.082 17.0218C222.242 17.2162 221.402 17.3487 220.562 17.4194C218.803 17.1543 217.034 16.8804 215.266 16.6771C214.152 16.5445 213.188 16.2971 212.596 15.2631C212.384 14.8389 211.844 14.9449 211.552 14.6356C211.367 14.4235 211.163 14.2379 210.88 14.1495V14.2114C209.855 14.344 208.803 15.4045 207.812 14.123C207.768 14.0258 207.715 13.9198 207.671 13.8226C207.149 13.3807 206.451 13.31 205.894 12.9211C205.69 12.8416 205.469 12.7974 205.248 12.7886C204.594 12.762 203.931 12.8151 203.303 12.5941C203.091 12.5499 202.878 12.5323 202.657 12.5323C202.1 12.5323 201.605 12.7002 201.163 13.0272C200.986 13.1332 200.8 13.2393 200.615 13.3453C200.226 13.5132 199.846 13.6812 199.439 13.796C199.227 13.8491 199.023 13.9021 198.82 13.964C198.289 14.1495 197.741 14.2644 197.184 14.3175C196.954 14.344 196.724 14.3616 196.494 14.3705C194.611 14.3882 192.728 14.3793 190.844 14.3705C190.614 14.3705 190.376 14.344 190.146 14.3086C189.686 14.2291 189.244 14.1142 188.802 13.9816C188.581 13.9198 188.351 13.8667 188.13 13.8314C187.776 13.7784 187.44 13.6546 187.095 13.5928C186.857 13.5663 186.609 13.5309 186.37 13.4867C185.601 13.2393 184.796 13.3542 184.018 13.2569C183.505 13.1421 182.975 12.9476 182.471 13.1244C179.606 14.1584 176.679 14.9449 173.682 15.5282C172.683 15.7226 171.967 16.3766 172.02 17.552C172.09 17.6404 172.17 17.7111 172.241 17.7818C172.241 17.7818 172.232 17.7818 172.223 17.7818C172.055 17.8967 171.887 18.0116 171.728 18.1353C170.959 18.3386 170.172 18.6302 169.394 18.3032C166.891 17.225 164.46 17.4725 162.064 18.6125C161.4 18.9307 160.675 19.0897 160.003 18.8423C157.439 17.8702 154.813 18.1706 152.187 18.3739C151.789 18.7628 151.294 19.0102 150.755 18.9218C148.809 18.6037 147.518 19.4079 146.201 20.8573C144.751 22.448 142.938 23.5704 140.533 23.7825C138.588 23.9592 136.457 23.5881 134.653 24.7988C134.609 24.8607 134.565 24.9314 134.512 24.9932C134.167 25.0198 133.831 25.0551 133.486 25.0816C132.124 25.603 130.692 25.7533 129.251 25.9565C123.38 26.7961 117.659 28.4487 111.761 29.2176C107.491 29.7832 103.299 31.1177 98.9492 31.0381C93.3256 30.9409 87.9408 32.2754 82.671 33.8485C76.0748 35.8281 69.5582 35.9165 62.9532 34.4848C60.5659 33.9722 58.2493 33.548 55.8443 34.1932C55.3049 34.0871 54.7744 33.9899 54.2615 33.7866C54.014 33.6983 53.7664 33.6629 53.5011 33.6806C53.1474 33.7159 52.7849 33.8131 52.4136 33.9369C52.0157 33.9104 51.6001 33.9634 51.1845 34.0341C50.2826 34.1932 49.3807 34.2904 48.4788 34.2992C48.1517 34.0783 47.8245 33.7513 47.5151 33.2741C47.2852 33.1857 47.0464 33.0973 46.8165 33.0178C46.4629 32.8852 46.118 32.7173 45.782 32.5405C45.5521 32.4345 45.3134 32.3549 45.057 32.3108C43.934 32.1163 42.8199 31.8158 41.7501 31.9131C40.8393 31.8335 39.9021 31.9131 38.9383 32.1075C36.9842 32.514 35.039 32.4345 33.1026 32.2754C32.8108 32.2224 32.519 32.1959 32.2272 32.2047C31.8028 32.1693 31.3784 32.134 30.9628 32.0987C30.9363 31.9396 30.9009 31.7893 30.8213 31.6479C29.4862 30.5698 27.7531 30.5344 26.2146 30.0041C21.3957 28.3515 16.4619 27.8831 11.5015 29.5711C10.2724 29.5623 9.06108 29.6948 7.87624 30.0572C6.18742 30.5786 4.45438 30.773 2.68597 30.6316C2.01398 31.1972 0.882197 30.6316 0.36936 31.5684C-0.205372 32.5582 0.0598886 33.6452 0.0687307 34.6792C0.298623 56.1457 0.608094 77.621 0.784935 99.0875C1.09441 137.345 0.908723 175.612 1.40388 213.87C1.40388 214.223 1.4304 214.577 1.40388 214.93C1.28009 216.371 2.0405 216.813 3.34028 216.68C3.78238 216.636 4.22448 216.627 4.66659 216.627C10.1398 216.663 15.6219 216.336 21.0951 216.601C22.6513 218.483 24.8706 217.962 26.7628 217.847C33.2706 217.44 39.7871 217.308 46.3037 217.219C56.2775 217.087 66.2513 217.166 76.2163 216.848C80.0626 216.203 83.9442 216.362 87.8082 216.389C93.7147 216.424 99.6211 216.327 105.528 216.353C116.2 216.406 126.872 216.53 137.536 216.123C138.579 216.07 139.596 216.424 140.639 216.371C142.249 216.698 143.743 215.947 145.334 215.894C153.363 215.602 161.383 215.911 169.402 216C180.499 216.132 191.614 216.247 202.693 215.947C212.72 215.673 222.755 215.567 232.782 215.461C240.466 215.381 248.15 215.611 255.833 215.584C263.756 215.558 271.652 215.178 279.565 214.877C288.266 214.542 297.002 215.107 305.72 214.842C314.527 214.577 323.333 215.231 332.14 215.045C339.567 214.886 346.986 214.347 354.413 214.338C363.299 214.329 372.186 214.586 381.063 214.391C391.276 214.161 401.488 214.215 411.701 213.843C423.708 213.41 435.76 213.552 447.785 214.073C449.323 214.144 451.198 214.648 452.4 212.933C453.373 212.571 455.106 213.419 454.965 211.272L455 211.254ZM163.151 22.5452C163.151 22.5452 163.151 22.5629 163.151 22.5718C163.151 22.5541 163.142 22.5541 163.133 22.5364C163.133 22.5364 163.142 22.5364 163.151 22.5364V22.5452Z" fill="black"/>
</svg>
