<svg width="187" height="392" viewBox="0 0 187 392" fill="none" xmlns="http://www.w3.org/2000/svg">
<path d="M186.799 178.553C186.714 178.498 186.684 178.426 186.714 178.328C186.678 178.11 186.538 177.958 186.393 177.812C186.223 177.648 186.211 177.436 186.198 177.223C186.168 177.084 186.132 176.944 186.083 176.81C186.01 176.519 186.041 176.203 185.919 175.918C185.834 175.784 185.749 175.644 185.658 175.517C185.531 175.292 185.41 175.061 185.325 174.819C185.04 172.851 183.65 172.766 182.115 172.93C181.933 172.973 181.763 173.051 181.617 173.167C181.174 172.614 180.622 172.122 180.622 171.321C180.592 171.163 180.543 171.005 180.483 170.853C180.422 170.701 180.361 170.544 180.301 170.386C180.07 170.04 179.918 169.608 179.427 169.523C179.045 169.074 179.02 168.552 179.148 168.011C179.36 167.119 179.099 166.347 178.468 165.74C177.934 165.224 177.777 164.501 177.321 163.955C177.206 163.056 176.8 162.631 176.102 162.698C176.102 162.674 176.114 162.649 176.114 162.631C176.126 162.449 176.114 162.267 176.047 162.091C175.993 161.981 175.944 161.878 175.889 161.769C176.32 160.979 176.126 160.117 175.859 159.243C176.284 158.405 176.429 157.627 175.428 157.081L175.447 157.093C175.289 156.832 174.925 156.911 174.749 156.674L174.737 156.662C174.603 156.565 174.494 156.443 174.409 156.304L174.379 156.261C174.239 156.176 174.112 156.073 174.002 155.951C173.766 155.702 173.42 155.769 173.135 155.654C172.303 154.98 171.327 154.397 171.284 153.164C171.26 152.466 170.659 152.338 170.295 151.974C170.35 151.749 170.465 151.537 170.483 151.306C170.459 151.069 170.386 150.845 170.301 150.626C170.113 150.158 169.858 149.751 169.5 149.43C169.543 149.393 169.585 149.357 169.634 149.314C170.174 148.513 169.816 147.644 169.81 146.8C170.077 146.618 170.259 146.308 170.422 145.968C170.696 145.391 171.126 144.936 171.49 144.432C171.563 144.262 171.612 144.086 171.624 143.898C171.727 142.173 171.933 140.442 172.043 138.73C172.109 137.661 172.686 136.35 171.939 135.293C172.249 135.226 172.522 135.074 172.777 134.831C172.904 134.716 173.019 134.595 173.123 134.455C173.177 134.388 173.226 134.327 173.28 134.267C173.39 134.151 173.499 134.036 173.614 133.915C173.669 133.86 173.723 133.805 173.784 133.745C173.893 133.635 174.008 133.52 174.118 133.411C174.233 133.301 174.348 133.192 174.464 133.083C174.931 132.633 174.979 132.075 174.864 131.479C174.172 129.621 175.701 128.474 176.29 127.022C176.478 126.767 176.648 126.5 176.854 126.251C176.903 126.19 176.957 126.13 177.006 126.069C177.103 125.947 177.206 125.826 177.309 125.705C177.406 125.577 177.497 125.45 177.582 125.316C177.692 125.018 177.667 124.678 177.843 124.399C177.995 124.101 178.086 123.786 178.086 123.446C178.08 123.276 178.056 123.112 177.995 122.948C177.74 122.486 177.655 121.982 177.588 121.472C177.588 119.122 177.946 116.79 178.031 114.446C178.159 114.404 178.286 114.355 178.401 114.282C178.705 114.082 178.948 113.833 179.117 113.511C179.16 113.432 179.208 113.359 179.251 113.28C179.324 113.122 179.384 112.959 179.403 112.782C179.403 112.697 179.427 112.612 179.433 112.527C179.433 112.442 179.445 112.357 179.439 112.272C179.439 112.108 179.439 111.944 179.403 111.78C179.348 111.392 179.378 111.009 179.433 110.633C179.391 109.54 179.548 108.513 180.343 107.682C181.102 106.406 180.325 105.544 179.524 104.688C179.415 104.554 179.312 104.421 179.208 104.287C179.051 104.093 178.875 103.917 178.699 103.734C178.086 102.751 178.25 101.567 177.892 100.516C177.473 99.2955 177.564 98.16 178.511 97.1884C178.772 95.8828 179.833 94.6865 179.057 93.2291C178.389 92.6947 178.662 91.7657 178.177 91.1524C178.025 90.9216 177.861 90.6908 177.849 90.4054C177.868 90.2658 177.88 90.12 177.88 89.9743C177.88 89.7496 177.855 89.5249 177.783 89.3063C177.74 89.1606 177.698 89.0148 177.619 88.8873C177.576 88.8205 177.552 88.7537 177.516 88.6869C177.443 88.5533 177.364 88.4197 177.255 88.3044C177.085 88.0433 176.897 87.8004 176.696 87.5696C176.654 87.3328 176.618 87.096 176.575 86.8652C176.612 86.8531 176.648 86.8531 176.684 86.8348C176.842 86.7255 176.976 86.5859 177.067 86.4158C177.194 86.1365 177.261 85.839 177.164 85.5475C176.254 82.7906 176.017 79.9426 175.974 77.0582C175.902 76.4449 175.283 76.1109 175.234 75.4429C174.973 71.8845 174.621 68.326 176.472 65.0165C176.575 64.8951 176.678 64.7676 176.781 64.6461C176.879 64.5186 176.963 64.3911 177.03 64.2453C177.103 63.8324 177.376 63.5713 177.698 63.3466C177.959 63.0673 178.226 62.794 178.432 62.4661C178.559 62.2718 178.614 62.041 178.699 61.8285C178.687 61.7131 178.729 61.6281 178.826 61.5674C179.19 61.288 179.36 60.9358 179.239 60.4743C179.008 60.031 178.972 59.4785 178.499 59.1748C178.177 58.9016 177.849 58.6405 177.704 58.2154C176.302 54.2561 177.534 50.218 180.932 47.6493C181.781 46.447 182.892 45.3539 182.691 43.684C182.619 43.6111 182.594 43.5201 182.619 43.4168C182.91 42.6699 182.4 42.0444 182.309 41.3522C182.254 41.2065 182.2 41.0546 182.145 40.9089C182.042 40.6964 181.933 40.4899 181.83 40.2774C181.757 40.1377 181.684 39.998 181.599 39.8644C181.472 39.658 181.369 39.4394 181.199 39.2572C179.991 37.2958 179.178 35.1704 178.505 32.9783C178.499 32.9722 178.493 32.9601 178.486 32.954C178.826 32.6564 178.99 32.2739 178.996 31.8184C178.984 31.6606 178.96 31.5088 178.911 31.3509C178.911 31.2901 178.887 31.2233 178.869 31.1626C178.911 31.0837 178.954 31.0108 178.984 30.9258C178.996 30.9258 179.008 30.9137 179.026 30.9137C179.148 30.9015 179.287 30.8711 179.415 30.8043C179.548 30.7254 179.664 30.6222 179.761 30.5007C179.864 30.3793 179.961 30.2578 180.052 30.1303C180.185 29.9421 180.331 29.7599 180.483 29.5838C180.58 29.4623 180.665 29.3287 180.731 29.1891C180.798 29.0494 180.865 28.9037 180.932 28.764C181.053 27.6467 181.878 26.669 181.611 25.4727C181.648 24.7987 181.678 24.1247 181.714 23.4445C181.812 23.3899 181.909 23.3292 182 23.2563C181.878 21.7625 180.81 21.3617 179.627 21.0945C179.639 21.0702 179.658 21.052 179.67 21.0277C179.712 20.2686 179.105 20.0925 178.608 19.7464C176.223 18.0765 173.268 17.3842 171.126 15.3135C170.981 15.2224 170.823 15.1496 170.659 15.0949C170.344 14.9795 170.034 14.8459 169.713 14.7427C168.784 14.1962 167.826 13.6922 167.122 12.8481C166.952 12.4777 166.8 12.1012 166.648 11.7247C166.576 11.4818 166.527 11.2389 166.436 11.0021C165.156 8.81601 163.699 6.73316 162.814 4.32847C162.577 3.67872 162.328 2.94395 161.57 2.63425C161.309 2.07559 161.436 1.37726 160.957 0.891462C160.72 -0.0862027 159.925 -0.0194057 159.209 0.017029C157.335 0.108116 155.46 0.205275 153.597 0.381376C149.21 0.800375 144.841 1.38333 140.406 1.16472C138.555 1.07364 136.674 1.18294 134.836 1.24366C132.427 1.32261 130.006 1.42584 127.591 1.47442C125.467 1.51692 123.349 1.09792 121.262 1.18294C118.331 1.30439 115.395 1.46834 112.464 1.71731C111.026 1.8752 109.564 1.95414 108.132 1.99665C106.305 2.0513 104.43 2.44601 102.598 1.82662C102.1 1.65659 101.312 1.43191 101.032 1.67481C100.056 2.51281 98.9938 2.13631 97.9562 2.17275C97.8166 2.17275 97.6831 2.38528 97.5497 2.50066C96.7791 2.56746 95.9902 2.50066 95.2682 2.86501C95.1772 2.80428 95.0922 2.81036 95.0134 2.88322C93.9758 2.23955 92.9079 2.8225 91.8582 2.81643C88.3025 2.79821 84.7408 2.73749 81.2033 3.19899C81.0213 2.94395 80.7543 2.87715 80.457 2.91359C80.6269 2.98038 80.7968 3.05325 80.9667 3.12005C80.7907 3.07147 80.6026 3.04718 80.457 2.91359C80.3842 2.83465 80.2992 2.81643 80.2022 2.85894C79.6743 2.51888 79.1464 2.50673 78.6124 2.81036C78.3879 2.84072 78.2544 2.96824 78.1816 3.16256C76.3917 3.19292 74.5956 3.22935 72.8056 3.25972C72.3202 3.39938 71.8409 3.42367 71.3494 3.27793C71.2463 3.16256 71.1552 3.14434 71.0703 3.22328C70.7972 3.09576 70.4939 3.08969 70.1965 3.08362C69.7293 3.08362 69.25 3.12612 68.8131 2.90144C68.6554 2.86501 68.4976 2.82857 68.3398 2.81643C68.1821 2.77999 68.0243 2.74963 67.8605 2.73749C67.3387 2.65247 66.8775 2.87108 66.3982 3.02896C66.295 3.04718 66.1858 3.04111 66.0827 3.04718C65.6033 2.8225 65.0208 2.81036 64.5961 2.4703C64.414 2.41565 64.226 2.39743 64.0378 2.40957C62.9093 2.64033 61.9627 1.6323 60.822 1.92985C59.7116 2.47637 58.5466 2.52495 57.3209 2.51888C55.7069 2.50066 54.1233 2.12417 52.5214 2.19704C46.0957 2.48852 39.6701 2.65247 33.2383 2.92573C33.0623 2.86501 32.8803 2.81036 32.6983 2.77392C32.5163 2.77392 32.3403 2.79214 32.1643 2.85286C31.1996 2.91359 30.3319 2.31849 29.355 2.43994C29.0819 2.42779 28.815 2.42779 28.5419 2.43994C27.2798 2.6464 26.0178 2.89537 24.7375 2.5796C24.5555 2.54924 24.3734 2.52495 24.1914 2.51888C23.9184 2.49459 23.6514 2.47637 23.3783 2.49459C23.1114 2.51281 22.8504 2.51888 22.5835 2.51888C22.3226 2.50673 22.0616 2.51888 21.8007 2.55531C21.6369 2.59782 21.4731 2.65247 21.3153 2.72534C20.1685 3.04718 19.0642 3.69693 17.8021 3.27793C17.6444 3.27186 17.4805 3.25972 17.3228 3.2415C16.9345 3.1747 16.5522 3.05933 16.1517 3.07754C15.994 3.07754 15.8423 3.09576 15.6906 3.1322C15.1445 3.4844 14.5377 3.44189 13.931 3.42367C13.7793 3.41153 13.6336 3.38117 13.488 3.33866C13.1422 3.16863 12.8509 2.8893 12.4444 2.85286C12.2866 2.82857 12.1288 2.81643 11.9711 2.81643C11.5706 2.80428 11.1702 2.80428 10.7697 2.85286C10.527 2.87715 10.2782 2.89537 10.0294 2.8893C9.08287 2.7132 8.19699 3.10183 7.28077 3.21114C7.02593 3.13827 6.77109 3.13827 6.51625 3.21114C5.87914 3.33259 5.30271 3.02896 4.69594 2.95609C4.41076 2.95609 4.18626 3.07754 3.99209 3.27793C2.89991 3.47225 1.81379 3.21721 0.721612 3.27793C0.709476 3.29008 0.642732 3.38724 0.642732 3.38724C0.654867 3.49654 0.606326 3.56941 0.503175 3.60585C0.484972 3.70301 0.436431 3.78195 0.363619 3.84874C0.539581 4.38919 0.436431 4.92964 0.327213 5.46402C-0.0247129 7.55294 0.181588 9.66008 0.193724 11.7611C0.205859 13.1821 -0.127863 14.6213 0.33328 16.024C0.33328 16.1455 0.33328 16.2669 0.327213 16.3944C0.0602346 17.8457 0.0784377 19.3031 0.321145 20.7544C0.430363 21.1188 0.436431 21.4892 0.33328 21.8596C0.302942 21.8596 0.278671 21.9021 0.248333 21.9811C0.217994 22.06 0.248333 22.139 0.339348 22.2179C0.472837 25.2177 0.59419 28.2114 0.393957 31.2112C0.41216 31.3752 0.503175 31.448 0.654867 31.442C0.654867 31.4905 0.654867 31.5391 0.654867 31.5877C0.6488 31.6484 0.642732 31.7031 0.618461 31.7638C0.545649 31.9035 0.472837 32.0492 0.400025 32.1949V32.3285C0.812627 33.7981 0.381822 35.3162 0.691273 36.7918C0.660935 37.2169 0.600258 37.6359 0.606326 38.0609C0.770153 46.3741 0.575987 54.6934 0.958251 63.0065C1.39512 72.5221 1.52861 82.0558 1.78346 91.5835C2.05043 101.524 3.08194 111.422 3.0334 121.387C3.01519 124.697 3.24577 128.049 3.48847 131.382C3.76759 135.257 3.80399 139.143 3.97996 143.023C4.05277 144.547 3.6523 146.029 3.68264 147.559C3.81613 153.674 3.90714 159.795 3.91321 165.916C3.91321 167.04 4.65954 168.449 3.16082 169.287C3.11835 169.311 3.19116 169.517 3.19723 169.639C3.32465 173.215 3.00913 176.792 3.2761 180.363C3.2761 180.606 3.26397 180.848 3.2579 181.091C3.11228 182.306 3.14868 183.52 3.2761 184.735C3.14262 186.192 3.11228 187.65 3.27004 189.107C3.24577 189.587 3.19723 190.073 3.19723 190.552C3.19723 198.586 3.31251 206.614 3.6159 214.642C3.71298 217.229 3.57949 219.828 3.96175 222.402C3.8222 222.967 3.86467 223.526 3.99816 224.084C3.99816 225.299 4.01029 226.507 4.01029 227.722C4.01029 227.843 4.00423 227.971 3.99816 228.092C4.03456 230.187 4.05884 232.276 4.11344 234.371C4.13772 235.258 3.91321 236.169 4.33188 237.025C4.20446 237.571 4.2166 238.118 4.36829 238.658C4.36829 239.023 4.36829 239.381 4.37435 239.745C4.27727 239.988 4.2348 240.231 4.36829 240.48C4.41076 242.921 4.30761 245.362 4.51998 247.797C4.55032 248.332 4.62313 248.872 4.70808 249.406C4.70808 249.406 4.70808 249.413 4.70808 249.419C4.59886 249.595 4.61099 249.771 4.70808 249.947C4.95078 250.196 4.94472 250.433 4.67774 250.645C4.89618 250.427 4.91438 250.196 4.70808 249.953C4.68987 250.184 4.67167 250.414 4.65954 250.645C4.47144 250.815 4.51998 250.979 4.69594 251.137C4.64133 251.234 4.65347 251.325 4.72628 251.41C4.78089 251.471 4.8173 251.532 4.84763 251.593C4.81123 251.532 4.77482 251.465 4.72628 251.41C4.72628 253.111 4.71415 254.811 4.71415 256.511C4.72628 256.584 4.73235 256.651 4.74448 256.724C4.61099 257.519 4.47144 258.315 4.55032 259.122C4.55032 259.317 4.55032 259.511 4.55032 259.699C4.53818 260.877 4.59886 262.061 4.31975 263.227C4.27727 263.391 4.24087 263.555 4.2166 263.725C4.20446 263.889 4.19232 264.047 4.19232 264.211C4.19232 264.369 4.19232 264.521 4.19232 264.673C4.19232 264.818 4.19232 264.97 4.19232 265.116C4.19232 265.262 4.19232 265.407 4.19232 265.547V266.415C4.19232 266.646 4.19232 266.883 4.19232 267.12V267.897C4.17412 269.737 4.2712 271.583 3.99209 273.417C4.00423 273.878 3.99209 274.334 3.86467 274.777C3.91321 275.397 3.64017 275.943 3.45814 276.502C3.40959 276.678 3.36105 276.86 3.31858 277.036C3.28217 277.328 3.28824 277.619 3.33071 277.91C3.48847 278.621 3.37319 279.325 3.27004 280.024C3.75545 283.115 3.81613 286.199 3.09407 289.272C3.0516 289.466 3.00913 289.655 2.96665 289.849C2.85744 290.48 2.87564 291.124 2.76642 291.75C2.71788 292.011 2.64507 292.266 2.58439 292.527C2.50551 293.225 2.51765 293.93 2.33561 294.61C2.28101 294.786 2.23853 294.962 2.20819 295.144C2.17786 295.43 2.18392 295.715 2.22033 296C2.39022 296.553 2.29314 297.148 2.48124 297.701C2.8271 298.818 2.72395 299.899 2.28101 300.968C2.20213 302.085 1.74098 303.148 1.79559 304.283C1.82593 304.575 1.8502 304.866 1.88054 305.158C1.88054 306.682 1.28591 308.139 1.37085 309.676C1.29804 310.198 1.18882 310.708 1.10388 311.23C1.10994 312.991 1.12208 314.758 0.958251 316.519C0.933981 317.139 0.921845 317.752 0.90971 318.371C0.946116 319.75 0.933981 321.122 0.545649 322.458C0.503175 322.652 0.503175 322.847 0.545649 323.041C1.34658 324.644 0.284739 326.114 0.217994 327.656C0.199791 327.747 0.175521 327.832 0.157318 327.923C0.139114 328.014 0.108776 328.099 0.0966407 328.19C0.0784377 328.366 0.07237 328.543 0.108776 328.725C0.175521 329.041 0.248333 329.344 0.284739 329.66C0.30901 329.879 0.345416 330.091 0.327213 330.31C0.284739 330.522 0.169453 330.717 0.15125 330.929C0.114844 331.075 0.0845053 331.227 0.0966407 331.378C-0.0186452 331.901 -0.00650985 332.429 0.0116932 332.957C0.0116932 333.255 0.0177609 333.552 0.0784377 333.85C0.654867 337.062 0.509243 340.323 0.624529 343.572C0.727679 343.839 0.861168 344.027 1.03106 344.131C0.697341 345.181 1.15848 346.311 0.764086 347.355C0.824762 347.44 0.824762 347.525 0.745883 347.604C0.387889 348.163 0.557784 348.782 0.557784 349.371C0.539581 353.664 0.575987 357.958 0.539581 362.245C0.521378 364.109 0.733747 365.985 0.387889 367.844C0.642732 370.206 0.430363 372.574 0.345416 374.936C0.0116932 376.302 0.236197 377.687 0.193724 379.065C0.0784377 382.49 0.387889 385.921 0.0298962 389.34C0.205859 389.886 0.187656 390.427 0.0056255 390.961C0.102708 391.465 -0.0307805 392.097 0.867236 391.988C4.96292 391.502 9.08288 391.605 13.1968 391.66C13.7853 391.666 14.4164 391.775 14.9685 391.417C15.9333 391.435 16.8738 391.69 17.8567 391.617C21.5884 391.35 25.3261 391.423 29.0577 391.301C33.032 391.174 37.0003 390.973 40.9807 391.004C41.0353 391.004 41.096 390.967 41.1506 390.949C41.3083 390.876 41.4722 390.828 41.642 390.803C41.4782 390.852 41.3144 390.901 41.1506 390.949C42.0425 390.998 42.9345 390.98 43.8203 391.028C44.2754 391.058 44.7426 391.101 45.2159 391.107C45.6649 391.471 46.2292 391.654 46.8724 391.702C47.0605 391.72 47.2486 391.732 47.4427 391.732C48.0495 391.818 48.6624 391.666 49.2691 391.714C49.439 391.714 49.6028 391.714 49.7727 391.666C50.2278 391.611 50.6647 391.441 51.1258 391.514C51.2836 391.514 51.4413 391.514 51.593 391.471C51.9935 391.405 52.4061 391.38 52.8005 391.313C52.9704 391.277 53.1403 391.222 53.292 391.137C53.5226 390.998 53.7289 390.84 53.9109 390.652C54.4873 390.615 55.0577 390.579 55.6341 390.542C55.713 390.451 55.7919 390.354 55.8708 390.263C56.0649 390.239 56.253 390.22 56.4472 390.196C57.6607 390.445 58.8743 390.032 60.0817 390.196C60.1242 390.16 60.1727 390.123 60.2152 390.087C60.2759 390.087 60.3305 390.087 60.3912 390.087C60.5247 390.044 60.6399 389.971 60.7431 389.886C62.0901 389.886 63.4432 389.729 64.7599 390.196C65.3909 389.965 66.0584 389.905 66.7198 389.917C70.7487 390.014 74.7655 389.747 78.7823 389.51C79.4922 389.467 80.2264 389.565 80.8878 389.182C80.8878 389.188 80.8878 389.194 80.8878 389.206C81.8526 389.073 82.8659 389.303 83.7821 388.799C85.39 388.696 87.0101 388.854 88.5938 388.435C88.794 388.447 88.9882 388.466 89.1884 388.478C90.2078 388.502 91.2393 389.182 92.2526 388.441C92.7016 388.666 93.1445 388.581 93.5814 388.411C93.7088 388.265 93.8302 388.271 93.9515 388.417C94.1517 388.544 94.3641 388.526 94.5704 388.435C95.1408 388.836 95.7172 388.787 96.2876 388.435L96.3968 388.478L96.4939 388.411C97.2281 388.411 97.9562 388.417 98.6904 388.423C98.927 388.532 99.1637 388.532 99.4003 388.435C100.62 388.824 101.833 388.229 103.053 388.387C103.168 388.387 103.284 388.387 103.399 388.387C103.405 388.387 103.417 388.387 103.423 388.387C103.611 388.557 103.799 388.587 103.987 388.49C104.109 388.514 104.23 388.532 104.352 388.557C104.54 388.557 104.722 388.551 104.91 388.532C105.796 388.326 106.682 388.174 107.573 388.508C108.029 388.544 108.478 388.575 108.92 388.423C110.935 387.785 113.253 388.411 115.213 387.53C116.705 387.464 118.192 387.366 119.672 387.215C122.524 386.923 125.37 386.814 128.228 386.887C128.762 387.16 129.441 387.215 130.23 387.111C130.71 387.051 131.201 387.111 131.686 387.081C131.856 387.051 132.02 386.99 132.166 386.899C132.251 386.79 132.336 386.686 132.427 386.589C135.291 386.498 138.106 385.964 140.915 385.448C141.813 385.454 142.724 385.539 143.579 385.144C143.785 385.138 143.992 385.132 144.198 385.126C145.084 385.089 145.794 384.549 146.613 384.312C146.813 384.057 147.098 384.008 147.396 383.99C147.863 382.672 147.681 381.343 147.505 380.007C147.499 379.812 147.487 379.624 147.481 379.43C147.626 379.314 147.79 379.211 147.996 379.126C148.761 378.264 148.712 377.025 149.398 376.126C149.622 375.817 149.823 375.495 150.017 375.173C150.114 375.064 150.211 374.96 150.314 374.857C150.411 374.754 150.508 374.645 150.599 374.535C150.636 374.475 150.672 374.414 150.709 374.353C150.751 374.213 150.751 374.074 150.727 373.934C150.715 373.861 150.703 373.794 150.69 373.722C151.503 373.017 151.121 372.1 151.133 371.25C151.097 371.019 151.054 370.789 151.018 370.558C151.443 369.264 151.528 367.898 151.825 366.574C152.329 364.334 153.852 362.518 154.258 360.265C155.557 359.931 155.393 358.559 156.042 357.769C156.509 357.205 156.182 356.779 155.945 356.306C156.376 354.508 156.376 352.717 155.884 350.932C155.818 350.853 155.745 350.78 155.672 350.713C156.115 350.154 156.06 349.608 155.569 349.074C156.297 348.642 156.248 347.841 156.358 347.185C156.904 343.9 157.122 340.554 158.226 337.372C158.293 337.22 158.372 337.074 158.451 336.929C158.536 336.801 158.633 336.68 158.736 336.564C158.833 336.449 158.918 336.334 158.991 336.206C159.052 336.078 159.088 335.945 159.106 335.805C159.118 335.672 159.131 335.532 159.131 335.398C159.131 335.332 159.131 335.265 159.131 335.198C159.434 334.67 159.871 334.245 160.368 333.935C161.351 333.322 161.461 332.374 161.673 331.354C161.922 330.146 161.764 329.168 160.945 328.269C161.442 327.407 160.945 326.703 160.599 325.968C160.544 325.907 160.496 325.84 160.441 325.78C160.326 325.664 160.211 325.549 160.095 325.434C159.986 325.312 159.883 325.191 159.774 325.075C159.671 324.948 159.573 324.82 159.476 324.693C157.759 322.349 158.263 320.017 159.537 317.697C159.695 317.485 159.853 317.278 159.944 317.029C159.98 316.853 160.004 316.677 160.004 316.501C160.004 316.349 159.992 316.197 159.968 316.052C159.992 316.052 160.016 316.052 160.047 316.045C160.198 315.967 160.326 315.857 160.441 315.73C160.993 314.995 160.993 314.157 160.872 313.301C161.752 311.789 161.248 310.38 160.538 308.995L160.55 309.008C160.368 308.783 160.441 308.461 160.253 308.242C160.174 308.194 160.15 308.121 160.18 308.03C160.138 307.793 159.998 307.623 159.792 307.508C159.713 307.368 159.598 307.253 159.47 307.149V307.161C159.373 307.052 159.294 306.931 159.228 306.797C159.185 306.682 159.149 306.566 159.106 306.451C159.04 306.396 158.973 306.348 158.906 306.293C158.906 306.293 158.906 306.293 158.9 306.299C158.888 306.287 158.876 306.275 158.87 306.257C158.949 306.05 158.991 305.856 158.724 305.716C158.645 305.546 158.506 305.437 158.36 305.328C157.553 304.745 156.91 304.089 156.964 302.965C156.983 302.631 156.825 302.225 156.612 301.963C155.429 300.482 156.024 298.666 155.739 297.033C155.575 296.122 155.636 295.168 155.156 294.312C155.156 293.353 155.903 292.478 155.49 291.47C155.296 291.306 155.187 291.063 155.059 290.845C155.083 290.578 155.108 290.31 155.162 290.049C154.962 289.193 155.314 288.294 155.241 287.426C155.326 287.226 155.417 287.025 155.508 286.825C156.612 284.293 156.703 281.505 157.529 278.9C157.438 278.694 157.377 278.5 157.328 278.305C157.959 277.206 158.16 275.998 158.293 274.765C158.506 274.449 158.73 274.133 158.936 273.812C159.27 273.265 159.507 272.664 159.913 272.166C160.095 271.844 160.277 271.522 160.502 271.231C160.587 271.115 160.66 271 160.726 270.873C160.805 270.684 160.902 270.508 161.005 270.332C161.066 270.217 161.127 270.095 161.187 269.98C161.26 269.871 161.339 269.767 161.43 269.67C161.473 269.622 161.515 269.567 161.558 269.518C161.649 269.415 161.734 269.312 161.819 269.209C161.861 269.154 161.903 269.099 161.946 269.045C162.037 268.935 162.116 268.814 162.189 268.693C162.249 268.553 162.31 268.419 162.377 268.286C162.886 267.193 163.087 266.002 163.426 264.855C163.687 264.375 163.948 263.901 164.203 263.422C164.24 263.422 164.276 263.385 164.318 263.312C164.361 263.239 164.331 263.154 164.233 263.069C164.233 262.25 163.736 261.618 163.426 260.92C163.572 260.015 163.287 259.232 162.747 258.527C162.686 258.388 162.626 258.242 162.559 258.108C162.486 257.975 162.407 257.841 162.328 257.72C162.255 257.586 162.183 257.458 162.104 257.325C161.964 257.046 161.879 256.736 161.758 256.45C161.667 256.311 161.552 256.195 161.406 256.11C161.357 256.092 161.309 256.086 161.26 256.074C161.285 255.989 161.297 255.904 161.291 255.813C161.248 255.455 160.933 255.266 160.775 254.981C160.702 254.829 160.641 254.677 160.581 254.526C160.508 254.374 160.411 254.24 160.283 254.131C160.107 254.046 159.968 253.955 159.859 253.858C159.816 253.341 159.719 252.837 159.513 252.37C159.61 251.914 159.756 251.453 159.683 251.034C159.561 250.53 159.489 250.002 158.997 249.722C159.027 249.668 159.064 249.619 159.088 249.558C159.07 249.479 159.064 249.406 159.046 249.327C159.276 248.854 159.252 248.301 159.398 247.803C159.561 247.239 159.573 246.613 160.192 246.297C160.356 246.188 160.496 246.054 160.55 245.854H160.538C161.357 243.006 161.697 240.103 161.697 237.158C161.794 237.043 161.897 236.928 162.013 236.812C162.098 236.66 162.158 236.496 162.183 236.32C162.195 236.144 162.195 235.968 162.17 235.786C162.116 235.616 162.037 235.464 161.922 235.324C161.885 235.288 161.867 235.264 161.837 235.233C161.891 234.954 161.952 234.675 162.007 234.401C162.098 234.365 162.195 234.335 162.298 234.304C162.535 234.189 162.741 234.037 162.905 233.831C162.929 233.788 162.959 233.74 162.984 233.697C163.251 233.667 163.475 233.478 163.663 233.229C164.658 231.869 165.89 230.637 166.072 228.833C166.412 228.365 166.794 228.639 167.17 228.772C168.147 228.469 168.202 227.673 168.086 226.878C167.989 226.222 167.813 225.548 168.026 224.922C168.408 223.799 168.347 222.682 168.232 221.546C167.492 218.917 167.413 216.172 167.977 213.864C168.105 213.7 168.238 213.543 168.396 213.391C168.554 213.312 168.699 213.209 168.821 213.081C169.009 212.881 169.154 212.65 169.239 212.383C169.294 212.207 169.33 212.037 169.324 211.848C169.312 211.618 169.306 211.387 169.324 211.168C169.561 210.944 169.828 210.749 170.113 210.573C170.38 210.786 170.696 210.895 171.035 210.962C174.148 209.674 174.998 206.832 175.604 203.966C176.029 201.95 176.569 200.074 178.025 198.568C178.414 198.167 178.705 197.748 178.784 197.171C179.045 195.277 179.245 193.364 180.21 191.639C180.446 191.214 180.428 190.753 180.088 190.394C180.155 190.352 180.222 190.297 180.282 190.243C180.774 189.684 181.041 189.01 181.065 188.287C181.065 188.275 181.065 188.263 181.065 188.251C181.393 187.808 181.733 187.37 182.042 186.915C182.23 186.878 182.436 186.86 182.667 186.878C184.214 185.876 184.233 183.933 185.288 182.628C185.355 182.458 185.385 182.288 185.385 182.105C185.373 182.014 185.361 181.929 185.349 181.838C185.482 181.717 185.616 181.601 185.749 181.48C185.834 181.346 185.95 181.231 186.083 181.146L186.101 181.122C186.186 181.025 186.283 180.946 186.399 180.891C186.399 180.83 186.399 180.763 186.393 180.703C186.368 180.569 186.405 180.46 186.502 180.369C186.599 180.229 186.69 180.095 186.781 179.956L186.738 180.017C187.151 179.561 186.987 179.063 186.842 178.571L186.799 178.553ZM181.284 176.731C181.284 176.731 181.271 176.713 181.265 176.707C181.271 176.713 181.278 176.719 181.29 176.731H181.284ZM181.035 176.452C180.998 176.416 180.968 176.379 180.932 176.343C180.932 176.343 180.944 176.331 180.95 176.325C180.98 176.367 181.005 176.41 181.035 176.452ZM78.5699 2.86501H78.5882C78.5093 3.04718 78.3879 3.18078 78.1998 3.2415C78.1998 3.23543 78.1937 3.22935 78.1877 3.21721C78.3151 3.09576 78.4425 2.98038 78.5699 2.85894V2.86501ZM156.176 261.989C156.176 261.989 156.176 261.989 156.176 261.995C156.163 262.001 156.145 262.001 156.133 262.007C156.145 262.001 156.157 261.995 156.17 261.989H156.176Z" fill="black"/>
</svg>
