<svg width="668" height="126" viewBox="0 0 668 126" fill="none" xmlns="http://www.w3.org/2000/svg">
<path d="M667.867 122.045C667.746 115.248 668.289 108.451 667.585 101.674C667.344 100.548 667.203 99.4221 667.565 98.2758C667.022 96.5665 667.384 94.817 667.303 93.0875C667.102 88.7036 667.686 84.2996 667.002 79.9358C666.72 78.1863 666.639 76.4166 666.921 74.647C666.921 74.4459 666.82 74.3453 666.68 74.2649C666.68 73.9029 666.68 73.5409 666.68 73.1589C666.519 67.1461 667.022 61.1132 666.398 55.1004C665.875 51.5611 666.478 47.9614 665.815 44.4423C665.996 42.19 665.976 39.9377 665.815 37.6854C665.815 35.5337 665.573 33.3618 665.875 31.2503C666.197 28.9377 665.553 27.2887 663.662 26.0218C663.481 26.062 663.34 26.0017 663.239 25.8408C662.978 25.6196 662.696 25.3783 662.334 25.3582C661.59 25.4587 660.865 25.5191 660.141 25.2576C659.819 24.9761 659.417 24.9962 659.014 24.9962C658.974 24.9962 658.954 24.9962 658.914 24.9962C658.874 24.9158 658.833 24.8353 658.773 24.7549C658.592 24.7951 658.431 24.7549 658.27 24.6342C658.169 24.6543 658.049 24.6745 657.948 24.7147C657.827 24.6342 657.687 24.5538 657.566 24.4734C657.224 24.413 656.862 24.413 656.52 24.413C656.439 24.2924 656.339 24.2119 656.158 24.1918C656.017 24.2521 655.876 24.232 655.775 24.0913C655.554 23.8701 655.353 23.6287 655.031 23.5885C654.87 23.2467 654.548 23.1863 654.206 23.1461C654.206 23.0054 654.146 22.9048 653.944 22.8445H653.924C653.381 22.5629 652.999 22.1205 652.657 21.6178C652.476 21.4167 652.275 21.3765 652.053 21.5575C651.228 21.839 650.403 21.8591 649.558 21.6178C649.156 20.8938 648.633 20.4313 647.728 20.8134C647.547 21.0949 647.365 21.3966 647.184 21.6781L647.104 21.7787C646.581 21.839 645.877 21.8591 645.696 21.4167C644.468 18.4405 641.591 19.3454 639.479 19.0437C637.346 18.7421 635.013 19.1041 632.779 19.1242C631.854 18.4203 630.788 18.3801 629.681 18.4807C629.419 18.36 629.158 18.1388 628.896 18.1187C626.603 18.0584 624.088 18.722 622.539 16.1882C622.458 16.0474 622.177 16.0072 621.996 15.9469C619.219 15.2229 617.248 13.4734 615.779 11.0602C615.175 10.0748 614.169 9.81341 613.083 9.91396C611.936 10.0346 610.729 10.1955 609.723 9.75308C607.993 8.98891 606.263 9.12968 604.573 9.43133C601.434 9.9944 598.296 10.1352 595.157 9.81341C594.232 9.71286 593.326 9.57209 592.421 9.89385C591.636 9.81341 590.63 10.0145 590.087 9.61231C588.377 8.36551 586.667 8.9487 584.937 9.25034C582.884 8.1242 580.812 8.16442 578.72 9.14979C575.782 9.61231 572.644 8.3253 569.868 10.1955C569.807 10.2357 569.546 9.9944 569.385 9.89385C568.359 9.89385 567.333 9.89385 566.307 9.89385C565.2 9.89385 564.777 7.82255 563.872 8.52639C562.665 9.47155 561.156 8.90848 560.07 9.81341C559.064 10.296 558.038 10.7586 557.032 11.2412C556.388 11.4423 555.925 11.0803 555.382 10.839C552.706 9.63242 550.694 10.8189 550.272 13.7348C550.191 14.3381 550.252 14.9615 549.588 15.2832C549.789 15.3838 549.97 15.4441 550.111 15.4642C549.99 15.5447 549.829 15.5044 549.588 15.2832C547.314 12.1662 545.765 11.764 542.747 13.5136C541.138 12.7293 539.709 11.4021 537.697 11.764C537.275 10.9396 536.893 10.1955 535.686 10.7385C534.981 11.0401 534.156 11.02 533.372 11.1406C532.104 9.83352 530.475 10.7385 529.046 10.477C528.845 10.658 528.624 10.839 528.423 11.0401C527.557 11.1809 526.572 10.6982 525.807 11.4825C524.318 10.4569 522.689 10.5776 521.019 10.9597C521.019 10.9597 521.019 10.9597 521.019 10.9798C520.717 10.8792 520.536 10.6379 520.335 10.4167C518.343 9.31067 516.17 10.0748 514.098 9.83352C512.488 9.02913 510.899 9.43133 509.611 10.3765C508.666 11.0803 507.761 11.0401 506.755 10.9999C506.714 10.0949 506.795 9.08946 505.447 9.08946C504.079 8.52639 502.63 8.08398 501.644 6.85729C501.242 6.07301 500.276 6.6763 499.793 6.11323C499.592 5.87192 499.351 5.67082 499.049 5.50994L499.009 5.61049C498.043 5.2083 497.037 5.50994 496.051 5.4295C495.025 5.61049 493.999 5.77137 492.973 5.95236C492.45 5.69093 491.947 5.75126 491.464 5.95236C490.74 4.96698 489.533 5.44961 488.467 5.4295C486.937 5.28874 485.348 5.79148 483.799 5.79148C483.276 5.59038 482.733 5.53005 482.189 5.53005C481.666 5.34907 481.163 5.04742 480.681 4.56479C478.186 4.40391 475.651 4.1827 473.297 5.32896C469.917 6.97795 466.235 6.93773 462.654 7.38014C462.05 7.58124 461.467 7.86277 460.843 8.00354C460.542 8.10409 460.26 8.28508 460.039 8.50628C459.636 8.52639 459.214 8.56661 458.811 8.58672C457.986 10.1151 456.095 10.3564 455.109 11.6836C452.977 13.4332 450.703 14.7805 447.786 14.499C447.726 14.499 447.645 14.6397 447.585 14.7202C447.384 14.7202 447.183 14.7202 447.001 14.7202C446.901 14.7202 446.78 14.7202 446.68 14.7403C446.458 14.7604 446.237 14.8207 446.036 14.881C445.835 14.9816 445.633 15.0821 445.432 15.1827C445.11 15.3235 444.788 15.424 444.487 15.5849C444.265 15.6653 444.044 15.7458 443.843 15.8262C443.44 16.0474 443.018 16.1681 442.555 16.1681C442.294 16.1681 442.032 16.1681 441.771 16.2284C441.207 16.3289 440.644 16.3289 440.161 16.711C440.06 16.8317 439.96 16.9523 439.9 17.0931C438.833 16.9725 437.787 16.7915 436.721 17.0328C436.6 17.0328 436.479 17.0529 436.359 17.1333C435.976 17.1735 435.614 17.2138 435.232 17.254C434.447 16.7714 433.804 15.9871 432.757 15.967C432.536 15.7458 432.335 15.5044 432.114 15.2832C431.932 15.1224 431.751 15.1224 431.59 15.2832C431.631 15.2028 431.651 15.1023 431.691 15.0218C431.55 14.9615 431.389 14.9012 431.248 14.8408L431.067 14.881C431.007 15.0419 430.947 15.2229 430.846 15.3637C430.242 15.2028 429.639 15.0218 429.035 14.8609C428.895 15.0218 428.774 15.1827 428.633 15.3637C428.552 15.3235 428.472 15.2832 428.392 15.2631C426.782 14.9213 425.152 14.9012 423.543 14.5794C423.08 14.499 422.617 14.499 422.155 14.6196C421.953 14.7001 421.772 14.8207 421.591 14.9414C420.807 14.0364 419.479 14.3783 418.332 14.318C416.159 13.3929 414.047 12.0657 411.592 13.5136C410.405 13.3125 409.218 13.1717 408.011 13.413C407.951 12.85 407.89 12.307 407.83 11.7439C407.629 11.3216 407.408 10.8993 407.206 10.477C406.804 10.4569 406.422 10.4167 406.019 10.3966C405.818 10.5977 405.617 10.5977 405.416 10.3966C405.255 10.3966 405.094 10.3966 404.953 10.3966C404.732 10.1151 404.39 9.9944 404.068 9.81341C403.947 9.87374 403.826 9.87374 403.706 9.81341C403.424 9.89385 403.203 10.1151 402.941 10.2558C402.78 10.3765 402.579 10.4368 402.378 10.4167C402.076 10.7385 401.513 10.5776 401.191 10.8993C400.969 10.6982 400.708 10.5575 400.487 10.3765C400.386 10.2759 400.346 10.1553 400.386 10.0145C400.306 9.63242 400.044 9.371 399.742 9.12968V9.19001C398.817 9.02913 397.75 7.7019 397.107 9.65253C396.805 10.5776 396.04 10.7787 395.155 10.1352C394.592 9.73297 394.008 9.87374 393.485 10.296C392.761 10.8792 392.057 10.9597 391.292 10.3564C390.648 9.85363 389.924 10.1754 389.24 10.296C389.16 10.4167 389.039 10.477 388.898 10.477C388.677 10.5172 388.496 10.658 388.335 10.7988C388.013 10.6178 387.711 10.7385 387.389 11.0803L387.45 11.02C387.188 11.1809 386.967 11.4021 386.766 11.6434C386.544 11.8043 386.343 12.0255 386.102 12.1864H386.061C385.78 12.6288 385.156 12.488 384.894 12.9103L384.935 12.8701C384.673 13.0511 384.472 13.2924 384.271 13.5136C383.647 14.7202 382.702 15.7458 382.359 17.0931C381.957 17.1333 381.535 17.1937 381.132 17.2339C380.73 16.9926 380.327 16.7714 379.925 16.53C378.175 16.7311 376.364 16.2887 374.694 17.073C372.26 17.3344 370.57 19.4459 368.095 19.6269L367.793 19.647C367.592 19.6671 367.411 19.7275 367.23 19.8481C367.069 19.9688 366.888 20.0894 366.707 20.19C366.506 20.2704 366.305 20.3509 366.124 20.4313C365.942 20.552 365.761 20.7128 365.6 20.8737C365.44 21.0547 365.258 21.2156 365.057 21.3765C364.836 21.5172 364.655 21.6982 364.494 21.9194C364.373 22.1809 364.313 22.4423 364.313 22.7238C364.333 22.9852 364.413 23.2467 364.554 23.4679C361.697 23.8298 359.042 24.956 356.366 25.9011C356.265 25.9414 356.205 26.0017 356.124 26.062C355.541 25.9011 354.917 25.9011 354.394 25.6196C353.911 25.4587 353.368 25.0163 352.946 25.1973C349.344 26.605 346.206 25.1169 342.886 23.9505C341.639 23.5081 340.291 22.7037 338.822 22.9852C338.641 22.9651 338.48 22.945 338.299 22.945C338.178 22.7841 338.038 22.7238 337.836 22.7037C337.193 22.02 336.167 22.2412 335.462 21.5977C334.617 20.8335 333.833 21.296 333.209 22.0803C332.867 22.1406 332.525 22.201 332.163 22.2412C329.708 22.201 327.415 22.8043 325.322 24.0712C324.236 22.8445 322.244 23.7293 320.856 23.1662C320.514 23.1662 320.192 23.2266 319.89 23.3472C319.609 23.5081 319.327 23.6891 319.086 23.9103C318.321 23.5684 317.758 21.839 316.691 23.5684C316.45 24.5739 315.585 24.5337 314.82 24.6745C314.68 24.6745 314.519 24.7147 314.378 24.7147C314.096 24.8554 313.895 25.0565 313.754 25.3381C313.734 25.4587 313.714 25.5794 313.714 25.7C313.674 25.7 313.654 25.7 313.613 25.7C313.332 25.6598 313.05 25.6397 312.748 25.6799C310.273 26.9066 307.256 27.0876 305.385 29.4606C305.324 29.1589 305.344 28.8372 305.344 28.5154C305.204 28.4148 305.063 28.2942 304.922 28.1735C304.982 26.1626 303.272 26.4039 302.347 26.605C300.878 26.9267 299.832 26.5447 298.745 25.7403C298.605 25.4185 298.363 25.2375 298.001 25.2174L297.84 25.4587H297.82C297.82 25.4587 297.941 25.2978 298.001 25.2174C297.9 25.0565 297.84 24.8957 297.78 24.7348C297.498 24.7348 297.196 24.6946 296.915 24.6745C296.713 24.7549 296.633 24.9158 296.593 25.0968C296.452 24.9962 296.291 24.9962 296.13 25.0968C295.707 25.318 295.285 25.3381 294.862 25.137C294.42 24.8957 294.017 24.8554 293.635 25.2375C293.555 25.3783 293.514 25.5392 293.514 25.7C292.79 26.0017 291.945 25.881 291.201 26.1022C291.201 26.1022 291.201 26.0821 291.201 26.062C290.98 25.8207 290.718 25.6196 290.416 25.4989C286.815 24.9962 283.214 24.4734 279.612 25.5392C279.21 25.6397 278.828 25.7805 278.506 25.9414C276.333 25.3381 273.315 25.5392 271.484 26.4441C271.223 26.3637 270.961 26.2832 270.72 26.2028C265.227 26.2028 259.675 26.605 254.524 24.0511C253.458 23.669 252.291 23.488 251.386 22.8847C249.917 21.9395 248.549 22.0602 247.1 22.7238C245.491 22.0602 244.706 20.8134 244.585 19.1041C243.76 17.8372 243.74 16.1077 242.292 15.2028C241.829 14.6799 241.085 14.4587 240.763 13.7348C239.898 11.8445 238.409 10.5776 236.538 9.71286C235.351 9.27045 234.144 8.92859 232.856 9.08946C232.715 9.08946 232.594 9.06935 232.454 9.04924C232.192 9.00902 231.931 8.9688 231.649 8.9487C230.06 9.00902 228.571 8.04376 226.941 8.36551C226.68 8.3253 226.438 8.24486 226.217 8.10409C226.136 8.00354 226.056 7.90299 225.995 7.80244C225.855 6.11323 224.688 6.33444 223.541 6.47521C223.179 6.01268 222.817 5.53005 222.213 5.32896C221.428 4.48435 219.879 4.18271 220.342 2.5136C220.262 1.76955 219.698 1.36735 219.175 0.965159C217.445 -0.402298 217.204 -0.382188 214.709 1.44779L212.355 1.60867C212.214 1.70922 212.073 1.72933 211.912 1.68911C211.691 1.80977 211.59 1.97064 211.59 2.15163C211.248 1.8902 210.886 1.91031 210.524 2.15163C210.423 2.2924 210.303 2.33262 210.142 2.31251C209.78 2.35273 209.538 2.57393 209.277 2.79514C209.136 2.9158 208.995 2.95602 208.814 2.93591C208.21 3.37832 207.345 2.9158 206.802 3.51909C205.152 4.98709 203.181 6.07301 201.712 7.76223C201.531 7.74212 201.35 7.76223 201.189 7.88288C200.907 8.10409 200.565 8.14431 200.223 8.22475C200.545 8.10409 200.867 8.00354 201.189 7.88288C200.646 7.82255 200.163 7.96332 199.781 8.36551C199.62 8.30519 199.459 8.34541 199.338 8.46606C198.231 8.56661 197.648 9.25034 197.346 10.2558C196.22 11.1205 195.093 11.9853 193.946 12.8701C193.544 12.8701 193.443 12.9907 193.584 13.2119C193.202 13.0913 192.84 13.0913 192.518 13.4734C192.296 13.6342 192.095 13.7951 191.874 13.956C191.532 14.0163 191.19 14.0968 190.848 14.1571C188.695 15.8061 187.347 18.2192 185.134 19.8079C185.174 22.5227 183.042 23.7293 181.332 25.2375C180.949 25.2375 180.668 25.4185 180.487 25.7403C179.642 25.881 178.937 26.2028 178.535 27.0273C178.314 27.4898 178.032 27.8719 177.388 27.8317C175.517 27.711 174.431 28.7969 173.525 30.1443C173.385 30.1242 173.244 30.1041 173.103 30.0638C172.278 30.1845 171.856 30.828 171.373 31.3911C170.689 32.5977 169.723 33.4825 168.435 34.0053C167.208 34.5081 166.383 35.3527 166.102 36.6799C165.961 36.9413 165.8 37.2028 165.659 37.4642C165.096 37.0821 164.633 36.3783 163.909 36.3984C161.716 35.232 159.684 36.2978 157.632 36.8006C157.551 36.7 157.45 36.6196 157.35 36.5392C157.129 36.3783 156.887 36.2576 156.605 36.1772C156.344 36.137 156.082 36.137 155.801 36.1772C155.68 36.2174 155.559 36.2375 155.418 36.2777C155.177 36.3381 154.936 36.3984 154.694 36.4587C154.453 36.4587 154.211 36.4587 153.97 36.4185C153.728 36.4185 153.507 36.4185 153.266 36.4185C152.904 36.4185 152.562 36.4788 152.28 36.7201C152.22 36.8207 152.159 36.9212 152.119 37.0218C151.857 37.5245 151.294 37.4843 150.872 37.7055C149.343 37.3033 148.115 38.1077 146.868 38.7713C145.942 39.254 145.017 39.6763 143.971 39.2942C141.758 38.4898 139.846 38.9322 138.096 40.1388C137.734 40.0583 137.352 39.9578 136.99 39.8371C135.662 40.0583 134.455 40.5209 133.408 41.3856C133.328 41.3051 133.207 41.2448 133.046 41.2448C132.805 40.8426 132.282 40.6415 132.262 40.0986C130.974 39.1936 129.586 38.8518 128.057 39.4551C127.192 39.7969 126.327 39.7969 125.461 39.4551C125.361 39.1333 125.16 38.9121 124.818 38.8518C123.168 36.9816 120.653 36.8207 118.621 35.6945C118.42 35.3728 118.158 35.1717 117.836 35.0711C117.836 34.9103 117.796 34.7293 117.756 34.5684C117.092 33.3819 115.804 32.8792 114.698 32.7786C112.465 32.5574 110.433 31.8536 108.481 30.9084C106.912 30.1644 105.322 29.7622 103.612 29.7823C101.178 28.9779 98.7033 29.6415 96.2488 29.4606C95.8263 29.6616 95.4239 29.8627 95.0014 30.0638C93.7943 29.3399 92.4664 28.7567 91.38 27.8719C90.6557 27.2887 89.9717 26.9267 89.2072 27.3088C87.9598 27.9322 86.8532 27.3088 85.6864 27.1479C85.6059 27.0072 85.465 26.9267 85.3041 26.9267C84.5798 25.5794 83.5739 24.6141 81.904 24.7147C81.0389 24.7549 80.2945 24.4331 79.5903 23.9505C78.182 22.9852 76.7938 22.9651 75.2849 23.8097C74.6813 24.1516 73.9168 24.232 73.2328 24.4331C71.2812 23.9304 69.8528 25.0364 68.3841 26.0017C68.3439 25.9615 68.3036 25.9213 68.2433 25.881C67.0764 26.0821 65.9095 26.8262 64.7426 26.5044C62.8715 25.9816 61.7046 26.786 60.7389 28.1936C59.8738 28.435 59.4111 29.1187 58.9886 29.7823C58.2039 31.0492 56.9566 32.0346 55.7696 32.4368C54.2003 32.9797 53.0133 33.9852 51.8665 35.0108C50.9209 35.1918 49.9753 35.3326 49.0499 35.4935C46.1125 37.6452 42.4509 38.6507 39.8958 41.3856C39.8555 41.5666 39.8153 41.7476 39.7348 41.9285C38.0649 41.9487 36.3951 42.0693 34.7654 42.5519C33.7796 43.6379 32.3311 43.3764 31.2849 43.2156C29.8766 43.0145 28.4682 43.0346 27.08 43.0547C24.7261 42.934 22.3521 42.6525 20.0585 43.3965C19.2337 43.658 18.449 43.7183 17.6644 43.7183C14.7874 43.3965 12.1317 42.2503 9.29493 41.8883C8.65112 41.4258 7.82625 41.7073 7.14221 41.3856C6.8203 41.3454 6.51852 41.3051 6.19662 41.2649C5.37174 41.2649 4.54687 41.285 3.70188 41.3051C0.36214 40.4203 0.0603567 40.6214 0 43.9194C0 44.1205 0 44.3417 0 44.5428C0 66.6634 0 88.8042 0 110.925C0 114.545 0.140832 118.164 0.140832 121.784C0.140832 123.192 0.623685 123.936 2.1326 123.815C2.75629 123.775 3.37997 123.815 4.00366 123.815C17.4431 123.715 30.9026 123.614 44.342 123.534C51.8866 123.473 59.4312 123.453 66.9758 123.393C72.77 123.574 78.5643 123.614 84.3585 123.393C84.5597 123.393 84.781 123.393 84.9822 123.393C91.3599 123.534 97.7376 123.715 104.115 123.795C115.12 123.956 126.145 124.237 137.15 124.036C137.573 124.036 137.975 124.036 138.398 124.036C138.82 124.036 139.223 124.036 139.645 124.036C140.752 124.137 141.858 124.278 142.965 124.318C146.626 124.438 150.268 124.519 153.93 124.619C154.674 125.183 155.519 124.941 156.324 124.941C169.421 124.941 182.519 124.941 195.636 124.941C196.763 124.941 197.91 124.74 198.996 125.203C199.398 124.921 199.781 124.921 200.183 125.203C200.807 124.921 201.43 124.901 202.074 125.203C203.422 124.921 204.77 124.861 206.098 125.203C206.299 125.464 206.52 125.464 206.722 125.203C209.176 124.74 211.631 125.022 214.085 125.022C223.018 125.022 231.951 124.8 240.863 125.223C241.386 125.183 241.889 125.122 242.413 125.122C271.022 125.183 299.611 125.243 328.22 125.303C335.965 125.303 343.691 125.283 351.437 125.263C352.664 125.323 353.911 125.424 355.139 125.424C365.44 125.464 375.76 125.504 386.061 125.484C387.691 125.484 389.361 125.746 390.991 125.323C393.646 125.927 396.342 125.565 399.018 125.625C407.589 125.766 416.159 125.806 424.73 125.886C428.251 125.866 431.751 125.806 435.272 125.806C495.126 125.846 554.98 125.886 614.833 125.927C622.68 125.927 630.546 125.866 638.393 125.826C648.05 126.228 657.707 125.826 667.384 125.685L667.424 125.846C668.349 124.66 667.887 123.272 667.867 121.985V122.045ZM519.309 23.9304C519.309 23.9304 519.228 24.0511 519.168 24.1114C519.168 24.1114 519.168 24.0913 519.148 24.0712C519.208 24.0309 519.269 23.9907 519.329 23.9505L519.309 23.9304ZM378.819 27.2083C378.819 27.2083 378.798 27.1882 378.778 27.168C378.778 27.168 378.819 27.168 378.839 27.168C378.839 27.168 378.839 27.1882 378.839 27.2083H378.819ZM168.938 59.3435C168.938 59.3435 168.938 59.3435 168.898 59.3636C168.898 59.3636 168.918 59.3636 168.938 59.3435ZM141.496 112.212C141.496 112.212 141.496 112.212 141.516 112.232C141.516 112.232 141.516 112.232 141.516 112.252C141.496 112.252 141.476 112.212 141.456 112.192L141.496 112.212ZM431.49 15.4843L431.47 15.5044C431.369 15.5044 431.269 15.5447 431.188 15.5648C431.289 15.5447 431.389 15.5044 431.51 15.4843H431.49ZM293.615 25.8006C293.535 25.9615 293.414 26.062 293.293 26.1223C293.414 26.0218 293.514 25.9213 293.615 25.8006Z" fill="black"/>
</svg>
