<svg width="112" height="175" viewBox="0 0 112 175" fill="none" xmlns="http://www.w3.org/2000/svg">
<path d="M6.51627 173.376C6.51627 173.376 6.31709 173.291 6.23172 173.12C6.23172 173.063 6.20325 173.006 6.20325 172.949C6.20325 172.835 6.26017 172.721 6.31708 172.579C6.31708 172.579 6.31708 172.522 6.31708 172.465C6.4309 172.208 6.11789 171.382 6.26017 171.126C6.37399 170.869 6.26017 170.413 6.26017 170.413C6.26017 170.413 6.1748 169.901 6.31708 169.644C6.37399 169.559 6.31708 169.416 6.26017 169.302C6.14635 169.075 5.94716 168.904 5.94716 168.904C5.94716 168.904 5.83334 168.733 5.83334 168.562C5.83334 168.562 5.80488 168.334 5.83334 168.277C5.9187 168.134 5.89024 168.049 5.83334 167.992C5.77642 167.964 5.71951 167.935 5.63415 167.907C5.46342 167.85 5.3496 167.479 5.29269 167.223C5.29269 167.137 5.26423 167.08 5.23578 167.052C5.23578 167.052 5.23578 167.052 5.23578 167.023C5.20732 166.881 5.20732 166.511 5.40651 166.283C5.54879 166.112 5.49188 165.941 5.40651 165.741C5.40651 165.741 5.40651 165.741 5.40651 165.685C5.40651 165.656 5.4065 165.599 5.37805 165.571C5.37805 165.571 5.37805 165.514 5.37805 165.457C5.37805 165.428 5.37805 165.371 5.37805 165.343C5.37805 165.286 5.37805 165.229 5.32114 165.172C5.32114 165.172 5.32114 165.172 5.32114 165.143C5.12195 164.716 4.60976 164.232 4.41057 164.203C4.15447 164.146 4.04066 164.146 3.98375 163.833C3.98375 163.804 3.98374 163.747 3.95528 163.719C3.78455 163.377 3.2439 162.978 3.04472 162.608C2.90244 162.351 2.73171 161.725 2.64635 161.212C2.64635 161.212 2.64635 161.155 2.64635 161.126C2.64635 161.041 2.64635 160.956 2.6179 160.899C2.6179 160.756 2.6179 160.642 2.6179 160.557C2.64635 160.443 2.6179 160.329 2.6179 160.243C2.6179 160.243 2.39025 160.015 2.19106 159.845C2.04878 159.731 1.96343 159.474 1.96343 159.189C1.96343 159.161 1.96343 159.104 1.96343 159.075C1.96343 158.819 2.02033 158.563 2.07724 158.392C2.24797 158.078 2.58944 157.309 2.44716 157.053C2.44716 157.053 2.39025 156.882 2.41871 156.796C2.41871 156.711 2.50407 156.625 2.6179 156.483C2.67481 156.398 2.67481 156.255 2.6179 156.113C2.6179 156.113 2.6179 156.084 2.6179 156.056C2.56098 155.828 2.44716 155.543 2.39025 155.4C2.39025 155.343 2.39025 155.286 2.39025 155.23C2.39025 155.23 2.39025 155.173 2.39025 155.144C2.39025 154.859 2.44715 154.546 2.47561 154.289C2.47561 154.09 2.50407 154.062 2.47561 154.033C2.47561 154.033 2.41871 154.033 2.36179 153.976C2.24798 153.891 2.21951 153.834 2.27642 153.72C2.27642 153.691 2.30488 153.634 2.33334 153.577C2.36179 153.463 2.33334 153.406 2.33334 153.349C2.27643 153.264 2.16261 153.15 1.99188 152.979C1.87805 152.865 1.82114 152.694 1.82114 152.495L1.82114 152.438C1.82114 152.01 2.04879 151.498 2.24797 151.298C2.58944 150.985 2.56099 150.7 2.67481 150.187C2.70326 150.073 2.67481 149.931 2.67481 149.817C2.58944 149.475 2.30488 149.162 2.13415 149.048C2.02033 148.962 1.99188 148.848 1.99188 148.677C1.99188 148.506 1.99187 148.307 2.02033 148.079C2.02033 147.965 2.02033 147.851 2.02033 147.794C1.93496 147.595 1.73577 147.566 1.50813 147.424C1.28049 147.281 1.19513 147.196 1.25205 146.997C1.25205 146.997 1.25204 146.883 1.2805 146.826C1.30895 146.683 1.30895 146.569 1.2805 146.455C1.2805 146.455 1.16667 146.199 1.05285 146C0.882112 145.743 0.796754 145.23 0.768297 144.832C0.768297 144.746 0.768297 144.689 0.768297 144.604C0.768297 144.518 0.768297 144.433 0.768297 144.376C0.768297 144.262 0.768297 144.176 0.768297 144.119C0.768297 144.119 0.654481 143.92 0.569116 143.834C0.512201 143.749 0.483743 143.664 0.512201 143.55C0.512201 143.436 0.569108 143.293 0.654474 143.122C0.711389 143.008 0.711389 142.894 0.654474 142.78C0.597566 142.609 0.455293 142.439 0.313013 142.268C0.142282 142.068 1.44181e-06 141.555 1.46298e-06 141.071L1.46672e-06 140.986C1.47792e-06 140.729 0.0569168 140.501 0.142282 140.359C0.455286 139.875 0.711382 139.96 1.05285 139.846C1.39431 139.704 1.53659 139.618 1.62196 139.248C1.70732 138.878 2.19106 138.336 2.56098 138.051C2.90244 137.795 3.21546 137.368 3.10163 136.912C3.10163 136.855 3.10163 136.769 3.07318 136.684C3.07318 136.656 3.07318 136.627 3.07318 136.599C3.01627 136.2 3.13008 135.858 3.24391 135.63C3.35773 135.431 3.32928 135.374 3.27236 135.26C3.27236 135.26 3.24391 135.203 3.21546 135.146C3.21546 135.117 3.21546 135.06 3.21546 135.032C3.21546 134.861 3.44309 134.718 3.55692 134.433C3.67074 134.206 3.72765 133.921 3.81301 133.664C3.81301 133.664 3.89838 133.436 3.92684 133.322C3.98375 133.237 3.98375 133.18 3.98375 133.095C3.98375 133.038 3.98375 132.981 3.98375 132.924L3.98375 132.867C3.98375 132.81 3.98374 132.753 3.95529 132.667C3.95529 132.667 3.95529 132.582 3.95529 132.553C3.95529 132.525 3.95529 132.468 3.95529 132.439C3.98374 132.183 4.2683 132.097 4.63822 131.927C5.0935 131.727 4.92276 131.385 5.06504 131.214C5.20732 131.043 5.17887 130.873 5.12196 130.73C5.12196 130.702 5.12196 130.645 5.12196 130.616C5.12196 130.502 5.23578 130.388 5.40651 130.16C5.6057 129.875 5.54878 129.135 5.63415 128.935C5.63415 128.878 5.63415 128.793 5.57723 128.707C5.46342 128.565 5.23577 128.394 5.06504 128.28C4.89431 128.166 4.80895 128.081 4.80895 127.938C4.80895 127.824 4.86586 127.653 4.95123 127.426C5.17887 126.856 5.40651 125.688 5.6057 125.147C5.80489 124.634 6.03253 123.95 6.1179 123.608C6.20326 123.266 6.37399 123.152 6.60163 122.896C6.60163 122.896 6.60164 122.867 6.68701 122.782C6.82928 122.554 6.80082 122.326 6.71546 121.956C6.63009 121.529 6.80082 121.586 7.08538 121.329C7.36993 121.101 7.68292 120.218 7.91057 120.047C8.13822 119.876 7.91057 119.648 8.02439 119.477C8.10976 119.278 8.08131 119.278 7.99594 119.164C7.99594 119.164 7.99594 119.079 7.91057 119.05C7.91057 118.965 7.93903 118.851 8.02439 118.708C8.13822 118.48 8.02439 118.167 7.88212 117.911C7.88212 117.911 7.88212 117.911 7.88212 117.854C7.82521 117.797 7.79676 117.74 7.73985 117.711C7.68293 117.654 7.62602 117.597 7.59757 117.569C7.56912 117.512 7.54065 117.455 7.5122 117.426C7.48374 117.284 7.5122 117.084 7.5122 116.857C7.59757 116.429 7.85367 116.401 7.99594 116.144C8.13822 115.888 8.13822 114.862 8.19513 114.72C8.19513 114.606 8.19512 114.464 8.08131 114.293C8.08131 114.264 8.0244 114.207 7.99594 114.179C7.93904 114.122 7.91058 114.065 7.88212 114.008C7.85366 113.894 7.88212 113.751 7.99594 113.58C8.10977 113.353 8.13822 113.153 8.10977 112.925C8.05286 112.697 8.0244 112.754 8.10977 112.413C8.22359 112.071 8.02439 111.757 8.02439 111.757C8.02439 111.757 7.93903 111.672 7.91057 111.615C7.91057 111.615 7.91057 111.529 7.91057 111.501C7.91057 111.387 7.91058 111.301 7.79676 111.245C7.79676 111.245 7.7683 111.244 7.73985 111.216C7.68293 111.188 7.65448 111.131 7.65448 111.102C7.65448 110.988 7.65448 110.874 7.71138 110.703C7.7683 110.475 7.79676 110.475 7.65448 110.219C7.51221 109.963 7.59758 109.621 7.59758 109.621C7.59758 109.621 7.71139 109.165 7.93903 108.88C8.13822 108.567 8.05285 107.684 8.13822 107.541C8.25204 107.427 8.02439 107.399 8.13822 107.228C8.16667 107.171 8.16667 107.114 8.13822 107.057C8.13822 107 8.0813 106.943 8.02439 106.857C8.02439 106.857 7.96749 106.8 7.93903 106.772C7.93903 106.772 7.93903 106.715 7.93903 106.686C7.93903 106.686 7.96749 106.544 8.05286 106.402C8.16667 106.231 8.16667 106.174 8.05286 106.031C8.05286 106.031 8.05286 106.031 8.05286 105.974C8.05286 105.889 7.99594 105.746 8.05286 105.575C8.16667 105.49 8.19513 105.433 8.30896 105.348C8.33741 105.319 8.36586 105.291 8.39431 105.262L8.39431 105.177L8.50814 104.949C8.50814 104.949 8.59351 104.835 8.70732 104.692C8.82115 104.521 8.96343 104.009 8.96343 104.009C8.96343 104.009 8.87806 103.781 8.96343 103.496C9.02034 103.182 9.27642 103.04 9.33334 102.841C9.4187 102.641 9.39025 102.499 9.21952 102.328C9.21952 102.328 9.16261 102.271 9.1057 102.242C9.02034 102.185 8.96342 102.128 8.93496 102.071C8.93496 101.986 8.93496 101.901 8.93496 101.701C8.93496 101.559 8.82115 101.331 8.65042 101.131C8.47969 100.875 8.30896 100.647 8.25204 100.533C8.13822 100.334 8.16667 100.305 8.28049 100.134C8.36586 99.9634 8.2805 99.9064 8.19513 99.707C8.19513 99.707 8.19513 99.6785 8.19513 99.65C8.08131 99.4221 8.25204 99.2227 8.50814 98.8523C8.76424 98.482 8.65041 98.3965 8.79269 98.1686C8.93496 97.9407 8.90651 97.7983 8.82115 97.5989C8.73578 97.428 8.7927 97.428 9.02034 97.2285C9.24798 97.0291 9.07725 96.7158 9.02034 96.6588C9.02034 96.6588 9.02033 96.6303 8.99188 96.6018C8.96342 96.5448 8.99188 96.4879 9.04879 96.3454C9.13415 96.203 9.10569 96.1175 8.99188 96.089C8.99188 96.089 8.90651 96.089 8.8496 96.0321C8.67887 95.9751 8.50814 95.9181 8.39431 95.6902C8.39431 95.6902 8.36586 95.6048 8.33741 95.5763C8.16668 95.2344 8.33741 95.035 8.39431 94.7501C8.42277 94.4652 8.39432 94.2943 8.50814 94.0664C8.62196 93.8385 8.73577 93.2403 8.73577 93.2403C8.73577 93.2403 8.73577 92.699 8.62195 92.4996C8.50814 92.2717 8.53659 91.7304 8.62195 91.531C8.70732 91.3601 8.62196 91.1892 8.50814 91.0467C8.50814 91.0467 8.45122 90.9897 8.42277 90.9897C8.30895 90.8758 8.22359 90.7618 8.10977 90.6764C8.05286 90.6479 7.99594 90.5909 7.99594 90.5339C7.99594 90.5339 7.99594 90.363 7.99594 90.2206C7.99594 90.1351 7.96749 90.0496 7.88212 89.9927C7.7683 89.8502 7.48375 89.7648 7.31301 89.6508C7.2561 89.6223 7.19919 89.5369 7.19919 89.4799C7.19919 89.4799 7.19919 89.4799 7.19919 89.4229C7.17073 89.252 7.19919 89.0526 7.19919 89.0526C7.19919 89.0526 7.08537 88.5683 7.2561 88.3689C7.39838 88.1695 7.17073 87.7991 7.19919 87.5997C7.19919 87.5142 7.19919 87.4573 7.19919 87.4003L7.17074 87.4003C7.17074 87.4003 7.11383 87.3718 7.08538 87.3433C7.00001 87.3433 7.00001 87.2863 7.02847 87.2294C7.02847 87.1724 7.08537 87.1154 7.11383 87.0299C7.17074 86.8875 7.11383 86.8305 7.02847 86.7736C7.02847 86.7736 7.00001 86.7166 6.97155 86.6881C6.97155 86.6881 6.97155 86.6881 6.97155 86.6596C6.91465 86.5172 6.82928 86.2893 6.82928 86.2893C6.82928 86.2893 6.82927 86.2038 6.74391 86.1468C6.74391 86.1468 6.71546 86.1183 6.65854 86.0899C6.57318 86.0614 6.54473 86.0044 6.57319 85.9474C6.57319 85.8904 6.60164 85.805 6.68701 85.7195C6.88619 85.4916 6.80082 84.9504 6.82928 84.7794C6.88619 84.58 6.9431 84.4661 6.82928 84.3236C6.71546 84.1527 6.74391 83.8108 6.91464 83.5829C7.02846 83.412 7 83.2411 6.85773 83.0987C6.85773 83.0987 6.85773 83.0987 6.85773 83.0702C6.85773 83.0702 6.80082 83.0132 6.77237 82.9847C6.74392 82.9847 6.71546 82.9277 6.68701 82.8707C6.65855 82.8707 6.63009 82.8138 6.63009 82.7853C6.63009 82.7568 6.57319 82.6998 6.57319 82.6713C6.51627 82.5004 6.48781 82.3295 6.51627 82.187C6.54473 81.9307 6.51626 81.8452 6.74391 81.6173C6.9431 81.3894 7.08537 80.9336 7.11383 80.6487C7.11383 80.3923 7.14228 80.1359 6.97155 79.7656C6.77237 79.3952 6.91465 79.4237 7.08538 79.2243C7.25611 79.0249 7.08538 78.683 7.17074 78.4836C7.22765 78.2842 7.17073 78.1988 7.05692 77.9993C6.9431 77.7999 7.34147 77.2872 7.34147 77.2017C7.34147 77.2017 7.48375 76.9453 7.65448 76.8313C7.85367 76.6889 7.7683 76.6035 7.88212 76.461C8.0244 76.2901 7.93903 76.2331 7.7683 76.0052C7.7683 76.0052 7.73985 75.9197 7.73985 75.8913C7.68293 75.6349 7.88212 75.3215 8.0244 75.1791C8.16668 75.0081 8.0244 74.7518 7.91057 74.5808C7.79675 74.4099 7.85366 74.3244 7.96749 74.068C7.99594 73.9541 7.9675 73.8401 7.85367 73.7262C7.85367 73.7262 7.85367 73.7262 7.85367 73.6977C7.85367 73.6692 7.79676 73.6122 7.7683 73.5838C7.7683 73.5838 7.73985 73.5268 7.73985 73.4983C7.73985 73.4413 7.68294 73.3843 7.65448 73.3274C7.65448 73.3274 7.65448 73.3274 7.65448 73.2989C7.65448 73.2989 7.65448 73.2419 7.65448 73.2134C7.65448 73.0995 7.62603 73.0995 7.56911 73.0425C7.56911 73.0425 7.56911 73.0425 7.56911 73.014C7.56911 72.9855 7.56911 73.014 7.56911 72.9855C7.56911 72.9001 7.56911 72.8716 7.5122 72.8146C7.5122 72.8146 7.42685 72.7861 7.39839 72.7291C7.34148 72.7006 7.31302 72.6721 7.28457 72.6152C7.28457 72.5582 7.28456 72.4727 7.31302 72.2733C7.34147 72.0739 7.31302 71.9315 7.19919 71.846C7.14228 71.789 7.08538 71.7605 7.02847 71.7605C6.82928 71.7036 6.82928 71.7605 6.77237 71.6466C6.77237 71.6466 6.77237 71.6466 6.77237 71.6181C6.71546 71.4757 6.65854 71.3902 6.60164 71.3047C6.60164 71.2762 6.54472 71.2193 6.48781 71.1908C6.48781 71.1908 6.43091 71.1338 6.40245 71.1053C6.31708 70.9629 6.31708 70.8204 6.40245 70.678C6.45936 70.5356 6.57318 70.3646 6.40245 70.1937C6.37399 70.1937 6.34553 70.1367 6.34553 70.1083C6.28862 69.9943 6.34554 69.9088 6.43091 69.7664C6.51627 69.624 6.40245 69.5385 6.40245 69.5385C6.40245 69.5385 6.31708 69.3391 6.40245 69.2536C6.45936 69.1682 6.48781 69.1397 6.40245 69.0827C6.40245 69.0827 6.34554 69.0827 6.31708 69.0827C6.26017 69.0827 6.23172 69.0257 6.20326 68.9687C6.20326 68.9687 6.20326 68.7408 6.20326 68.6839C6.20326 68.6269 6.08944 68.4275 6.08944 68.4275C6.08944 68.399 6.08944 68.342 6.03252 68.3135C5.94716 68.2281 5.80488 68.1426 5.69107 68.0856C5.63415 68.0856 5.6057 68.0002 5.6057 67.9717C5.54879 67.7723 5.6626 67.4874 5.77643 67.4019C5.91871 67.288 5.69107 67.117 5.80489 66.9461C5.8618 66.8891 5.80488 66.8322 5.77643 66.8037C5.71952 66.7752 5.66262 66.7467 5.66262 66.6897C5.66262 66.6897 5.66261 66.5473 5.6057 66.4618C5.6057 66.4333 5.54879 66.3764 5.52034 66.3479C5.49189 66.2909 5.43497 66.2624 5.40651 66.2339C5.40651 66.2339 5.37806 66.1769 5.37806 66.1485C5.37806 66.1485 5.37806 66.12 5.37806 66.0915C5.29269 65.8351 5.43497 65.4078 5.6057 65.2653C5.83335 65.0944 5.94716 64.9805 6.00407 64.7526C6.08944 64.5247 6.23172 64.4392 6.51627 64.3252C6.77237 64.2113 6.68699 64.1828 6.74391 63.9264C6.77236 63.6985 6.85773 63.4421 6.97155 63.3282C7.02846 63.2427 6.97155 63.1857 6.91464 63.1288C6.91464 63.1288 6.88619 63.0718 6.85773 63.0433C6.80082 62.9293 6.77237 62.9009 6.80082 62.7869C6.80082 62.7014 6.80082 62.673 6.80082 62.616C6.80082 62.616 6.80082 62.559 6.74391 62.502C6.74391 62.502 6.74391 62.502 6.71546 62.4451C6.71546 62.4451 6.71546 62.3596 6.77237 62.2741C6.77237 62.2456 6.77237 62.1887 6.77237 62.1317C6.77237 61.9038 6.65854 61.505 6.65854 61.505C6.65854 61.505 6.54473 61.334 6.57319 61.1916C6.57319 61.1631 6.54472 61.0776 6.45936 61.0207C6.45936 61.0207 6.45936 60.9922 6.43091 60.9637C6.34554 60.8782 6.26017 60.8213 6.17481 60.7643C6.14635 60.7643 6.1179 60.7073 6.1179 60.6788C6.06099 60.6218 6.1179 60.5649 6.1179 60.337C6.14635 60.0236 6.03254 59.5108 5.91871 59.3114C5.91871 59.3114 5.89026 59.2544 5.8618 59.2259C5.83335 59.169 5.77643 59.112 5.74798 59.055C5.69107 58.9696 5.63416 58.9411 5.6057 58.8841C5.5488 58.8556 5.52034 58.7986 5.49188 58.7701C5.49188 58.7701 5.49188 58.7132 5.49188 58.6562C5.49188 58.5707 5.49188 58.5422 5.43496 58.5138C5.43496 58.5138 5.37806 58.5138 5.34961 58.4853C5.26424 58.4283 5.23578 58.3998 5.23578 58.3713C5.23578 58.3713 5.23578 58.3143 5.23578 58.2574C5.23578 58.1719 5.23578 58.1434 5.17887 58.1149C5.17887 58.1149 5.0935 58.0864 5.06505 58.0579C5.03659 58.0295 4.97968 57.9725 4.97968 57.944C4.97968 57.8585 4.97968 57.7731 4.97968 57.7161C5.0366 57.6306 5.0366 57.6021 4.97968 57.5167C4.97968 57.5167 4.95122 57.5167 4.92277 57.4597C4.92277 57.4597 4.89432 57.4312 4.86586 57.3742C4.80895 57.2318 4.92278 56.9754 5.00815 56.9184C5.09351 56.8615 5.15042 56.776 5.0935 56.6336C5.0366 56.4911 5.09351 56.4911 5.20733 56.4057C5.2927 56.3202 5.2927 56.2632 5.20733 56.2062C5.17888 56.2062 5.15042 56.1493 5.15042 56.1208C5.15042 56.0638 5.20733 56.0068 5.26424 55.9214C5.40652 55.7504 5.40651 55.1522 5.40651 55.1522C5.40651 55.1522 5.40651 55.1522 5.34961 55.1237C5.29269 55.0667 5.15042 54.9813 5.0366 54.9528C4.95123 54.9528 4.92278 54.8958 4.95123 54.8673C4.95123 54.8104 5.0935 54.7249 5.23578 54.6109C5.49188 54.44 5.32115 54.3545 5.43496 54.1836C5.43496 54.1836 5.43496 54.0697 5.32114 53.8703C5.17887 53.6139 5.06505 52.7592 5.06505 52.7592C5.06505 52.7592 5.0935 52.4744 5.17887 52.3889C5.23578 52.3034 5.23578 52.218 5.15042 52.0755C5.15042 52.0755 5.15041 52.0186 5.12196 51.9901C5.00814 51.8191 5.12196 51.7052 5.23578 51.4773C5.3496 51.2494 5.46342 50.993 5.49188 50.936C5.49188 50.9075 5.49189 50.8506 5.46343 50.8506C5.43497 50.8506 5.37806 50.8221 5.32114 50.7936C5.26423 50.7651 5.20733 50.7366 5.20733 50.6796C5.20733 50.6227 5.15041 50.5657 5.12196 50.5087C5.12196 50.5087 5.12195 50.4517 5.06505 50.4517C5.06505 50.4517 4.92277 50.4232 4.92277 50.3378C4.92277 50.3378 4.92277 50.2808 4.86586 50.2523C4.86586 50.2523 4.66667 50.1953 4.60976 50.1669C4.55285 50.1669 4.49595 50.1099 4.49595 50.0529C4.49595 50.0244 4.49595 49.939 4.49595 49.9105C4.5244 49.825 4.49595 49.768 4.43904 49.6826C4.43904 49.6826 4.41058 49.6256 4.38212 49.6256C4.38212 49.6256 4.38212 49.5971 4.35367 49.5686C4.32521 49.4831 4.2683 49.3692 4.32522 49.2837C4.35367 49.2268 4.32522 49.1698 4.29677 49.1128C4.29677 49.1128 4.29677 49.0843 4.29677 49.0558C4.29677 49.0273 4.29677 48.9989 4.29677 48.9704C4.41058 48.8564 4.38213 48.8279 4.29677 48.7425C4.29677 48.7425 4.29677 48.7425 4.29677 48.6855C4.23985 48.5715 4.23985 48.4291 4.43904 48.3152C4.63823 48.1727 4.41058 48.1727 4.58131 48.0872C4.75204 48.0018 4.66668 47.8878 4.63822 47.8309C4.63822 47.7454 4.75204 47.6884 4.95123 47.603C5.15042 47.5175 5.06505 47.3466 5.26424 47.3466C5.43497 47.3466 5.43496 47.0332 5.43496 47.0332C5.43496 46.9762 5.46342 46.9477 5.49188 46.8908C5.49188 46.8908 5.46342 46.8623 5.43496 46.8338C5.43496 46.8338 5.43497 46.6914 5.54879 46.6914C5.66261 46.6914 5.6626 46.6059 5.77643 46.5204C5.89025 46.435 5.74798 46.4065 5.77643 46.264C5.83334 46.1216 5.74798 46.0361 5.74798 46.0361C5.74798 46.0361 5.74798 46.0361 5.69107 45.9792C5.69107 45.9222 5.63415 45.8367 5.69107 45.7228C5.77643 45.6088 5.69106 45.3239 5.57724 45.153C5.57724 45.1245 5.5488 45.0676 5.52034 45.0391C5.52034 45.0391 5.49189 45.0106 5.46343 44.9821C5.40652 44.9821 5.37806 44.9251 5.37806 44.8966C5.37806 44.8112 5.37806 44.6972 5.37806 44.6402C5.3496 44.5263 5.26423 44.4123 5.49188 44.2984C5.71952 44.1844 5.6057 44.042 5.69107 43.8141C5.71952 43.7001 5.69106 43.6717 5.63415 43.6432C5.63415 43.6432 5.63416 43.6147 5.6057 43.6147C5.6057 43.6147 5.6057 43.5862 5.6057 43.5292C5.6057 43.4722 5.46342 42.9595 5.34961 42.931C5.32115 42.931 5.2927 42.9025 5.26424 42.8455C5.23578 42.7601 5.26423 42.6746 5.29269 42.5606C5.37806 42.3897 5.00814 41.82 5.12196 41.706C5.17887 41.649 5.12196 41.6205 5.0935 41.5636C5.0935 41.5636 5.0935 41.5636 5.0935 41.5351C5.0935 41.5351 5.0935 41.4781 5.0935 41.4496C5.15042 41.3926 5.0935 41.3642 5.06505 41.3072C5.03659 41.3072 4.97968 41.2502 4.92277 41.2217C4.89432 41.2217 4.86586 41.1932 4.86586 41.1647C4.86586 41.1078 5.00815 41.0223 5.15042 40.9938C5.32115 40.9653 5.37806 40.8514 5.37806 40.8514C5.37806 40.7944 5.37806 40.7659 5.37806 40.6804C5.37806 40.6804 5.49188 40.2816 5.54879 40.1962C5.6057 40.1107 5.54879 40.0822 5.63415 39.9683C5.74798 39.8543 5.63416 39.7973 5.71953 39.6834C5.74798 39.5694 5.71952 39.3985 5.57724 39.2561C5.43497 39.1136 5.52033 38.9142 5.57724 38.8003C5.66261 38.6863 5.57725 38.6293 5.69107 38.4869C5.80488 38.3729 5.69106 38.3445 5.77643 38.259C5.89025 38.1735 5.77643 38.1735 5.77643 38.0881C5.74798 38.0026 5.77643 37.9171 5.94716 37.7462C6.03253 37.6892 6.08945 37.5753 6.1179 37.4898C6.1179 37.4898 6.1179 37.2619 6.1179 37.2049C6.1179 37.2049 6.08944 37.2049 6.08944 37.1765C6.08944 37.1765 6.08944 37.1765 6.08944 37.148C6.1179 37.091 6.20326 37.034 6.31708 36.9486C6.43091 36.8631 6.374 36.8346 6.31708 36.8061C6.31708 36.8061 6.1179 36.7491 6.03252 36.7207C5.97561 36.7207 5.94716 36.6922 5.91871 36.6637C5.89026 36.6067 5.91871 36.5497 5.91871 36.4358C5.91871 36.3503 5.91871 36.3218 5.8618 36.2933C5.8618 36.2933 5.8618 36.2364 5.8618 36.1794C5.91871 36.0939 5.86179 36.037 5.83334 36.0085C5.83334 36.0085 5.77643 36.0085 5.71953 35.9515C5.66262 35.8945 5.63415 35.8945 5.63415 35.866C5.63415 35.8375 5.63416 35.7806 5.71953 35.6951C5.83335 35.5811 5.83334 35.5811 5.74798 35.5242C5.74798 35.5242 5.74798 35.5242 5.69107 35.5242C5.69107 35.5242 5.69107 35.5242 5.69107 35.4957C5.63415 35.4102 5.63415 35.3532 5.69107 35.2393C5.77643 35.1253 5.57725 35.0969 5.66262 35.0114C5.66262 35.0114 5.66262 34.9829 5.66262 34.9544C5.66262 34.9544 5.66262 34.9259 5.66262 34.8974C5.66262 34.8974 5.66261 34.869 5.6057 34.8405C5.6057 34.8405 5.52034 34.7835 5.46343 34.7835C5.43497 34.7835 5.40652 34.7835 5.40652 34.7265C5.40652 34.6411 5.54879 34.5271 5.69107 34.4416C5.69107 34.4416 5.74798 34.4131 5.77643 34.3847C5.97561 34.2707 6.17481 33.9289 6.17481 33.7864C6.17481 33.6725 6.34553 33.5585 6.54472 33.3876C6.77237 33.2167 6.54472 32.9033 6.74391 32.8178C6.9431 32.7324 6.85773 32.7039 6.82928 32.5615C6.80083 32.3905 6.77237 32.3335 6.91464 32.2196C7.02846 32.0772 7.11384 31.7923 7.02847 31.7638C6.9431 31.7068 7.02846 31.5359 7.22765 31.5074C7.36993 31.4789 7.31302 31.3935 7.22765 31.365C7.1992 31.3365 7.17074 31.308 7.14229 31.2795C7.02847 31.194 7.08538 30.9946 7.17074 30.9092C7.28456 30.7952 7.02846 30.7952 7.17074 30.6813C7.34148 30.5673 7.17074 30.3394 7.14229 30.197C7.11384 30.083 7.14229 30.026 7.28457 29.9121C7.4553 29.7981 7.39838 29.7697 7.22765 29.5987C7.11383 29.4278 7.28456 29.2854 7.45529 29.1144C7.62602 28.9435 7.45529 28.6586 7.51221 28.5732C7.54066 28.4877 7.42684 28.4592 7.28457 28.2598C7.14229 28.0889 7.00001 27.8325 6.91464 27.804C6.91464 27.804 6.85773 27.804 6.85773 27.7755C6.77237 27.7185 6.77237 27.6331 6.80082 27.5476C6.82928 27.4337 6.65855 27.4337 6.80082 27.3482C6.91464 27.2627 6.77238 27.2342 6.88619 27.1773C7.02847 27.0918 6.80083 27.0633 6.88619 27.0063C7.00001 26.9494 6.91465 26.8069 6.82928 26.7784C6.82928 26.7784 6.77237 26.7784 6.77237 26.75C6.71546 26.7215 6.71545 26.6645 6.85773 26.5505C7.02846 26.3796 6.80083 26.3796 6.94311 26.2657C7.08538 26.1517 6.82928 26.0947 6.97156 25.9808C7.08538 25.8668 7.02846 25.8383 6.97156 25.8099L6.85773 25.8099C6.85773 25.8099 6.82928 25.8099 6.80082 25.7814L6.68701 25.6389L6.80082 25.525C6.80082 25.525 6.77236 25.525 6.74391 25.4965L6.60164 25.3825C6.60164 25.3825 6.57318 25.3825 6.54472 25.3541C6.54472 25.3541 6.48781 25.2686 6.54472 25.2116C6.63009 25.1262 6.54473 25.0977 6.51627 25.0692C6.374 24.9267 6.31708 24.8413 6.20326 24.6988C6.20326 24.5279 6.20326 24.4425 6.20326 24.3C6.20326 23.8442 6.23172 23.6163 6.26018 23.1605C6.26018 23.1605 6.1748 22.6762 6.34553 22.5908C6.51626 22.4768 6.80082 21.6507 6.80082 21.6507C6.85773 21.5937 6.88619 21.5652 6.97156 21.5367L7.08538 21.3373C7.1992 21.1379 7.2561 20.5681 7.2561 20.5681C7.22765 20.4257 7.1992 20.3687 7.14229 20.2263C7.14229 20.0838 7.14229 20.0269 7.14229 19.8844C7.11384 19.742 7.08538 19.6565 7.02847 19.5141C6.91465 19.2862 6.88619 19.1437 6.77237 18.9158C6.74392 18.8304 6.71546 18.7734 6.65855 18.6879C6.65855 18.6879 6.57318 18.3746 6.74391 18.1467C6.91464 17.9188 6.97156 17.8333 6.94311 17.6624C6.91465 17.4915 6.88619 17.463 7.17075 17.3205C7.4553 17.1496 7.54066 16.5229 7.54066 16.5229C7.56912 16.3235 7.59757 16.238 7.62603 16.0386C7.62603 16.0386 7.79675 15.8107 7.71139 15.5828C7.62602 15.3549 7.65449 15.3264 7.85368 15.127C8.08131 14.9276 7.85367 14.4433 7.96749 14.3293C8.10976 14.2154 7.91058 14.2439 8.08131 14.0729C8.25204 13.9305 7.93904 13.7596 7.99595 13.7026C8.08131 13.6456 7.85367 13.3607 7.93903 13.2753C8.02441 13.1613 7.93903 12.9904 7.93903 12.9904C7.93903 12.9904 7.73985 12.9049 7.93903 12.677C8.16668 12.4491 7.76831 12.5061 7.85368 12.4491C7.93904 12.3637 7.79676 11.6515 7.79676 11.6515L7.79676 11.4521C7.79676 11.4521 7.56912 11.2242 7.73985 11.0817C7.91058 10.9108 7.54066 10.9963 7.62603 10.8253C7.71139 10.6259 7.65449 10.7114 7.54066 10.5689C7.42684 10.398 7.36993 10.1131 7.71139 9.82826C8.0244 9.57187 7.82521 9.37245 7.82521 9.0306C7.82521 8.94514 7.82522 8.85967 7.79676 8.77421C7.71139 8.46085 7.4553 8.11899 7.34148 8.09051C7.1992 8.09051 7.11383 7.72016 7.11383 7.72016C7.02846 7.66319 7.00001 7.6347 6.91464 7.60621C6.91464 7.60621 6.88619 7.54924 6.82928 7.46378C6.82928 7.46378 6.82928 7.46378 6.80082 7.4068C6.74391 7.23587 6.687 6.97948 6.82928 6.83705C7.08538 6.63763 6.6301 6.66612 6.88619 6.49519C7.11384 6.29578 6.60164 6.38124 6.88619 6.12485C7.00001 6.0109 6.94311 5.98241 6.88619 5.98241C6.85774 5.98241 6.80083 5.98242 6.77237 5.95393C6.74392 5.95393 6.71546 5.89695 6.77237 5.83998C6.9431 5.66905 6.82928 5.64056 6.71546 5.64056C6.71546 5.64056 6.65855 5.64056 6.6301 5.64056C6.45937 5.61207 6.48782 5.3272 6.82928 5.15627C7.11384 5.01383 7.11383 4.92837 6.97156 4.87139C6.97156 4.87139 6.91464 4.84291 6.85773 4.81442C6.57318 4.72896 6.51627 4.44408 6.51627 4.44408C6.51627 4.44408 6.51627 4.24466 6.34554 4.18769C6.23172 4.10223 6.08944 3.87432 6.34554 3.50398C6.60164 3.13364 6.14636 3.10516 6.23173 2.90574C6.31709 2.70633 6.28863 2.56389 6.14635 2.44994C6.03253 2.33599 6.14635 2.10809 6.17481 1.93716C6.23172 1.79472 6.17481 1.62379 5.91872 1.16799C5.8618 1.08253 5.86179 0.997065 5.83334 0.911602C5.80489 0.484286 6.1179 -4.62825e-06 6.1179 -4.62825e-06L111.431 -2.48764e-08L111.431 0.911607C111.63 58.3998 111.801 115.888 112 173.405L112 174.174C111.374 174.174 111.089 174.174 110.463 174.174C102.894 174.288 124.15 174.345 86.4756 174.487C57.5081 174.573 30.6463 174.63 24.813 174.715C20.0041 174.801 17.5854 174.829 12.7764 174.915L12.6342 174.915C10.5854 174.943 9.56098 174.972 7.54066 175L7.22765 175C6.94309 175 6.80081 175 6.4878 175L6.51627 173.376Z" fill="black"/>
</svg>
