<svg xmlns="http://www.w3.org/2000/svg" viewBox="0 0 100 40" preserveAspectRatio="none">
  <path d="M0,5 
    Q2,3 5,6 Q8,2 12,5 Q15,1 18,4 Q22,2 25,5 Q28,1 32,4 Q35,2 38,5 Q42,1 45,4 Q48,2 52,5 Q55,1 58,4 Q62,2 65,5 Q68,1 72,4 Q75,2 78,5 Q82,1 85,4 Q88,2 92,5 Q95,1 98,4 Q100,3 100,5
    L100,35
    Q98,37 95,34 Q92,38 88,35 Q85,39 82,36 Q78,38 75,35 Q72,39 68,36 Q65,38 62,35 Q58,39 55,36 Q52,38 48,35 Q45,39 42,36 Q38,38 35,35 Q32,39 28,36 Q25,38 22,35 Q18,39 15,36 Q12,38 8,35 Q5,38 2,35 Q0,37 0,35
    Z" 
    fill="currentColor"/>
</svg>
