<svg xmlns="http://www.w3.org/2000/svg" viewBox="0 0 200 200" preserveAspectRatio="none">
  <!-- Full torn paper frame - all 4 edges with ragged effect -->
  <path d="
    M10,8 
    Q15,5 20,9 Q25,4 30,8 Q35,5 40,9 Q45,4 50,8 Q55,5 60,9 Q65,4 70,8 Q75,5 80,9 Q85,4 90,8 Q95,5 100,9 Q105,4 110,8 Q115,5 120,9 Q125,4 130,8 Q135,5 140,9 Q145,4 150,8 Q155,5 160,9 Q165,4 170,8 Q175,5 180,9 Q185,4 190,8
    Q193,10 192,15 Q195,20 192,25 Q195,30 192,35 Q195,40 192,45 Q195,50 192,55 Q195,60 192,65 Q195,70 192,75 Q195,80 192,85 Q195,90 192,95 Q195,100 192,105 Q195,110 192,115 Q195,120 192,125 Q195,130 192,135 Q195,140 192,145 Q195,150 192,155 Q195,160 192,165 Q195,170 192,175 Q195,180 192,185 Q193,190 190,192
    Q185,195 180,191 Q175,195 170,192 Q165,196 160,192 Q155,195 150,191 Q145,195 140,192 Q135,196 130,192 Q125,195 120,191 Q115,195 110,192 Q105,196 100,192 Q95,195 90,191 Q85,195 80,192 Q75,196 70,192 Q65,195 60,191 Q55,195 50,192 Q45,196 40,192 Q35,195 30,191 Q25,195 20,192 Q15,196 10,192
    Q7,190 8,185 Q5,180 8,175 Q5,170 8,165 Q5,160 8,155 Q5,150 8,145 Q5,140 8,135 Q5,130 8,125 Q5,120 8,115 Q5,110 8,105 Q5,100 8,95 Q5,90 8,85 Q5,80 8,75 Q5,70 8,65 Q5,60 8,55 Q5,50 8,45 Q5,40 8,35 Q5,30 8,25 Q5,20 8,15 Q7,10 10,8
    Z" 
    fill="currentColor"/>
</svg>
